<svg xmlns="http://www.w3.org/2000/svg" xmlns:xlink="http://www.w3.org/1999/xlink" width="400" zoomAndPan="magnify" viewBox="0 0 300 299.999988" height="400" preserveAspectRatio="xMidYMid meet" version="1.0"><path fill="#f6b98d" d="M 240.746094 229.925781 C 244.289062 223.78125 242.1875 215.929688 236.042969 212.382812 L 120.820312 145.859375 C 116.253906 143.21875 110.847656 142.445312 105.714844 143.679688 L 97.4375 145.683594 C 88.535156 147.835938 79.222656 147.601562 70.4375 145 L 31.847656 133.5625 L 11.300781 210.617188 L 62.332031 230.726562 L 166.878906 291.085938 C 173.023438 294.632812 180.878906 292.53125 184.421875 286.386719 C 187.96875 280.242188 185.867188 272.386719 179.722656 268.84375 L 184.171875 271.414062 C 190.316406 274.957031 198.167969 272.855469 201.714844 266.710938 C 205.257812 260.570312 203.15625 252.714844 197.015625 249.167969 L 201.460938 251.738281 C 207.605469 255.28125 215.460938 253.179688 219.003906 247.039062 C 222.550781 240.894531 220.449219 233.039062 214.304688 229.496094 L 223.203125 234.632812 C 229.339844 238.175781 237.195312 236.070312 240.746094 229.925781 Z M 240.746094 229.925781 " fill-opacity="1" fill-rule="nonzero"/><path fill="#f3a268" d="M 241.402344 218.507812 C 237.84375 224.609375 230.019531 226.699219 223.890625 223.167969 L 186.078125 201.332031 C 181.160156 198.5 174.878906 200.179688 172.042969 205.09375 L 223.203125 234.632812 C 229.347656 238.175781 237.199219 236.074219 240.746094 229.929688 C 242.839844 226.300781 242.917969 222.085938 241.402344 218.507812 Z M 241.402344 218.507812 " fill-opacity="1" fill-rule="nonzero"/><path fill="#f3a268" d="M 219.65625 235.613281 C 216.097656 241.714844 208.273438 243.804688 202.144531 240.273438 L 173.230469 223.578125 C 168.3125 220.742188 162.03125 222.421875 159.195312 227.335938 L 201.457031 251.738281 C 207.601562 255.28125 215.457031 253.179688 219 247.039062 C 221.097656 243.40625 221.179688 239.195312 219.65625 235.613281 Z M 219.65625 235.613281 " fill-opacity="1" fill-rule="nonzero"/><path fill="#f3a268" d="M 202.367188 255.289062 C 198.804688 261.390625 190.984375 263.480469 184.855469 259.945312 L 160.386719 245.820312 C 155.472656 242.984375 149.1875 244.664062 146.351562 249.582031 L 184.167969 271.414062 C 190.308594 274.957031 198.164062 272.855469 201.707031 266.710938 C 203.804688 263.082031 203.886719 258.867188 202.367188 255.289062 Z M 202.367188 255.289062 " fill-opacity="1" fill-rule="nonzero"/><path fill="#f3a268" d="M 185.074219 274.960938 C 181.515625 281.066406 173.691406 283.15625 167.5625 279.621094 L 134.199219 260.359375 C 99.800781 240.5 88.015625 196.515625 107.875 162.117188 L 118 144.582031 C 114.101562 143.058594 109.828125 142.695312 105.714844 143.6875 L 97.4375 145.691406 C 88.535156 147.84375 79.222656 147.605469 70.4375 145.007812 L 31.847656 133.5625 L 11.300781 210.617188 L 62.332031 230.726562 L 166.878906 291.085938 C 173.023438 294.632812 180.878906 292.53125 184.421875 286.386719 C 186.515625 282.753906 186.597656 278.542969 185.074219 274.960938 Z M 185.074219 274.960938 " fill-opacity="1" fill-rule="nonzero"/><path fill="#f3a268" d="M 139.910156 156.882812 L 134.117188 161.847656 C 124.25 170.304688 112.832031 176.769531 100.5 180.878906 C 95.214844 182.640625 92.511719 188.15625 93.851562 193.234375 C 93.199219 195.777344 93.453125 198.566406 94.941406 201.046875 C 99.84375 209.214844 110.378906 211.96875 118.648438 207.242188 L 139.726562 195.207031 L 144 196.917969 C 151.324219 199.84375 159.175781 200.757812 166.78125 199.730469 C 173.480469 198.820312 179.109375 194.871094 182.375 189.375 C 183.210938 188.914062 184.070312 188.5 184.886719 187.984375 L 226.59375 212.058594 C 230.726562 214.449219 235.339844 215.753906 240.050781 216.050781 C 239.019531 214.601562 237.6875 213.332031 236.050781 212.382812 Z M 139.910156 156.882812 " fill-opacity="1" fill-rule="nonzero"/><path fill="#a2bdcd" d="M 1.027344 113.015625 L 52.398438 128.425781 L 26.710938 231.164062 L 1.027344 226.027344 Z M 1.027344 113.015625 " fill-opacity="1" fill-rule="nonzero"/><path fill="#769fb6" d="M 14.449219 173.726562 L 16.152344 117.542969 L 1.027344 113.015625 L 1.027344 226.027344 L 26.710938 231.164062 L 32.835938 206.660156 C 21.371094 199.976562 14.027344 187.527344 14.449219 173.726562 Z M 14.449219 173.726562 " fill-opacity="1" fill-rule="nonzero"/><path fill="#f9cdae" d="M 60.128906 262.144531 C 53.984375 258.601562 51.882812 250.746094 55.429688 244.601562 L 63.132812 231.257812 C 66.679688 225.113281 74.53125 223.011719 80.675781 226.554688 C 86.820312 230.101562 88.921875 237.957031 85.375 244.097656 L 77.671875 257.445312 C 74.125 263.582031 66.273438 265.691406 60.128906 262.144531 Z M 60.128906 262.144531 " fill-opacity="1" fill-rule="nonzero"/><path fill="#f9cdae" d="M 79.804688 279.4375 C 73.660156 275.890625 71.558594 268.039062 75.101562 261.894531 L 87.945312 239.652344 C 91.488281 233.507812 99.34375 231.40625 105.488281 234.949219 C 111.632812 238.496094 113.734375 246.347656 110.1875 252.492188 L 97.347656 274.734375 C 93.800781 280.875 85.945312 282.980469 79.804688 279.4375 Z M 79.804688 279.4375 " fill-opacity="1" fill-rule="nonzero"/><path fill="#f9cdae" d="M 104.613281 287.832031 C 98.472656 284.285156 96.371094 276.429688 99.914062 270.289062 L 107.621094 256.941406 C 111.164062 250.796875 119.019531 248.695312 125.164062 252.242188 C 131.304688 255.785156 133.40625 263.640625 129.863281 269.785156 L 122.15625 283.128906 C 118.613281 289.269531 110.757812 291.375 104.613281 287.832031 Z M 104.613281 287.832031 " fill-opacity="1" fill-rule="nonzero"/><path fill="#f9cdae" d="M 129.425781 296.222656 C 123.28125 292.679688 121.179688 284.824219 124.726562 278.679688 L 127.292969 274.234375 C 130.839844 268.089844 138.695312 265.988281 144.835938 269.53125 C 150.980469 273.078125 153.082031 280.929688 149.539062 287.074219 L 146.96875 291.523438 C 143.425781 297.664062 135.570312 299.769531 129.425781 296.222656 Z M 129.425781 296.222656 " fill-opacity="1" fill-rule="nonzero"/><path fill="#f6b98d" d="M 81.902344 227.441406 C 81.898438 229.613281 81.402344 231.804688 80.238281 233.824219 L 72.535156 247.171875 C 68.988281 253.316406 61.136719 255.417969 54.992188 251.871094 C 54.542969 251.613281 54.164062 251.285156 53.765625 250.988281 C 53.753906 255.4375 56.003906 259.765625 60.128906 262.144531 C 66.273438 265.691406 74.125 263.589844 77.671875 257.445312 L 85.375 244.097656 C 88.664062 238.402344 87.046875 231.277344 81.902344 227.441406 Z M 81.902344 227.441406 " fill-opacity="1" fill-rule="nonzero"/><path fill="#f6b98d" d="M 106.714844 235.832031 C 106.710938 238.007812 106.210938 240.199219 105.050781 242.21875 L 92.207031 264.460938 C 88.664062 270.605469 80.808594 272.707031 74.667969 269.164062 C 74.21875 268.90625 73.839844 268.578125 73.4375 268.277344 C 73.429688 272.726562 75.679688 277.058594 79.804688 279.4375 C 85.945312 282.980469 93.800781 280.878906 97.347656 274.734375 L 110.1875 252.492188 C 113.476562 246.796875 111.859375 239.671875 106.714844 235.832031 Z M 106.714844 235.832031 " fill-opacity="1" fill-rule="nonzero"/><path fill="#f6b98d" d="M 126.390625 253.125 C 126.386719 255.296875 125.886719 257.492188 124.726562 259.511719 L 117.019531 272.855469 C 113.476562 279 105.621094 281.101562 99.476562 277.554688 C 99.03125 277.300781 98.652344 276.972656 98.25 276.671875 C 98.238281 281.121094 100.488281 285.445312 104.613281 287.832031 C 110.757812 291.375 118.613281 289.273438 122.15625 283.128906 L 129.863281 269.785156 C 133.152344 264.085938 131.53125 256.960938 126.390625 253.125 Z M 126.390625 253.125 " fill-opacity="1" fill-rule="nonzero"/><path fill="#f6b98d" d="M 146.070312 270.417969 C 146.066406 272.589844 145.566406 274.78125 144.40625 276.800781 L 141.835938 281.25 C 138.292969 287.394531 130.4375 289.496094 124.292969 285.949219 C 123.847656 285.695312 123.46875 285.363281 123.066406 285.066406 C 123.054688 289.515625 125.304688 293.839844 129.429688 296.222656 C 135.574219 299.769531 143.429688 297.667969 146.972656 291.523438 L 149.542969 287.074219 C 152.824219 281.378906 151.210938 274.253906 146.070312 270.417969 Z M 146.070312 270.417969 " fill-opacity="1" fill-rule="nonzero"/><path fill="#f9cdae" d="M 184.878906 182.847656 L 235.765625 212.222656 L 283.5625 205.480469 L 263.011719 128.425781 L 213.769531 142.496094 C 198.949219 146.726562 183.242188 146.726562 168.421875 142.496094 C 160.128906 140.125 151.195312 142.078125 144.648438 147.6875 L 134.121094 156.707031 C 124.253906 165.167969 112.839844 171.632812 100.503906 175.742188 C 94.269531 177.820312 91.5625 185.136719 94.941406 190.773438 C 99.84375 198.941406 110.378906 201.695312 118.648438 196.96875 L 139.726562 184.929688 L 144 186.640625 C 157.445312 192.019531 172.652344 190.609375 184.878906 182.847656 Z M 184.878906 182.847656 " fill-opacity="1" fill-rule="nonzero"/><path fill="#f6b98d" d="M 263.011719 128.425781 L 241.4375 134.589844 L 242.558594 139.078125 C 248.253906 161.867188 227.832031 182.609375 204.960938 177.265625 L 192.652344 174.390625 C 187.910156 173.28125 183.015625 174 178.542969 175.925781 C 167.636719 180.621094 155.203125 180.851562 144 176.375 C 138.042969 175.289062 131.914062 176.929688 127.285156 180.832031 L 123.820312 183.753906 C 118.828125 186.605469 113.027344 187.96875 107.320312 187.253906 C 100.773438 186.429688 96.816406 183.679688 94.894531 180.375 C 93.113281 183.46875 92.921875 187.417969 94.945312 190.789062 C 99.847656 198.957031 110.382812 201.707031 118.652344 196.984375 L 139.726562 184.929688 L 144 186.640625 C 157.445312 192.019531 172.652344 190.609375 184.886719 182.847656 L 235.773438 212.222656 L 283.5625 205.480469 Z M 263.011719 128.425781 " fill-opacity="1" fill-rule="nonzero"/><path fill="#a2bdcd" d="M 298.972656 102.738281 L 247.601562 118.152344 L 273.289062 220.890625 L 298.972656 215.753906 Z M 298.972656 102.738281 " fill-opacity="1" fill-rule="nonzero"/><path fill="#769fb6" d="M 298.972656 190.582031 L 298.972656 215.753906 L 273.289062 220.890625 L 247.601562 118.152344 L 258.339844 114.914062 L 272.054688 169.777344 C 275.238281 182.3125 286.488281 190.734375 298.972656 190.582031 Z M 298.972656 190.582031 " fill-opacity="1" fill-rule="nonzero"/><path fill="#a2bdcd" d="M 170.546875 77.054688 L 124.316406 102.738281 L 78.082031 77.054688 L 78.082031 25.683594 L 124.316406 0 L 170.546875 25.683594 Z M 170.546875 77.054688 " fill-opacity="1" fill-rule="nonzero"/><path fill="#769fb6" d="M 153.386719 79.058594 C 119.058594 79.058594 90.394531 54.992188 83.234375 22.824219 L 78.082031 25.683594 L 78.082031 77.054688 L 124.316406 102.738281 L 170.546875 77.054688 L 170.546875 76.96875 C 165.046875 78.324219 159.304688 79.058594 153.386719 79.058594 Z M 153.386719 79.058594 " fill-opacity="1" fill-rule="nonzero"/><path fill="#ffc857" d="M 139.726562 25.683594 C 139.726562 26.359375 139.660156 27.027344 139.527344 27.6875 C 139.398438 28.351562 139.203125 28.992188 138.945312 29.617188 C 138.6875 30.238281 138.371094 30.832031 137.996094 31.394531 C 137.621094 31.953125 137.195312 32.472656 136.71875 32.949219 C 136.238281 33.425781 135.722656 33.851562 135.160156 34.226562 C 134.597656 34.601562 134.007812 34.917969 133.382812 35.175781 C 132.761719 35.433594 132.117188 35.628906 131.457031 35.761719 C 130.792969 35.894531 130.125 35.957031 129.453125 35.957031 C 128.777344 35.957031 128.109375 35.894531 127.449219 35.761719 C 126.785156 35.628906 126.144531 35.433594 125.519531 35.175781 C 124.898438 34.917969 124.304688 34.601562 123.742188 34.226562 C 123.183594 33.851562 122.664062 33.425781 122.1875 32.949219 C 121.710938 32.472656 121.285156 31.953125 120.910156 31.394531 C 120.535156 30.832031 120.21875 30.238281 119.960938 29.617188 C 119.703125 28.992188 119.507812 28.351562 119.375 27.6875 C 119.242188 27.027344 119.179688 26.359375 119.179688 25.683594 C 119.179688 25.011719 119.242188 24.34375 119.375 23.679688 C 119.507812 23.019531 119.703125 22.375 119.960938 21.753906 C 120.21875 21.128906 120.535156 20.539062 120.910156 19.976562 C 121.285156 19.417969 121.710938 18.898438 122.1875 18.421875 C 122.664062 17.941406 123.183594 17.515625 123.742188 17.140625 C 124.304688 16.769531 124.898438 16.449219 125.519531 16.191406 C 126.144531 15.933594 126.785156 15.738281 127.449219 15.609375 C 128.109375 15.476562 128.777344 15.410156 129.453125 15.410156 C 130.125 15.410156 130.792969 15.476562 131.457031 15.609375 C 132.117188 15.738281 132.761719 15.933594 133.382812 16.191406 C 134.007812 16.449219 134.597656 16.769531 135.160156 17.140625 C 135.722656 17.515625 136.238281 17.941406 136.71875 18.421875 C 137.195312 18.898438 137.621094 19.417969 137.996094 19.976562 C 138.371094 20.539062 138.6875 21.128906 138.945312 21.753906 C 139.203125 22.375 139.398438 23.019531 139.527344 23.679688 C 139.660156 24.34375 139.726562 25.011719 139.726562 25.683594 Z M 139.726562 25.683594 " fill-opacity="1" fill-rule="nonzero"/><path fill="#83ae9b" d="M 119.179688 82.191406 L 144.863281 51.371094 L 170.546875 77.054688 L 124.316406 102.738281 Z M 119.179688 82.191406 " fill-opacity="1" fill-rule="nonzero"/><path fill="#a9c7b9" d="M 103.765625 41.097656 L 78.082031 77.054688 L 124.316406 102.738281 L 147.601562 89.804688 Z M 103.765625 41.097656 " fill-opacity="1" fill-rule="nonzero"/><path fill="#61947d" d="M 126.242188 73.722656 L 119.179688 82.191406 L 124.316406 102.738281 L 170.546875 77.054688 L 170.480469 76.988281 C 165.003906 78.332031 159.28125 79.0625 153.386719 79.0625 C 143.773438 79.058594 134.621094 77.136719 126.242188 73.722656 Z M 126.242188 73.722656 " fill-opacity="1" fill-rule="nonzero"/><path fill="#83ae9b" d="M 147.601562 89.804688 L 135.933594 76.84375 C 120.066406 72.882812 106.308594 63.6875 96.585938 51.152344 L 78.082031 77.054688 L 124.316406 102.738281 Z M 147.601562 89.804688 " fill-opacity="1" fill-rule="nonzero"/><path fill="#ffb41f" d="M 134.589844 25.683594 C 134.589844 26.023438 134.554688 26.355469 134.492188 26.6875 C 134.425781 27.019531 134.328125 27.339844 134.199219 27.652344 C 134.070312 27.960938 133.910156 28.257812 133.722656 28.539062 C 133.535156 28.820312 133.324219 29.078125 133.085938 29.316406 C 132.847656 29.554688 132.585938 29.769531 132.304688 29.957031 C 132.027344 30.144531 131.730469 30.300781 131.417969 30.429688 C 131.105469 30.558594 130.785156 30.65625 130.453125 30.722656 C 130.125 30.789062 129.789062 30.820312 129.453125 30.820312 C 129.113281 30.820312 128.78125 30.789062 128.449219 30.722656 C 128.117188 30.65625 127.796875 30.558594 127.484375 30.429688 C 127.175781 30.300781 126.878906 30.144531 126.597656 29.957031 C 126.316406 29.769531 126.058594 29.554688 125.820312 29.316406 C 125.582031 29.078125 125.367188 28.820312 125.179688 28.539062 C 124.992188 28.257812 124.835938 27.960938 124.707031 27.652344 C 124.578125 27.339844 124.480469 27.019531 124.414062 26.6875 C 124.347656 26.355469 124.316406 26.023438 124.316406 25.683594 C 124.316406 25.347656 124.347656 25.011719 124.414062 24.683594 C 124.480469 24.351562 124.578125 24.03125 124.707031 23.71875 C 124.835938 23.40625 124.992188 23.113281 125.179688 22.832031 C 125.367188 22.550781 125.582031 22.292969 125.820312 22.050781 C 126.058594 21.8125 126.316406 21.601562 126.597656 21.414062 C 126.878906 21.226562 127.175781 21.066406 127.484375 20.9375 C 127.796875 20.808594 128.117188 20.710938 128.449219 20.648438 C 128.78125 20.582031 129.113281 20.546875 129.453125 20.546875 C 129.789062 20.546875 130.125 20.582031 130.453125 20.648438 C 130.785156 20.710938 131.105469 20.808594 131.417969 20.9375 C 131.730469 21.066406 132.027344 21.226562 132.304688 21.414062 C 132.585938 21.601562 132.847656 21.8125 133.085938 22.050781 C 133.324219 22.292969 133.535156 22.550781 133.722656 22.832031 C 133.910156 23.113281 134.070312 23.40625 134.199219 23.71875 C 134.328125 24.03125 134.425781 24.351562 134.492188 24.683594 C 134.554688 25.011719 134.589844 25.347656 134.589844 25.683594 Z M 134.589844 25.683594 " fill-opacity="1" fill-rule="nonzero"/><path fill="#e9f1f2" d="M 227.054688 82.191406 C 227.054688 83.371094 226.996094 84.542969 226.882812 85.714844 C 226.765625 86.886719 226.59375 88.050781 226.363281 89.207031 C 226.132812 90.363281 225.847656 91.503906 225.507812 92.628906 C 225.164062 93.757812 224.769531 94.863281 224.316406 95.953125 C 223.867188 97.039062 223.363281 98.105469 222.808594 99.144531 C 222.253906 100.179688 221.648438 101.191406 220.996094 102.167969 C 220.339844 103.148438 219.640625 104.09375 218.890625 105.003906 C 218.144531 105.914062 217.355469 106.785156 216.523438 107.617188 C 215.691406 108.453125 214.816406 109.242188 213.90625 109.988281 C 212.996094 110.734375 212.054688 111.4375 211.074219 112.089844 C 210.09375 112.746094 209.085938 113.347656 208.046875 113.90625 C 207.007812 114.460938 205.945312 114.960938 204.855469 115.414062 C 203.769531 115.863281 202.660156 116.261719 201.535156 116.601562 C 200.40625 116.945312 199.265625 117.230469 198.109375 117.460938 C 196.957031 117.691406 195.792969 117.863281 194.621094 117.976562 C 193.449219 118.09375 192.273438 118.152344 191.097656 118.152344 C 189.917969 118.152344 188.742188 118.09375 187.570312 117.976562 C 186.398438 117.863281 185.234375 117.691406 184.082031 117.460938 C 182.925781 117.230469 181.785156 116.945312 180.65625 116.601562 C 179.53125 116.261719 178.421875 115.863281 177.335938 115.414062 C 176.246094 114.960938 175.183594 114.460938 174.144531 113.90625 C 173.105469 113.347656 172.097656 112.746094 171.117188 112.089844 C 170.140625 111.4375 169.195312 110.734375 168.285156 109.988281 C 167.375 109.242188 166.5 108.453125 165.667969 107.617188 C 164.835938 106.785156 164.046875 105.914062 163.300781 105.003906 C 162.550781 104.09375 161.851562 103.148438 161.195312 102.167969 C 160.542969 101.191406 159.9375 100.179688 159.382812 99.144531 C 158.828125 98.105469 158.324219 97.039062 157.875 95.953125 C 157.421875 94.863281 157.027344 93.757812 156.683594 92.628906 C 156.34375 91.503906 156.058594 90.363281 155.828125 89.207031 C 155.597656 88.050781 155.425781 86.886719 155.308594 85.714844 C 155.195312 84.542969 155.136719 83.371094 155.136719 82.191406 C 155.136719 81.015625 155.195312 79.839844 155.308594 78.667969 C 155.425781 77.496094 155.597656 76.332031 155.828125 75.175781 C 156.058594 74.019531 156.34375 72.878906 156.683594 71.753906 C 157.027344 70.625 157.421875 69.519531 157.875 68.429688 C 158.324219 67.34375 158.828125 66.28125 159.382812 65.242188 C 159.9375 64.203125 160.542969 63.191406 161.195312 62.214844 C 161.851562 61.234375 162.550781 60.289062 163.300781 59.378906 C 164.046875 58.46875 164.835938 57.597656 165.667969 56.765625 C 166.5 55.933594 167.375 55.140625 168.285156 54.394531 C 169.195312 53.648438 170.140625 52.949219 171.117188 52.292969 C 172.097656 51.640625 173.105469 51.035156 174.144531 50.480469 C 175.183594 49.921875 176.246094 49.421875 177.335938 48.96875 C 178.421875 48.519531 179.53125 48.125 180.65625 47.78125 C 181.785156 47.4375 182.925781 47.152344 184.082031 46.921875 C 185.234375 46.695312 186.398438 46.519531 187.570312 46.40625 C 188.742188 46.289062 189.917969 46.234375 191.097656 46.234375 C 192.273438 46.234375 193.449219 46.289062 194.621094 46.40625 C 195.792969 46.519531 196.957031 46.695312 198.109375 46.921875 C 199.265625 47.152344 200.40625 47.4375 201.535156 47.78125 C 202.660156 48.125 203.769531 48.519531 204.855469 48.96875 C 205.945312 49.421875 207.007812 49.921875 208.046875 50.480469 C 209.085938 51.035156 210.09375 51.640625 211.074219 52.292969 C 212.054688 52.949219 212.996094 53.648438 213.90625 54.394531 C 214.816406 55.140625 215.691406 55.933594 216.523438 56.765625 C 217.355469 57.597656 218.144531 58.46875 218.890625 59.378906 C 219.640625 60.289062 220.339844 61.234375 220.996094 62.214844 C 221.648438 63.191406 222.253906 64.203125 222.808594 65.242188 C 223.363281 66.28125 223.867188 67.34375 224.316406 68.429688 C 224.769531 69.519531 225.164062 70.625 225.507812 71.753906 C 225.847656 72.878906 226.132812 74.019531 226.363281 75.175781 C 226.59375 76.332031 226.765625 77.496094 226.882812 78.667969 C 226.996094 79.839844 227.054688 81.015625 227.054688 82.191406 Z M 227.054688 82.191406 " fill-opacity="1" fill-rule="nonzero"/><path fill="#d0d8da" d="M 206.507812 97.601562 C 186.648438 97.601562 170.546875 81.503906 170.546875 61.644531 C 170.546875 58.222656 171.054688 54.925781 171.949219 51.792969 C 161.859375 58.160156 155.136719 69.378906 155.136719 82.191406 C 155.136719 102.050781 171.234375 118.152344 191.097656 118.152344 C 207.535156 118.152344 221.367188 107.105469 225.652344 92.042969 C 220.105469 95.546875 213.554688 97.601562 206.507812 97.601562 Z M 206.507812 97.601562 " fill-opacity="1" fill-rule="nonzero"/><path fill="#a2bdcd" d="M 185.957031 97.601562 C 184.644531 97.601562 183.328125 97.097656 182.328125 96.097656 L 172.054688 85.824219 C 170.042969 83.816406 170.042969 80.570312 172.054688 78.558594 C 174.0625 76.550781 177.308594 76.550781 179.316406 78.558594 L 185.957031 85.203125 L 202.875 68.285156 C 204.882812 66.277344 208.128906 66.277344 210.140625 68.285156 C 212.148438 70.292969 212.148438 73.542969 210.140625 75.550781 L 189.589844 96.097656 C 188.589844 97.097656 187.273438 97.601562 185.957031 97.601562 Z M 185.957031 97.601562 " fill-opacity="1" fill-rule="nonzero"/><path fill="#769fb6" d="M 174.195312 77.34375 C 173.414062 77.578125 172.667969 77.945312 172.054688 78.558594 C 170.042969 80.570312 170.042969 83.816406 172.054688 85.824219 L 182.328125 96.097656 C 183.328125 97.097656 184.644531 97.601562 185.957031 97.601562 C 187.273438 97.601562 188.589844 97.097656 189.589844 96.097656 L 191.429688 94.257812 C 183.914062 90.777344 177.816406 84.785156 174.195312 77.34375 Z M 174.195312 77.34375 " fill-opacity="1" fill-rule="nonzero"/></svg>