<svg xmlns="http://www.w3.org/2000/svg" xmlns:xlink="http://www.w3.org/1999/xlink" width="400" zoomAndPan="magnify" viewBox="0 0 300 299.999988" height="400" preserveAspectRatio="xMidYMid meet" version="1.0"><defs><clipPath id="9ec99690f0"><path d="M 10.5 60 L 289.5 60 L 289.5 241 L 10.5 241 Z M 10.5 60 " clip-rule="nonzero"/></clipPath><clipPath id="c6664adb16"><path d="M 10.5 208 L 289.5 208 L 289.5 241 L 10.5 241 Z M 10.5 208 " clip-rule="nonzero"/></clipPath></defs><path fill="#373f48" d="M 168.191406 282.425781 L 131.808594 282.425781 C 129.527344 282.425781 127.769531 280.492188 127.769531 278.382812 L 127.769531 236.378906 C 127.769531 234.09375 129.527344 232.335938 131.808594 232.335938 L 168.191406 232.335938 C 170.296875 232.335938 172.054688 234.09375 172.054688 236.378906 L 172.054688 278.382812 C 172.054688 280.492188 170.296875 282.425781 168.191406 282.425781 Z M 168.191406 282.425781 " fill-opacity="1" fill-rule="evenodd"/><g clip-path="url(#9ec99690f0)"><path fill="#373f48" d="M 281.195312 240.246094 L 18.804688 240.246094 C 14.234375 240.246094 10.542969 236.554688 10.542969 231.984375 L 10.542969 68.71875 C 10.542969 64.148438 14.234375 60.457031 18.804688 60.457031 C 106.328125 60.457031 193.671875 60.457031 281.195312 60.457031 C 285.765625 60.457031 289.457031 64.148438 289.457031 68.71875 L 289.457031 231.984375 C 289.457031 236.554688 285.765625 240.246094 281.195312 240.246094 Z M 281.195312 240.246094 " fill-opacity="1" fill-rule="evenodd"/></g><path fill="#6bc7e7" d="M 24.429688 74.339844 C 24.429688 75.394531 24.429688 76.449219 24.429688 77.503906 C 24.429688 83.832031 24.253906 89.980469 24.253906 96.308594 C 24.253906 114.410156 24.253906 132.511719 24.253906 150.789062 C 24.253906 170.121094 24.253906 189.457031 24.429688 208.789062 L 275.570312 208.789062 L 275.570312 74.339844 C 191.914062 74.339844 108.085938 74.339844 24.429688 74.339844 Z M 24.429688 74.339844 " fill-opacity="1" fill-rule="evenodd"/><g clip-path="url(#c6664adb16)"><path fill="#171d24" d="M 281.195312 240.246094 L 18.804688 240.246094 C 14.234375 240.246094 10.542969 236.554688 10.542969 231.984375 L 10.542969 208.789062 L 289.457031 208.789062 L 289.457031 231.984375 C 289.457031 236.554688 285.765625 240.246094 281.195312 240.246094 Z M 281.195312 240.246094 " fill-opacity="1" fill-rule="evenodd"/></g><path fill="#33cc66" d="M 269.597656 228.472656 L 258.347656 228.472656 C 256.0625 228.472656 254.304688 226.714844 254.304688 224.605469 C 254.304688 222.320312 256.0625 220.5625 258.347656 220.5625 L 269.597656 220.5625 C 271.703125 220.5625 273.636719 222.320312 273.636719 224.605469 C 273.636719 226.714844 271.703125 228.472656 269.597656 228.472656 Z M 269.597656 228.472656 " fill-opacity="1" fill-rule="evenodd"/><path fill="#decf95" d="M 193.144531 181.019531 L 200.527344 181.019531 C 199.648438 180.492188 198.945312 179.789062 198.066406 179.085938 Z M 193.144531 181.019531 " fill-opacity="1" fill-rule="evenodd"/><path fill="#ebf0f3" d="M 209.492188 189.105469 L 51.84375 189.105469 C 43.234375 189.105469 36.203125 181.898438 36.203125 173.285156 L 36.203125 15.816406 C 36.203125 7.03125 43.234375 0 51.84375 0 L 209.492188 0 C 218.101562 0 225.132812 7.03125 225.132812 15.816406 L 225.132812 111.246094 C 225.132812 113.53125 223.375 115.289062 221.265625 115.289062 L 220.035156 115.289062 L 218.453125 125.308594 C 218.277344 127.066406 217.046875 128.296875 215.464844 128.648438 C 210.367188 129.878906 205.625 132.511719 202.109375 136.378906 C 200.878906 137.609375 199.296875 137.960938 197.714844 137.433594 L 188.050781 133.742188 L 186.996094 135.675781 L 195.078125 142.003906 C 196.308594 143.058594 196.835938 144.816406 196.308594 146.398438 C 195.605469 148.859375 195.078125 151.492188 195.078125 154.128906 C 195.078125 156.765625 195.605469 159.226562 196.308594 161.863281 C 196.835938 163.445312 196.308594 165.027344 195.078125 166.082031 L 186.996094 172.582031 L 188.050781 174.339844 L 197.714844 170.648438 C 199.296875 170.121094 200.878906 170.472656 202.109375 171.703125 C 205.625 175.570312 210.367188 178.382812 215.464844 179.4375 C 217.046875 179.789062 218.277344 181.195312 218.453125 182.777344 L 218.628906 183.128906 C 218.804688 184.886719 217.925781 186.644531 216.519531 187.347656 C 214.234375 188.402344 211.949219 189.105469 209.492188 189.105469 Z M 209.492188 189.105469 " fill-opacity="1" fill-rule="evenodd"/><path stroke-linecap="butt" transform="matrix(0.175747, 0, 0, 0.175747, 0.000006, 0)" fill-opacity="1" fill="#d5d6db" fill-rule="evenodd" stroke-linejoin="miter" d="M 1101.992982 328.997592 L 385.008498 328.997592 C 372.005958 328.997592 362.004005 318.995639 362.004005 305.993099 C 362.004005 293.990755 372.005958 283.010833 385.008498 283.010833 L 1101.992982 283.010833 C 1114.995522 283.010833 1124.997475 293.990755 1124.997475 305.993099 C 1124.997475 318.995639 1114.995522 328.997592 1101.992982 328.997592 Z M 1101.992982 328.997592 " stroke="#d5d6db" stroke-width="3" stroke-opacity="1" stroke-miterlimit="4"/><path fill="#d5d6db" d="M 193.671875 84.886719 L 67.664062 84.886719 C 65.378906 84.886719 63.621094 83.128906 63.621094 81.019531 C 63.621094 78.734375 65.378906 76.976562 67.664062 76.976562 L 193.671875 76.976562 C 195.957031 76.976562 197.714844 78.734375 197.714844 81.019531 C 197.714844 83.128906 195.957031 84.886719 193.671875 84.886719 Z M 193.671875 84.886719 " fill-opacity="1" fill-rule="evenodd"/><path fill="#d5d6db" d="M 193.671875 112.125 L 67.664062 112.125 C 65.378906 112.125 63.621094 110.367188 63.621094 108.085938 C 63.621094 105.800781 65.378906 104.042969 67.664062 104.042969 L 193.671875 104.042969 C 195.957031 104.042969 197.714844 105.800781 197.714844 108.085938 C 197.714844 110.367188 195.957031 112.125 193.671875 112.125 Z M 193.671875 112.125 " fill-opacity="1" fill-rule="evenodd"/><path stroke-linecap="butt" transform="matrix(0.175747, 0, 0, 0.175747, 0.000006, 0)" fill-opacity="1" fill="#d5d6db" fill-rule="evenodd" stroke-linejoin="miter" d="M 904.99895 791.999136 L 385.008498 791.999136 C 372.005958 791.999136 362.004005 781.997182 362.004005 769.994838 C 362.004005 756.992298 372.005958 746.990345 385.008498 746.990345 L 904.99895 746.990345 C 918.00149 746.990345 928.003443 756.992298 928.003443 769.994838 C 928.003443 781.997182 918.00149 791.999136 904.99895 791.999136 Z M 904.99895 791.999136 " stroke="#d5d6db" stroke-width="3" stroke-opacity="1" stroke-miterlimit="4"/><path fill="#d5d6db" d="M 137.960938 166.433594 L 67.664062 166.433594 C 65.378906 166.433594 63.621094 164.675781 63.621094 162.390625 C 63.621094 160.105469 65.378906 158.347656 67.664062 158.347656 L 137.960938 158.347656 C 140.246094 158.347656 142.003906 160.105469 142.003906 162.390625 C 142.003906 164.675781 140.246094 166.433594 137.960938 166.433594 Z M 137.960938 166.433594 " fill-opacity="1" fill-rule="evenodd"/><path fill="#171d24" d="M 211.773438 300 L 88.050781 300 C 85.941406 300 84.183594 298.066406 84.183594 295.957031 L 84.183594 278.382812 C 84.183594 276.097656 85.941406 274.339844 88.050781 274.339844 L 211.773438 274.339844 C 214.058594 274.339844 215.816406 276.097656 215.816406 278.382812 L 215.816406 295.957031 C 215.816406 298.066406 214.058594 300 211.773438 300 Z M 211.773438 300 " fill-opacity="1" fill-rule="evenodd"/><path fill="#ef5350" d="M 241.652344 228.472656 L 230.226562 228.472656 C 228.121094 228.472656 226.363281 226.714844 226.363281 224.605469 C 226.363281 222.320312 228.121094 220.5625 230.226562 220.5625 L 241.652344 220.5625 C 243.761719 220.5625 245.695312 222.320312 245.695312 224.605469 C 245.695312 226.714844 243.761719 228.472656 241.652344 228.472656 Z M 241.652344 228.472656 " fill-opacity="1" fill-rule="evenodd"/><path fill="#ffd54f" d="M 213.707031 228.472656 L 202.285156 228.472656 C 200.175781 228.472656 198.242188 226.714844 198.242188 224.605469 C 198.242188 222.320312 200.175781 220.5625 202.285156 220.5625 L 213.707031 220.5625 C 215.816406 220.5625 217.574219 222.320312 217.574219 224.605469 C 217.574219 226.714844 215.816406 228.472656 213.707031 228.472656 Z M 213.707031 228.472656 " fill-opacity="1" fill-rule="evenodd"/><path fill="#3b566a" d="M 223.375 200.878906 L 218.980469 200.878906 C 215.640625 200.878906 212.828125 198.242188 212.300781 194.726562 L 211.070312 186.46875 C 206.152344 185.0625 201.933594 182.425781 198.066406 179.085938 L 190.507812 182.074219 C 187.171875 183.304688 183.304688 182.25 181.722656 179.261719 L 179.613281 175.570312 C 177.855469 172.582031 178.734375 168.894531 181.546875 166.609375 L 188.050781 161.511719 C 187.523438 159.050781 187.171875 156.589844 187.171875 154.128906 C 187.171875 151.492188 187.523438 149.035156 188.050781 146.574219 L 181.546875 141.476562 C 178.734375 139.191406 177.855469 135.5 179.613281 132.511719 L 181.722656 128.824219 C 183.304688 126.011719 187.171875 124.78125 190.507812 126.011719 L 198.066406 129 C 201.933594 125.660156 206.152344 123.023438 211.070312 121.617188 L 212.300781 113.53125 C 212.828125 109.84375 215.640625 107.207031 219.15625 107.207031 L 223.375 107.207031 C 226.714844 107.207031 229.527344 109.84375 230.050781 113.53125 L 231.28125 121.617188 C 236.203125 123.023438 240.597656 125.660156 244.289062 129 L 251.84375 126.011719 C 255.183594 124.78125 259.050781 126.011719 260.632812 128.824219 L 262.742188 132.511719 C 264.5 135.5 263.621094 139.191406 260.808594 141.476562 L 254.304688 146.574219 C 255.007812 149.035156 255.183594 151.492188 255.183594 154.128906 C 255.183594 156.589844 255.007812 159.050781 254.304688 161.511719 L 260.808594 166.609375 C 263.621094 168.894531 264.5 172.582031 262.742188 175.570312 L 260.632812 179.261719 C 259.050781 182.25 255.183594 183.304688 251.84375 182.074219 L 244.289062 179.085938 C 240.597656 182.425781 236.203125 185.0625 231.28125 186.46875 L 230.050781 194.550781 C 229.527344 198.242188 226.714844 200.878906 223.375 200.878906 Z M 223.375 200.878906 " fill-opacity="1" fill-rule="evenodd"/><path fill="#2b3e4d" d="M 221.265625 177.152344 C 208.4375 177.152344 198.066406 166.785156 198.066406 154.128906 C 198.066406 141.300781 208.4375 131.105469 221.265625 131.105469 C 233.917969 131.105469 244.289062 141.300781 244.289062 154.128906 C 244.289062 166.785156 233.917969 177.152344 221.265625 177.152344 Z M 221.265625 177.152344 " fill-opacity="1" fill-rule="evenodd"/><path fill="#3b566a" d="M 221.265625 172.230469 C 211.070312 172.230469 202.988281 164.148438 202.988281 154.128906 C 202.988281 144.113281 211.070312 135.851562 221.265625 135.851562 C 231.28125 135.851562 239.367188 144.113281 239.367188 154.128906 C 239.367188 164.148438 231.28125 172.230469 221.265625 172.230469 Z M 221.265625 172.230469 " fill-opacity="1" fill-rule="evenodd"/><path fill="#ffffff" d="M 221.265625 166.960938 C 214.058594 166.960938 208.261719 161.160156 208.261719 154.128906 C 208.261719 146.925781 214.058594 141.125 221.265625 141.125 C 228.296875 141.125 234.09375 146.925781 234.09375 154.128906 C 234.09375 161.160156 228.296875 166.960938 221.265625 166.960938 Z M 221.265625 166.960938 " fill-opacity="1" fill-rule="evenodd"/><path fill="#3a556a" d="M 51.84375 0 C 43.234375 0 36.203125 7.03125 36.203125 15.816406 L 36.203125 30.578125 L 225.132812 30.578125 L 225.132812 15.816406 C 225.132812 7.03125 218.101562 0 209.492188 0 Z M 51.84375 0 " fill-opacity="1" fill-rule="evenodd"/><path fill="#ffd54f" d="M 81.019531 19.332031 L 68.71875 19.332031 C 66.609375 19.332031 64.675781 17.574219 64.675781 15.289062 C 64.675781 13.179688 66.609375 11.246094 68.71875 11.246094 L 81.019531 11.246094 C 83.128906 11.246094 84.886719 13.179688 84.886719 15.289062 C 84.886719 17.574219 83.128906 19.332031 81.019531 19.332031 Z M 81.019531 19.332031 " fill-opacity="1" fill-rule="evenodd"/><path fill="#ef5350" d="M 105.625 19.332031 L 93.320312 19.332031 C 91.210938 19.332031 89.457031 17.574219 89.457031 15.289062 C 89.457031 13.179688 91.210938 11.246094 93.320312 11.246094 L 105.625 11.246094 C 107.734375 11.246094 109.667969 13.179688 109.667969 15.289062 C 109.667969 17.574219 107.734375 19.332031 105.625 19.332031 Z M 105.625 19.332031 " fill-opacity="1" fill-rule="evenodd"/><path fill="#33cc66" d="M 130.226562 19.332031 L 118.101562 19.332031 C 115.816406 19.332031 114.058594 17.574219 114.058594 15.289062 C 114.058594 13.179688 115.816406 11.246094 118.101562 11.246094 L 130.226562 11.246094 C 132.511719 11.246094 134.269531 13.179688 134.269531 15.289062 C 134.269531 17.574219 132.511719 19.332031 130.226562 19.332031 Z M 130.226562 19.332031 " fill-opacity="1" fill-rule="evenodd"/><path fill="#708392" d="M 225.132812 30.578125 L 148.683594 30.578125 C 148.683594 22.671875 155.183594 16.167969 163.09375 16.167969 L 225.132812 16.167969 Z M 225.132812 30.578125 " fill-opacity="1" fill-rule="evenodd"/></svg>