<svg xmlns="http://www.w3.org/2000/svg" xmlns:xlink="http://www.w3.org/1999/xlink"
    zoomAndPan="magnify" viewBox="0 0 750 256.499992" preserveAspectRatio="xMidYMid meet"
    version="1.0">
    <defs>
        <clipPath id="534e45041e">
            <path d="M 0.730469 0 L 749.269531 0 L 749.269531 256 L 0.730469 256 Z M 0.730469 0 "
                clip-rule="nonzero" />
        </clipPath>
        <clipPath id="081216b7db">
            <path d="M 0.730469 0 L 486 0 L 486 256 L 0.730469 256 Z M 0.730469 0 "
                clip-rule="nonzero" />
        </clipPath>
        <clipPath id="c73e058e91">
            <path d="M 690 62 L 749.269531 62 L 749.269531 199 L 690 199 Z M 690 62 "
                clip-rule="nonzero" />
        </clipPath>
    </defs>
    <g clip-path="url(#534e45041e)">
        <path fill="#ffffff"
            d="M 0.730469 0 L 749.269531 0 L 749.269531 263.488281 L 0.730469 263.488281 Z M 0.730469 0 "
            fill-opacity="0" fill-rule="nonzero" />
        <path fill="#ffffff"
            d="M 0.730469 0 L 749.269531 0 L 749.269531 256 L 0.730469 256 Z M 0.730469 0 "
            fill-opacity="0" fill-rule="nonzero" />
        <path fill="#ffffff"
            d="M 0.730469 0 L 749.269531 0 L 749.269531 256 L 0.730469 256 Z M 0.730469 0 "
            fill-opacity="0" fill-rule="nonzero" />
        <path fill="#ffffff"
            d="M 758.898438 34.988281 L 758.898438 225.46875 C 758.898438 244.789062 743.246094 260.453125 723.9375 260.453125 L 34.433594 260.453125 C 15.125 260.453125 -0.527344 244.789062 -0.527344 225.46875 L -0.527344 34.988281 C -0.527344 15.664062 15.125 0 34.433594 0 L 723.9375 0 C 743.246094 0 758.898438 15.664062 758.898438 34.988281 Z M 758.898438 34.988281 "
            fill-opacity="0" fill-rule="nonzero" />
        <path fill="#0e6ae1"
            d="M 758.875 226.34375 C 758.828125 228.265625 758.628906 230.152344 758.285156 231.984375 C 752.203125 232.851562 745.96875 233.121094 739.632812 232.585938 C 726.21875 231.457031 713.472656 226.839844 701.144531 222.378906 C 693.167969 219.488281 684.917969 216.5 676.652344 214.535156 C 643.816406 206.722656 606.03125 214.664062 575.578125 235.78125 C 565.535156 242.738281 556.265625 251.027344 547.851562 260.453125 L 540.578125 260.453125 C 550.101562 249.175781 560.761719 239.347656 572.441406 231.253906 C 604.160156 209.261719 643.589844 201.007812 677.925781 209.175781 C 686.496094 211.214844 694.894531 214.257812 703.015625 217.199219 C 715.558594 221.742188 727.40625 226.03125 740.097656 227.097656 C 746.21875 227.617188 752.460938 227.355469 758.875 226.34375 Z M 701.4375 238.617188 C 678.136719 240.328125 656.5625 249.03125 636.832031 260.453125 L 648.316406 260.453125 C 665.011719 251.796875 682.894531 245.5 701.839844 244.109375 C 717.914062 242.933594 733.773438 245.34375 749.105469 249.738281 C 750.488281 248.304688 751.753906 246.753906 752.875 245.101562 C 736.308594 240.136719 719.054688 237.328125 701.4375 238.617188 Z M 18.644531 53.714844 C 13.597656 57.355469 8.332031 60.929688 3.242188 64.382812 C 1.988281 65.234375 0.730469 66.089844 -0.527344 66.945312 L -0.527344 73.621094 C 1.761719 72.046875 4.054688 70.488281 6.332031 68.941406 C 11.453125 65.464844 16.753906 61.867188 21.863281 58.179688 C 44.816406 41.613281 65.582031 21.960938 83.507812 0 L 76.332031 0 C 59.378906 20.179688 39.984375 38.3125 18.644531 53.714844 Z M 18.644531 53.714844 "
            fill-opacity="1" fill-rule="nonzero" />
    </g>
    <g clip-path="url(#081216b7db)">
        <path fill="#0e6ae1"
            d="M 153.871094 0 L 162.921875 0 C 140.453125 17.679688 115.679688 32.441406 89.421875 43.648438 C 83.625 46.121094 77.664062 48.460938 71.902344 50.726562 C 57.570312 56.355469 42.75 62.179688 29.609375 70.390625 C 18.601562 77.265625 8.554688 85.882812 -0.527344 96.179688 L -0.527344 88.039062 C 7.804688 79.308594 16.875 71.855469 26.695312 65.71875 C 40.269531 57.238281 55.328125 51.324219 69.890625 45.601562 C 75.617188 43.351562 81.539062 41.023438 87.261719 38.582031 C 110.898438 28.496094 133.300781 15.464844 153.871094 0 Z M 417.085938 229.191406 C 385.152344 228.886719 372.914062 236.230469 362.128906 242.71875 C 351.171875 249.3125 342.515625 254.515625 314.023438 248.6875 C 273.175781 240.324219 246.425781 252.289062 233.816406 260.453125 L 245.414062 260.453125 C 259.246094 253.886719 281.878906 247.730469 312.921875 254.082031 C 343.515625 260.347656 353.457031 254.363281 364.964844 247.4375 C 375.125 241.324219 386.644531 234.367188 417.03125 234.699219 C 450.925781 235.039062 469.304688 248.285156 479.070312 260.453125 L 485.660156 260.453125 C 475.683594 246.40625 455.695312 229.578125 417.085938 229.191406 Z M 417.085938 229.191406 "
            fill-opacity="1" fill-rule="nonzero" />
    </g>
    <g clip-path="url(#c73e058e91)">
        <path fill="#ffffff"
            d="M 826.878906 130.226562 C 826.878906 167.796875 796.441406 198.257812 758.898438 198.257812 C 721.355469 198.257812 690.917969 167.796875 690.917969 130.226562 C 690.917969 92.65625 721.355469 62.199219 758.898438 62.199219 C 796.441406 62.199219 826.878906 92.65625 826.878906 130.226562 Z M 826.878906 130.226562 "
            fill-opacity="1" fill-rule="nonzero" />
    </g>
</svg>