<svg xmlns="http://www.w3.org/2000/svg" xmlns:xlink="http://www.w3.org/1999/xlink" width="400" zoomAndPan="magnify" viewBox="0 0 300 299.999988" height="400" preserveAspectRatio="xMidYMid meet" version="1.0"><path fill="#ee3e54" d="M 8.554688 61.878906 C 8.050781 61.878906 7.554688 61.925781 7.0625 62.023438 C 6.566406 62.121094 6.089844 62.269531 5.625 62.460938 C 5.160156 62.652344 4.714844 62.890625 4.296875 63.167969 C 3.878906 63.449219 3.492188 63.765625 3.136719 64.121094 C 2.78125 64.476562 2.464844 64.863281 2.183594 65.28125 C 1.90625 65.703125 1.667969 66.144531 1.476562 66.609375 C 1.285156 67.074219 1.136719 67.550781 1.039062 68.046875 C 0.941406 68.539062 0.894531 69.035156 0.894531 69.539062 C 0.894531 70.042969 0.941406 70.542969 1.039062 71.035156 C 1.136719 71.527344 1.285156 72.007812 1.476562 72.472656 C 1.667969 72.9375 1.90625 73.378906 2.183594 73.796875 C 2.464844 74.214844 2.78125 74.601562 3.136719 74.957031 C 3.492188 75.3125 3.878906 75.632812 4.296875 75.910156 C 4.714844 76.191406 5.160156 76.425781 5.625 76.621094 C 6.089844 76.8125 6.566406 76.957031 7.0625 77.054688 C 7.554688 77.152344 8.050781 77.203125 8.554688 77.203125 C 9.058594 77.203125 9.558594 77.152344 10.050781 77.054688 C 10.542969 76.957031 11.023438 76.8125 11.488281 76.621094 C 11.953125 76.425781 12.394531 76.191406 12.8125 75.910156 C 13.230469 75.632812 13.617188 75.3125 13.972656 74.957031 C 14.328125 74.601562 14.648438 74.214844 14.925781 73.796875 C 15.207031 73.378906 15.441406 72.9375 15.636719 72.472656 C 15.828125 72.007812 15.972656 71.527344 16.070312 71.035156 C 16.167969 70.542969 16.21875 70.042969 16.21875 69.539062 C 16.21875 69.035156 16.167969 68.539062 16.070312 68.046875 C 15.972656 67.550781 15.828125 67.074219 15.636719 66.609375 C 15.441406 66.144531 15.207031 65.703125 14.925781 65.28125 C 14.648438 64.863281 14.328125 64.476562 13.972656 64.121094 C 13.617188 63.765625 13.230469 63.449219 12.8125 63.167969 C 12.394531 62.890625 11.953125 62.652344 11.488281 62.460938 C 11.023438 62.269531 10.542969 62.121094 10.050781 62.023438 C 9.558594 61.925781 9.058594 61.878906 8.554688 61.878906 Z M 8.554688 61.878906 " fill-opacity="1" fill-rule="nonzero"/><path fill="#f1bc19" d="M 253.765625 4.40625 C 253.257812 4.40625 252.769531 4.503906 252.300781 4.699219 C 251.832031 4.890625 251.417969 5.167969 251.058594 5.527344 C 250.699219 5.886719 250.421875 6.300781 250.226562 6.769531 C 250.03125 7.242188 249.933594 7.730469 249.933594 8.238281 C 249.933594 8.746094 250.03125 9.234375 250.226562 9.703125 C 250.421875 10.171875 250.699219 10.585938 251.058594 10.945312 C 251.417969 11.304688 251.832031 11.582031 252.300781 11.777344 C 252.769531 11.972656 253.257812 12.070312 253.765625 12.070312 C 254.273438 12.070312 254.761719 11.972656 255.234375 11.777344 C 255.703125 11.582031 256.117188 11.304688 256.476562 10.945312 C 256.835938 10.585938 257.113281 10.171875 257.304688 9.703125 C 257.5 9.234375 257.597656 8.746094 257.597656 8.238281 C 257.597656 7.730469 257.5 7.242188 257.304688 6.769531 C 257.113281 6.300781 256.835938 5.886719 256.476562 5.527344 C 256.117188 5.167969 255.703125 4.890625 255.234375 4.699219 C 254.761719 4.503906 254.273438 4.40625 253.765625 4.40625 Z M 253.765625 4.40625 " fill-opacity="1" fill-rule="nonzero"/><path fill="#fce0a2" d="M 150.316406 8.238281 C 147.996094 8.238281 145.679688 8.292969 143.363281 8.410156 C 141.042969 8.523438 138.730469 8.691406 136.421875 8.921875 C 134.113281 9.148438 131.8125 9.429688 129.515625 9.773438 C 127.222656 10.113281 124.9375 10.507812 122.660156 10.960938 C 120.386719 11.414062 118.121094 11.921875 115.871094 12.484375 C 113.621094 13.050781 111.386719 13.667969 109.167969 14.339844 C 106.945312 15.015625 104.742188 15.742188 102.558594 16.523438 C 100.375 17.304688 98.210938 18.140625 96.066406 19.027344 C 93.925781 19.917969 91.804688 20.855469 89.707031 21.847656 C 87.609375 22.839844 85.539062 23.882812 83.492188 24.976562 C 81.445312 26.070312 79.425781 27.214844 77.4375 28.40625 C 75.449219 29.597656 73.488281 30.839844 71.558594 32.128906 C 69.628906 33.417969 67.734375 34.753906 65.871094 36.136719 C 64.007812 37.515625 62.179688 38.945312 60.386719 40.417969 C 58.589844 41.886719 56.835938 43.402344 55.117188 44.960938 C 53.398438 46.519531 51.71875 48.117188 50.078125 49.757812 C 48.4375 51.398438 46.835938 53.078125 45.277344 54.796875 C 43.722656 56.515625 42.207031 58.273438 40.734375 60.066406 C 39.261719 61.859375 37.835938 63.6875 36.453125 65.550781 C 35.070312 67.414062 33.734375 69.3125 32.445312 71.242188 C 31.15625 73.171875 29.917969 75.128906 28.722656 77.121094 C 27.53125 79.109375 26.386719 81.128906 25.292969 83.171875 C 24.199219 85.21875 23.160156 87.292969 22.167969 89.390625 C 21.175781 91.484375 20.234375 93.605469 19.347656 95.75 C 18.457031 97.894531 17.625 100.058594 16.84375 102.242188 C 16.0625 104.425781 15.332031 106.628906 14.660156 108.847656 C 13.988281 111.070312 13.367188 113.304688 12.804688 115.554688 C 12.242188 117.804688 11.730469 120.066406 11.28125 122.34375 C 10.828125 124.617188 10.429688 126.902344 10.089844 129.199219 C 9.75 131.492188 9.464844 133.796875 9.238281 136.105469 C 9.011719 138.414062 8.839844 140.726562 8.726562 143.042969 C 8.613281 145.359375 8.554688 147.679688 8.554688 150 C 8.554688 152.320312 8.613281 154.640625 8.726562 156.957031 C 8.839844 159.273438 9.011719 161.585938 9.238281 163.894531 C 9.464844 166.203125 9.75 168.507812 10.089844 170.800781 C 10.429688 173.097656 10.828125 175.382812 11.28125 177.65625 C 11.730469 179.933594 12.242188 182.195312 12.804688 184.445312 C 13.367188 186.695312 13.988281 188.929688 14.660156 191.152344 C 15.332031 193.371094 16.0625 195.574219 16.84375 197.757812 C 17.625 199.941406 18.457031 202.105469 19.347656 204.25 C 20.234375 206.394531 21.175781 208.515625 22.167969 210.609375 C 23.160156 212.707031 24.199219 214.78125 25.292969 216.828125 C 26.386719 218.871094 27.53125 220.890625 28.722656 222.878906 C 29.917969 224.871094 31.15625 226.828125 32.445312 228.757812 C 33.734375 230.6875 35.070312 232.585938 36.453125 234.449219 C 37.835938 236.3125 39.261719 238.140625 40.734375 239.933594 C 42.207031 241.726562 43.722656 243.484375 45.277344 245.203125 C 46.835938 246.921875 48.4375 248.601562 50.078125 250.242188 C 51.71875 251.882812 53.398438 253.480469 55.117188 255.039062 C 56.835938 256.597656 58.589844 258.113281 60.386719 259.582031 C 62.179688 261.054688 64.007812 262.484375 65.871094 263.863281 C 67.734375 265.246094 69.628906 266.582031 71.558594 267.871094 C 73.488281 269.160156 75.449219 270.402344 77.4375 271.59375 C 79.425781 272.785156 81.445312 273.929688 83.492188 275.023438 C 85.539062 276.117188 87.609375 277.160156 89.707031 278.152344 C 91.804688 279.144531 93.925781 280.082031 96.066406 280.972656 C 98.210938 281.859375 100.375 282.695312 102.558594 283.476562 C 104.742188 284.257812 106.945312 284.984375 109.167969 285.65625 C 111.386719 286.332031 113.621094 286.949219 115.871094 287.515625 C 118.121094 288.078125 120.386719 288.585938 122.660156 289.039062 C 124.9375 289.492188 127.222656 289.886719 129.515625 290.226562 C 131.8125 290.570312 134.113281 290.851562 136.421875 291.078125 C 138.730469 291.308594 141.042969 291.476562 143.363281 291.589844 C 145.679688 291.707031 147.996094 291.761719 150.316406 291.761719 C 152.636719 291.761719 154.957031 291.707031 157.273438 291.589844 C 159.589844 291.476562 161.902344 291.308594 164.214844 291.078125 C 166.523438 290.851562 168.824219 290.570312 171.117188 290.226562 C 173.414062 289.886719 175.699219 289.492188 177.972656 289.039062 C 180.25 288.585938 182.511719 288.078125 184.761719 287.515625 C 187.015625 286.949219 189.25 286.332031 191.46875 285.65625 C 193.691406 284.984375 195.890625 284.257812 198.078125 283.476562 C 200.261719 282.695312 202.425781 281.859375 204.566406 280.972656 C 206.710938 280.082031 208.832031 279.144531 210.929688 278.152344 C 213.027344 277.160156 215.097656 276.117188 217.144531 275.023438 C 219.191406 273.929688 221.207031 272.785156 223.199219 271.59375 C 225.1875 270.402344 227.148438 269.160156 229.078125 267.871094 C 231.007812 266.582031 232.902344 265.246094 234.765625 263.863281 C 236.628906 262.484375 238.457031 261.054688 240.25 259.582031 C 242.042969 258.113281 243.800781 256.597656 245.519531 255.039062 C 247.238281 253.480469 248.917969 251.882812 250.558594 250.242188 C 252.199219 248.601562 253.800781 246.921875 255.355469 245.203125 C 256.914062 243.484375 258.429688 241.726562 259.902344 239.933594 C 261.375 238.140625 262.800781 236.3125 264.183594 234.449219 C 265.566406 232.585938 266.898438 230.6875 268.1875 228.757812 C 269.476562 226.828125 270.71875 224.871094 271.910156 222.878906 C 273.105469 220.890625 274.246094 218.871094 275.339844 216.828125 C 276.433594 214.78125 277.476562 212.707031 278.46875 210.609375 C 279.460938 208.515625 280.402344 206.394531 281.289062 204.25 C 282.175781 202.105469 283.011719 199.941406 283.792969 197.757812 C 284.574219 195.574219 285.300781 193.371094 285.976562 191.152344 C 286.648438 188.929688 287.269531 186.695312 287.832031 184.445312 C 288.394531 182.195312 288.902344 179.933594 289.355469 177.65625 C 289.808594 175.382812 290.207031 173.097656 290.546875 170.800781 C 290.886719 168.507812 291.171875 166.203125 291.398438 163.894531 C 291.625 161.585938 291.796875 159.273438 291.910156 156.957031 C 292.023438 154.640625 292.082031 152.320312 292.082031 150 C 292.082031 147.679688 292.023438 145.359375 291.910156 143.042969 C 291.796875 140.726562 291.625 138.414062 291.398438 136.105469 C 291.171875 133.796875 290.886719 131.492188 290.546875 129.199219 C 290.207031 126.902344 289.808594 124.617188 289.355469 122.34375 C 288.902344 120.066406 288.394531 117.804688 287.832031 115.554688 C 287.269531 113.304688 286.648438 111.070312 285.976562 108.847656 C 285.300781 106.628906 284.574219 104.425781 283.792969 102.242188 C 283.011719 100.058594 282.175781 97.894531 281.289062 95.75 C 280.402344 93.605469 279.460938 91.484375 278.46875 89.390625 C 277.476562 87.292969 276.433594 85.21875 275.339844 83.171875 C 274.246094 81.128906 273.105469 79.109375 271.910156 77.121094 C 270.71875 75.128906 269.476562 73.171875 268.1875 71.242188 C 266.898438 69.3125 265.566406 67.414062 264.183594 65.550781 C 262.800781 63.6875 261.375 61.859375 259.902344 60.066406 C 258.429688 58.273438 256.914062 56.515625 255.355469 54.796875 C 253.800781 53.078125 252.199219 51.398438 250.558594 49.757812 C 248.917969 48.117188 247.238281 46.519531 245.519531 44.960938 C 243.800781 43.402344 242.042969 41.886719 240.25 40.417969 C 238.457031 38.945312 236.628906 37.515625 234.765625 36.136719 C 232.902344 34.753906 231.007812 33.417969 229.078125 32.128906 C 227.148438 30.839844 225.1875 29.597656 223.199219 28.40625 C 221.207031 27.214844 219.191406 26.070312 217.144531 24.976562 C 215.097656 23.882812 213.027344 22.839844 210.929688 21.847656 C 208.832031 20.855469 206.710938 19.917969 204.566406 19.027344 C 202.425781 18.140625 200.261719 17.304688 198.078125 16.523438 C 195.890625 15.742188 193.691406 15.015625 191.46875 14.339844 C 189.25 13.667969 187.015625 13.050781 184.761719 12.484375 C 182.511719 11.921875 180.25 11.414062 177.972656 10.960938 C 175.699219 10.507812 173.414062 10.113281 171.117188 9.773438 C 168.824219 9.429688 166.523438 9.148438 164.214844 8.921875 C 161.902344 8.691406 159.589844 8.523438 157.273438 8.410156 C 154.957031 8.292969 152.636719 8.238281 150.316406 8.238281 Z M 150.316406 8.238281 " fill-opacity="1" fill-rule="nonzero"/><path fill="#f1bc19" d="M 276.753906 0.574219 C 275.75 0.574219 274.75 0.671875 273.765625 0.871094 C 272.777344 1.066406 271.820312 1.355469 270.890625 1.742188 C 269.960938 2.125 269.078125 2.597656 268.242188 3.15625 C 267.402344 3.714844 266.628906 4.351562 265.917969 5.0625 C 265.207031 5.773438 264.570312 6.550781 264.011719 7.386719 C 263.453125 8.222656 262.980469 9.105469 262.59375 10.035156 C 262.210938 10.964844 261.917969 11.921875 261.722656 12.910156 C 261.527344 13.898438 261.429688 14.894531 261.429688 15.898438 C 261.429688 16.90625 261.527344 17.902344 261.722656 18.890625 C 261.917969 19.878906 262.210938 20.835938 262.59375 21.765625 C 262.980469 22.695312 263.453125 23.578125 264.011719 24.414062 C 264.570312 25.25 265.207031 26.027344 265.917969 26.738281 C 266.628906 27.449219 267.402344 28.085938 268.242188 28.644531 C 269.078125 29.203125 269.960938 29.675781 270.890625 30.058594 C 271.820312 30.445312 272.777344 30.734375 273.765625 30.929688 C 274.75 31.128906 275.75 31.226562 276.753906 31.226562 C 277.761719 31.226562 278.757812 31.128906 279.746094 30.929688 C 280.730469 30.734375 281.691406 30.445312 282.621094 30.058594 C 283.550781 29.675781 284.433594 29.203125 285.269531 28.644531 C 286.105469 28.085938 286.878906 27.449219 287.589844 26.738281 C 288.304688 26.027344 288.9375 25.25 289.496094 24.414062 C 290.054688 23.578125 290.527344 22.695312 290.914062 21.765625 C 291.300781 20.835938 291.589844 19.878906 291.785156 18.890625 C 291.980469 17.902344 292.082031 16.90625 292.082031 15.898438 C 292.082031 14.894531 291.980469 13.898438 291.785156 12.910156 C 291.589844 11.921875 291.300781 10.964844 290.914062 10.035156 C 290.527344 9.105469 290.054688 8.222656 289.496094 7.386719 C 288.9375 6.550781 288.304688 5.773438 287.589844 5.0625 C 286.878906 4.351562 286.105469 3.714844 285.269531 3.15625 C 284.433594 2.597656 283.550781 2.125 282.621094 1.742188 C 281.691406 1.355469 280.730469 1.066406 279.746094 0.871094 C 278.757812 0.671875 277.761719 0.574219 276.753906 0.574219 Z M 276.753906 0.574219 " fill-opacity="1" fill-rule="nonzero"/><path fill="#ee3e54" d="M 292.082031 42.71875 C 291.578125 42.71875 291.078125 42.769531 290.585938 42.867188 C 290.09375 42.964844 289.613281 43.109375 289.148438 43.304688 C 288.683594 43.496094 288.242188 43.730469 287.824219 44.011719 C 287.40625 44.292969 287.019531 44.609375 286.660156 44.964844 C 286.304688 45.320312 285.988281 45.707031 285.710938 46.125 C 285.429688 46.542969 285.195312 46.984375 285 47.449219 C 284.808594 47.914062 284.664062 48.394531 284.566406 48.886719 C 284.464844 49.382812 284.417969 49.878906 284.417969 50.382812 C 284.417969 50.886719 284.464844 51.382812 284.566406 51.878906 C 284.664062 52.371094 284.808594 52.851562 285 53.316406 C 285.195312 53.78125 285.429688 54.222656 285.710938 54.640625 C 285.988281 55.058594 286.304688 55.445312 286.660156 55.800781 C 287.019531 56.15625 287.40625 56.476562 287.824219 56.753906 C 288.242188 57.035156 288.683594 57.269531 289.148438 57.460938 C 289.613281 57.65625 290.09375 57.800781 290.585938 57.898438 C 291.078125 57.996094 291.578125 58.046875 292.082031 58.046875 C 292.582031 58.046875 293.082031 57.996094 293.574219 57.898438 C 294.070312 57.800781 294.546875 57.65625 295.011719 57.460938 C 295.476562 57.269531 295.917969 57.035156 296.335938 56.753906 C 296.757812 56.476562 297.144531 56.15625 297.5 55.800781 C 297.855469 55.445312 298.171875 55.058594 298.453125 54.640625 C 298.730469 54.222656 298.96875 53.78125 299.160156 53.316406 C 299.351562 52.851562 299.496094 52.371094 299.597656 51.878906 C 299.695312 51.382812 299.742188 50.886719 299.742188 50.382812 C 299.742188 49.878906 299.695312 49.382812 299.597656 48.886719 C 299.496094 48.394531 299.351562 47.914062 299.160156 47.449219 C 298.96875 46.984375 298.730469 46.542969 298.453125 46.125 C 298.171875 45.707031 297.855469 45.320312 297.5 44.964844 C 297.144531 44.609375 296.757812 44.292969 296.335938 44.011719 C 295.917969 43.730469 295.476562 43.496094 295.011719 43.304688 C 294.546875 43.109375 294.070312 42.964844 293.574219 42.867188 C 293.082031 42.769531 292.582031 42.71875 292.082031 42.71875 Z M 292.082031 42.71875 " fill-opacity="1" fill-rule="nonzero"/><path fill="#fbcd59" d="M 269.09375 241.953125 C 268.589844 241.953125 268.089844 242.003906 267.597656 242.101562 C 267.101562 242.199219 266.625 242.34375 266.160156 242.539062 C 265.695312 242.730469 265.253906 242.964844 264.835938 243.246094 C 264.417969 243.523438 264.027344 243.84375 263.671875 244.199219 C 263.316406 244.554688 263 244.941406 262.71875 245.359375 C 262.441406 245.777344 262.203125 246.21875 262.011719 246.683594 C 261.820312 247.148438 261.675781 247.628906 261.578125 248.121094 C 261.476562 248.617188 261.429688 249.113281 261.429688 249.617188 C 261.429688 250.121094 261.476562 250.617188 261.578125 251.113281 C 261.675781 251.605469 261.820312 252.085938 262.011719 252.550781 C 262.203125 253.015625 262.441406 253.457031 262.71875 253.875 C 263 254.292969 263.316406 254.679688 263.671875 255.035156 C 264.027344 255.390625 264.417969 255.707031 264.835938 255.988281 C 265.253906 256.269531 265.695312 256.503906 266.160156 256.695312 C 266.625 256.890625 267.101562 257.035156 267.597656 257.132812 C 268.089844 257.230469 268.589844 257.28125 269.09375 257.28125 C 269.59375 257.28125 270.09375 257.230469 270.585938 257.132812 C 271.082031 257.035156 271.558594 256.890625 272.023438 256.695312 C 272.488281 256.503906 272.929688 256.269531 273.347656 255.988281 C 273.765625 255.707031 274.15625 255.390625 274.511719 255.035156 C 274.867188 254.679688 275.183594 254.292969 275.464844 253.875 C 275.742188 253.457031 275.980469 253.015625 276.171875 252.550781 C 276.363281 252.085938 276.507812 251.605469 276.609375 251.113281 C 276.707031 250.617188 276.753906 250.121094 276.753906 249.617188 C 276.753906 249.113281 276.707031 248.617188 276.609375 248.121094 C 276.507812 247.628906 276.363281 247.148438 276.171875 246.683594 C 275.980469 246.21875 275.742188 245.777344 275.464844 245.359375 C 275.183594 244.941406 274.867188 244.554688 274.511719 244.199219 C 274.15625 243.84375 273.765625 243.523438 273.347656 243.246094 C 272.929688 242.964844 272.488281 242.730469 272.023438 242.539062 C 271.558594 242.34375 271.082031 242.199219 270.585938 242.101562 C 270.09375 242.003906 269.59375 241.953125 269.09375 241.953125 Z M 16.21875 184.484375 C 15.210938 184.484375 14.214844 184.582031 13.226562 184.777344 C 12.242188 184.972656 11.285156 185.265625 10.351562 185.648438 C 9.421875 186.035156 8.539062 186.507812 7.703125 187.066406 C 6.867188 187.625 6.09375 188.261719 5.382812 188.972656 C 4.671875 189.683594 4.035156 190.457031 3.476562 191.292969 C 2.917969 192.128906 2.445312 193.015625 2.058594 193.945312 C 1.675781 194.875 1.382812 195.832031 1.1875 196.820312 C 0.992188 197.804688 0.894531 198.800781 0.894531 199.808594 C 0.894531 200.816406 0.992188 201.8125 1.1875 202.796875 C 1.382812 203.785156 1.675781 204.742188 2.058594 205.671875 C 2.445312 206.601562 2.917969 207.484375 3.476562 208.324219 C 4.035156 209.160156 4.671875 209.933594 5.382812 210.644531 C 6.09375 211.355469 6.867188 211.992188 7.703125 212.550781 C 8.539062 213.109375 9.421875 213.582031 10.351562 213.96875 C 11.285156 214.351562 12.242188 214.644531 13.226562 214.839844 C 14.214844 215.035156 15.210938 215.132812 16.21875 215.132812 C 17.226562 215.132812 18.222656 215.035156 19.207031 214.839844 C 20.195312 214.644531 21.152344 214.351562 22.082031 213.96875 C 23.011719 213.582031 23.894531 213.109375 24.734375 212.550781 C 25.570312 211.992188 26.34375 211.355469 27.054688 210.644531 C 27.765625 209.933594 28.402344 209.160156 28.960938 208.324219 C 29.519531 207.484375 29.992188 206.601562 30.378906 205.671875 C 30.761719 204.742188 31.054688 203.785156 31.25 202.796875 C 31.445312 201.8125 31.542969 200.816406 31.542969 199.808594 C 31.542969 198.800781 31.445312 197.804688 31.25 196.820312 C 31.054688 195.832031 30.761719 194.875 30.378906 193.945312 C 29.992188 193.015625 29.519531 192.128906 28.960938 191.292969 C 28.402344 190.457031 27.765625 189.683594 27.054688 188.972656 C 26.34375 188.261719 25.570312 187.625 24.734375 187.066406 C 23.894531 186.507812 23.011719 186.035156 22.082031 185.648438 C 21.152344 185.265625 20.195312 184.972656 19.207031 184.777344 C 18.222656 184.582031 17.226562 184.484375 16.21875 184.484375 Z M 16.21875 184.484375 " fill-opacity="1" fill-rule="nonzero"/><path fill="#ee3e54" d="M 54.53125 284.097656 C 54.03125 284.101562 53.53125 284.148438 53.039062 284.246094 C 52.542969 284.34375 52.066406 284.492188 51.601562 284.683594 C 51.136719 284.875 50.695312 285.113281 50.273438 285.390625 C 49.855469 285.671875 49.46875 285.988281 49.113281 286.34375 C 48.757812 286.699219 48.441406 287.085938 48.160156 287.503906 C 47.882812 287.921875 47.644531 288.363281 47.453125 288.828125 C 47.261719 289.292969 47.113281 289.773438 47.015625 290.265625 C 46.917969 290.761719 46.871094 291.257812 46.871094 291.761719 C 46.871094 292.265625 46.917969 292.765625 47.015625 293.257812 C 47.113281 293.75 47.261719 294.230469 47.453125 294.695312 C 47.644531 295.160156 47.882812 295.601562 48.160156 296.019531 C 48.441406 296.4375 48.757812 296.824219 49.113281 297.179688 C 49.46875 297.535156 49.855469 297.855469 50.273438 298.132812 C 50.695312 298.414062 51.136719 298.648438 51.601562 298.84375 C 52.066406 299.035156 52.542969 299.179688 53.039062 299.277344 C 53.53125 299.375 54.03125 299.425781 54.53125 299.425781 C 55.035156 299.425781 55.535156 299.375 56.027344 299.277344 C 56.519531 299.179688 57 299.035156 57.464844 298.84375 C 57.929688 298.648438 58.371094 298.414062 58.789062 298.132812 C 59.207031 297.855469 59.59375 297.535156 59.949219 297.179688 C 60.308594 296.824219 60.625 296.4375 60.902344 296.019531 C 61.183594 295.601562 61.417969 295.160156 61.613281 294.695312 C 61.804688 294.230469 61.949219 293.75 62.046875 293.257812 C 62.144531 292.765625 62.195312 292.265625 62.195312 291.761719 C 62.195312 291.257812 62.144531 290.761719 62.046875 290.265625 C 61.949219 289.773438 61.804688 289.292969 61.613281 288.828125 C 61.417969 288.363281 61.183594 287.921875 60.902344 287.503906 C 60.625 287.085938 60.308594 286.699219 59.949219 286.34375 C 59.59375 285.988281 59.207031 285.671875 58.789062 285.390625 C 58.371094 285.113281 57.929688 284.875 57.464844 284.683594 C 57 284.492188 56.519531 284.34375 56.027344 284.246094 C 55.535156 284.148438 55.035156 284.101562 54.53125 284.097656 Z M 54.53125 284.097656 " fill-opacity="1" fill-rule="nonzero"/><path fill="#ffffff" d="M 29.628906 153.832031 C 29 153.832031 28.375 153.894531 27.757812 154.015625 C 27.144531 154.136719 26.542969 154.320312 25.960938 154.558594 C 25.382812 154.800781 24.828125 155.097656 24.308594 155.445312 C 23.785156 155.796875 23.300781 156.191406 22.855469 156.636719 C 22.410156 157.082031 22.011719 157.566406 21.664062 158.089844 C 21.316406 158.613281 21.019531 159.164062 20.777344 159.746094 C 20.539062 160.324219 20.355469 160.925781 20.234375 161.542969 C 20.109375 162.15625 20.050781 162.78125 20.050781 163.410156 C 20.050781 164.039062 20.109375 164.660156 20.234375 165.277344 C 20.355469 165.894531 20.539062 166.496094 20.777344 167.074219 C 21.019531 167.65625 21.316406 168.207031 21.664062 168.730469 C 22.011719 169.253906 22.410156 169.738281 22.855469 170.183594 C 23.300781 170.628906 23.785156 171.023438 24.308594 171.375 C 24.828125 171.722656 25.382812 172.019531 25.960938 172.257812 C 26.542969 172.5 27.144531 172.683594 27.757812 172.804688 C 28.375 172.925781 29 172.988281 29.628906 172.988281 C 30.257812 172.988281 30.878906 172.925781 31.496094 172.804688 C 32.113281 172.683594 32.710938 172.5 33.292969 172.257812 C 33.875 172.019531 34.425781 171.722656 34.949219 171.375 C 35.472656 171.023438 35.957031 170.628906 36.402344 170.183594 C 36.847656 169.738281 37.242188 169.253906 37.59375 168.730469 C 37.941406 168.207031 38.238281 167.65625 38.476562 167.074219 C 38.71875 166.496094 38.898438 165.894531 39.023438 165.277344 C 39.144531 164.660156 39.207031 164.039062 39.207031 163.410156 C 39.207031 162.78125 39.144531 162.15625 39.023438 161.542969 C 38.898438 160.925781 38.71875 160.324219 38.476562 159.746094 C 38.238281 159.164062 37.941406 158.613281 37.59375 158.089844 C 37.242188 157.566406 36.847656 157.082031 36.402344 156.636719 C 35.957031 156.191406 35.472656 155.796875 34.949219 155.445312 C 34.425781 155.097656 33.875 154.800781 33.292969 154.558594 C 32.710938 154.320312 32.113281 154.136719 31.496094 154.015625 C 30.878906 153.894531 30.257812 153.832031 29.628906 153.832031 Z M 29.628906 153.832031 " fill-opacity="1" fill-rule="nonzero"/><path fill="#f1bc19" d="M 39.207031 211.300781 C 38.699219 211.300781 38.210938 211.398438 37.742188 211.59375 C 37.269531 211.789062 36.855469 212.066406 36.496094 212.425781 C 36.136719 212.785156 35.863281 213.199219 35.667969 213.667969 C 35.472656 214.136719 35.375 214.625 35.375 215.132812 C 35.375 215.640625 35.472656 216.132812 35.667969 216.601562 C 35.863281 217.070312 36.136719 217.484375 36.496094 217.84375 C 36.855469 218.203125 37.269531 218.480469 37.742188 218.671875 C 38.210938 218.867188 38.699219 218.964844 39.207031 218.964844 C 39.714844 218.964844 40.203125 218.867188 40.671875 218.671875 C 41.140625 218.480469 41.558594 218.203125 41.917969 217.84375 C 42.273438 217.484375 42.550781 217.070312 42.746094 216.601562 C 42.941406 216.132812 43.039062 215.640625 43.039062 215.132812 C 43.039062 214.625 42.941406 214.136719 42.746094 213.667969 C 42.550781 213.199219 42.273438 212.785156 41.917969 212.425781 C 41.558594 212.066406 41.140625 211.789062 40.671875 211.59375 C 40.203125 211.398438 39.714844 211.300781 39.207031 211.300781 Z M 39.207031 211.300781 " fill-opacity="1" fill-rule="nonzero"/><path fill="#ffffff" d="M 265.261719 84.867188 C 264.753906 84.867188 264.265625 84.964844 263.792969 85.15625 C 263.324219 85.351562 262.910156 85.628906 262.550781 85.988281 C 262.191406 86.347656 261.914062 86.761719 261.722656 87.230469 C 261.527344 87.699219 261.429688 88.1875 261.429688 88.699219 C 261.429688 89.207031 261.527344 89.695312 261.722656 90.164062 C 261.914062 90.632812 262.191406 91.046875 262.550781 91.40625 C 262.910156 91.765625 263.324219 92.042969 263.792969 92.238281 C 264.265625 92.429688 264.753906 92.527344 265.261719 92.527344 C 265.769531 92.527344 266.257812 92.429688 266.726562 92.238281 C 267.195312 92.042969 267.609375 91.765625 267.96875 91.40625 C 268.328125 91.046875 268.605469 90.632812 268.800781 90.164062 C 268.996094 89.695312 269.09375 89.207031 269.09375 88.699219 C 269.09375 88.1875 268.996094 87.699219 268.800781 87.230469 C 268.605469 86.761719 268.328125 86.347656 267.96875 85.988281 C 267.609375 85.628906 267.195312 85.351562 266.726562 85.15625 C 266.257812 84.964844 265.769531 84.867188 265.261719 84.867188 Z M 265.261719 84.867188 " fill-opacity="1" fill-rule="nonzero"/><path fill="#bebacb" d="M 81.214844 250.765625 C 79.417969 250.765625 77.917969 249.316406 77.804688 247.476562 L 73.746094 183.949219 L 73.75 172.9375 L 112.675781 172.9375 L 112.675781 184.121094 L 108.621094 247.472656 C 108.5 249.316406 107.003906 250.765625 105.207031 250.765625 Z M 81.214844 250.765625 " fill-opacity="1" fill-rule="nonzero"/><path fill="#472b29" d="M 109.992188 175.621094 L 109.992188 183.949219 L 105.945312 247.300781 C 105.917969 247.738281 105.59375 248.085938 105.210938 248.085938 L 81.21875 248.085938 C 80.835938 248.085938 80.507812 247.738281 80.484375 247.296875 L 76.4375 183.945312 L 76.4375 175.617188 L 109.992188 175.617188 M 115.355469 170.257812 L 71.070312 170.257812 L 71.070312 184.121094 L 75.125 247.648438 C 75.335938 250.90625 78 253.449219 81.21875 253.449219 L 105.210938 253.449219 C 108.425781 253.449219 111.09375 250.90625 111.300781 247.644531 L 115.355469 184.117188 Z M 115.355469 170.257812 " fill-opacity="1" fill-rule="nonzero"/><path fill="#f37e98" d="M 71.292969 181.800781 C 69.164062 181.800781 67.433594 180.074219 67.433594 177.941406 L 67.433594 128.605469 C 67.433594 113.457031 76.765625 102.875 90.128906 102.875 L 90.769531 102.875 C 104.660156 102.875 119.535156 123.972656 119.535156 138.824219 L 119.535156 177.941406 C 119.535156 180.074219 117.804688 181.800781 115.679688 181.800781 Z M 71.292969 181.800781 " fill-opacity="1" fill-rule="nonzero"/><path fill="#472b29" d="M 90.773438 105.554688 C 102.871094 105.554688 116.859375 125.691406 116.859375 138.828125 L 116.859375 177.941406 C 116.859375 178.589844 116.328125 179.117188 115.683594 179.117188 L 71.292969 179.117188 C 70.644531 179.117188 70.113281 178.589844 70.113281 177.941406 L 70.113281 128.605469 C 70.113281 117.503906 76.378906 105.554688 90.128906 105.554688 L 90.773438 105.554688 M 90.773438 100.191406 L 90.128906 100.191406 C 74.4375 100.191406 64.75 112.910156 64.75 128.605469 L 64.75 177.941406 C 64.75 181.554688 67.679688 184.484375 71.292969 184.484375 L 115.683594 184.484375 C 119.296875 184.484375 122.222656 181.554688 122.222656 177.941406 L 122.222656 138.824219 C 122.222656 123.128906 106.46875 100.191406 90.773438 100.191406 Z M 89.65625 253.449219 C 88.597656 253.449219 87.738281 252.589844 87.738281 251.53125 L 87.738281 220.882812 C 87.738281 219.824219 88.597656 218.964844 89.65625 218.964844 C 90.710938 218.964844 91.570312 219.824219 91.570312 220.882812 L 91.570312 251.53125 C 91.570312 252.589844 90.710938 253.449219 89.65625 253.449219 Z M 89.65625 215.132812 C 88.597656 215.132812 87.738281 214.277344 87.738281 213.21875 L 87.738281 194.0625 C 87.738281 193.003906 88.597656 192.144531 89.65625 192.144531 C 90.710938 192.144531 91.570312 193.003906 91.570312 194.0625 L 91.570312 213.21875 C 91.570312 214.277344 90.710938 215.132812 89.65625 215.132812 Z M 89.65625 215.132812 " fill-opacity="1" fill-rule="nonzero"/><path fill="#fabf82" d="M 83.523438 92.488281 L 96.230469 92.488281 L 96.230469 108.339844 L 83.523438 108.339844 Z M 83.523438 92.488281 " fill-opacity="1" fill-rule="nonzero"/><path fill="#472b29" d="M 93.546875 95.167969 L 93.546875 105.65625 L 86.207031 105.65625 L 86.207031 95.167969 L 93.546875 95.167969 M 98.910156 89.808594 L 80.84375 89.808594 L 80.84375 111.023438 L 98.910156 111.023438 Z M 98.910156 89.808594 " fill-opacity="1" fill-rule="nonzero"/><path fill="#fabf82" d="M 146.773438 150.15625 C 167.078125 152.203125 174.484375 141.097656 177.167969 133.683594 L 192.390625 136.804688 C 188.496094 150.011719 176.984375 166.355469 151.671875 166.355469 C 149.644531 166.355469 147.523438 166.253906 145.316406 166.035156 C 141.101562 165.613281 138.015625 161.71875 138.417969 157.335938 C 138.816406 152.949219 142.546875 149.746094 146.773438 150.15625 Z M 146.773438 150.15625 " fill-opacity="1" fill-rule="nonzero"/><path fill="#472b29" d="M 151.667969 169.039062 C 149.519531 169.039062 147.296875 168.921875 145.046875 168.699219 C 139.378906 168.136719 135.207031 162.925781 135.742188 157.089844 C 136.011719 154.199219 137.363281 151.609375 139.558594 149.796875 C 141.671875 148.050781 144.308594 147.214844 147.035156 147.492188 L 147.046875 147.492188 C 164.808594 149.265625 171.859375 140.476562 174.648438 132.769531 L 175.4375 130.589844 L 195.789062 134.761719 L 194.964844 137.5625 C 192.777344 144.945312 183.222656 169.039062 151.667969 169.039062 Z M 146.054688 152.804688 C 144.9375 152.804688 143.863281 153.195312 142.976562 153.921875 C 141.890625 154.820312 141.21875 156.117188 141.085938 157.578125 C 140.816406 160.496094 142.832031 163.089844 145.578125 163.359375 C 147.652344 163.566406 149.699219 163.671875 151.667969 163.671875 C 176.046875 163.671875 185.464844 148.003906 188.890625 138.824219 L 178.8125 136.757812 C 175.339844 144.5 166.828125 154.867188 146.515625 152.824219 C 146.359375 152.8125 146.207031 152.804688 146.054688 152.804688 Z M 146.054688 152.804688 " fill-opacity="1" fill-rule="nonzero"/><path fill="#bebacb" d="M 191.113281 250.765625 C 189.316406 250.765625 187.824219 249.316406 187.699219 247.472656 L 183.648438 183.945312 L 183.65625 172.933594 L 222.574219 172.933594 L 222.574219 184.117188 L 218.523438 247.46875 C 218.40625 249.3125 216.902344 250.761719 215.105469 250.761719 L 191.113281 250.761719 Z M 191.113281 250.765625 " fill-opacity="1" fill-rule="nonzero"/><path fill="#472b29" d="M 219.894531 175.621094 L 219.894531 183.949219 L 215.847656 247.300781 C 215.820312 247.742188 215.496094 248.089844 215.109375 248.089844 L 191.117188 248.089844 C 190.734375 248.089844 190.410156 247.742188 190.382812 247.300781 L 186.335938 183.949219 L 186.335938 175.621094 L 219.894531 175.621094 M 225.257812 170.257812 L 180.96875 170.257812 L 180.96875 184.121094 L 185.027344 247.648438 C 185.238281 250.90625 187.898438 253.449219 191.117188 253.449219 L 215.109375 253.449219 C 218.324219 253.449219 220.992188 250.90625 221.199219 247.644531 L 225.257812 184.117188 Z M 225.257812 170.257812 " fill-opacity="1" fill-rule="nonzero"/><path fill="#67ba8c" d="M 177.300781 181.800781 C 175.875 181.800781 174.710938 180.640625 174.710938 179.214844 L 174.710938 128.863281 C 174.710938 114.53125 186.371094 102.875 200.699219 102.875 L 204.660156 102.875 C 218.988281 102.875 230.648438 114.53125 230.648438 128.863281 L 230.648438 179.214844 C 230.648438 180.640625 229.488281 181.800781 228.0625 181.800781 Z M 177.300781 181.800781 " fill-opacity="1" fill-rule="nonzero"/><path fill="#472b29" d="M 204.664062 105.554688 C 217.511719 105.554688 227.96875 116.011719 227.96875 128.863281 L 228.066406 179.117188 L 177.394531 179.214844 L 177.394531 128.863281 C 177.394531 116.011719 187.851562 105.554688 200.699219 105.554688 L 204.664062 105.554688 M 204.664062 100.191406 L 200.703125 100.191406 C 184.867188 100.191406 172.03125 113.03125 172.03125 128.863281 L 172.03125 179.214844 C 172.03125 182.121094 174.390625 184.484375 177.300781 184.484375 L 228.066406 184.484375 C 230.972656 184.484375 233.332031 182.121094 233.332031 179.214844 L 233.332031 128.863281 C 233.332031 113.03125 220.5 100.191406 204.664062 100.191406 Z M 204.664062 100.191406 " fill-opacity="1" fill-rule="nonzero"/><path fill="#fabf82" d="M 200.367188 109.710938 C 198.246094 109.710938 196.691406 109.171875 195.609375 108.070312 C 193.859375 106.277344 193.835938 103.445312 193.839844 103.414062 L 193.839844 92.484375 L 206.539062 92.484375 L 206.539062 103.355469 C 206.546875 103.527344 206.65625 106.363281 204.964844 108.128906 C 203.96875 109.183594 202.417969 109.710938 200.367188 109.710938 Z M 200.367188 109.710938 " fill-opacity="1" fill-rule="nonzero"/><path fill="#472b29" d="M 203.863281 95.167969 L 203.863281 103.355469 L 203.867188 103.523438 L 203.867188 103.59375 C 203.882812 104.171875 203.695312 105.59375 203.015625 106.292969 C 202.421875 106.898438 201.246094 107.027344 200.363281 107.027344 C 199.226562 107.027344 196.5625 107.027344 196.515625 103.355469 L 196.515625 95.167969 L 203.863281 95.167969 M 209.226562 89.808594 L 191.15625 89.808594 L 191.15625 103.359375 C 191.15625 103.359375 190.960938 112.394531 200.367188 112.394531 C 209.773438 112.394531 209.226562 103.359375 209.226562 103.359375 Z M 209.226562 89.808594 " fill-opacity="1" fill-rule="nonzero"/><path fill="#fabf82" d="M 200.191406 98.84375 C 212.652344 98.84375 222.78125 88.710938 222.78125 76.253906 C 222.78125 63.683594 212.472656 53.484375 199.863281 53.667969 C 187.875 53.839844 177.78125 63.933594 177.609375 75.917969 C 177.421875 88.53125 187.621094 98.84375 200.191406 98.84375 " fill-opacity="1" fill-rule="nonzero"/><path fill="#472b29" d="M 200.191406 101.523438 C 193.382812 101.523438 186.992188 98.847656 182.199219 93.984375 C 177.410156 89.121094 174.828125 82.699219 174.925781 75.882812 C 175.121094 62.347656 186.292969 51.179688 199.824219 50.984375 C 206.464844 50.890625 213.0625 53.46875 217.925781 58.257812 C 222.789062 63.050781 225.46875 69.441406 225.46875 76.25 C 225.460938 90.1875 214.121094 101.523438 200.191406 101.523438 Z M 200.195312 56.347656 C 200.097656 56.347656 199.996094 56.347656 199.898438 56.351562 C 189.421875 56.5 180.441406 65.484375 180.292969 75.957031 C 180.210938 81.324219 182.25 86.390625 186.019531 90.222656 C 189.792969 94.050781 194.828125 96.160156 200.191406 96.160156 C 211.167969 96.160156 220.097656 87.234375 220.097656 76.257812 C 220.097656 70.894531 217.984375 65.859375 214.15625 62.085938 C 210.398438 58.375 205.453125 56.347656 200.195312 56.347656 Z M 200.195312 56.347656 " fill-opacity="1" fill-rule="nonzero"/><path fill="#472b29" d="M 196.933594 253.449219 C 195.878906 253.449219 195.019531 252.589844 195.019531 251.53125 L 195.019531 220.882812 C 195.019531 219.824219 195.878906 218.964844 196.933594 218.964844 C 197.992188 218.964844 198.851562 219.824219 198.851562 220.882812 L 198.851562 251.53125 C 198.851562 252.589844 197.992188 253.449219 196.933594 253.449219 Z M 196.933594 253.449219 " fill-opacity="1" fill-rule="nonzero"/><path fill="#472b29" d="M 196.933594 215.132812 C 195.878906 215.132812 195.019531 214.277344 195.019531 213.21875 L 195.019531 194.0625 C 195.019531 193.003906 195.878906 192.144531 196.933594 192.144531 C 197.992188 192.144531 198.851562 193.003906 198.851562 194.0625 L 198.851562 213.21875 C 198.851562 214.277344 197.992188 215.132812 196.933594 215.132812 Z M 196.933594 215.132812 " fill-opacity="1" fill-rule="nonzero"/><path fill="#472b29" d="M 93.167969 142.976562 C 92.808594 142.976562 92.453125 142.878906 92.140625 142.679688 C 91.707031 142.40625 91.40625 141.964844 91.296875 141.472656 L 88.492188 128.542969 C 88.265625 127.503906 88.921875 126.492188 89.957031 126.265625 C 90.988281 126.035156 92.011719 126.695312 92.238281 127.726562 L 94.632812 138.757812 L 116.558594 133.71875 L 114.023438 123.195312 C 113.777344 122.164062 114.410156 121.128906 115.4375 120.882812 C 116.46875 120.667969 117.5 121.269531 117.75 122.296875 L 120.738281 134.699219 C 120.859375 135.199219 120.773438 135.722656 120.503906 136.15625 C 120.238281 136.59375 119.804688 136.898438 119.304688 137.019531 L 93.605469 142.925781 C 93.457031 142.960938 93.308594 142.976562 93.167969 142.976562 Z M 93.167969 142.976562 " fill-opacity="1" fill-rule="nonzero"/><path fill="#fabf82" d="M 214.734375 141.378906 L 214.734375 183.035156 C 214.734375 187.183594 218.167969 190.550781 222.398438 190.550781 C 226.628906 190.550781 230.0625 187.1875 230.0625 183.035156 L 230.0625 141.378906 Z M 214.734375 141.378906 " fill-opacity="1" fill-rule="nonzero"/><path fill="#472b29" d="M 222.398438 193.234375 C 216.695312 193.234375 212.054688 188.660156 212.054688 183.035156 L 212.054688 138.699219 L 232.742188 138.699219 L 232.742188 183.035156 C 232.742188 188.660156 228.101562 193.234375 222.398438 193.234375 Z M 217.417969 144.0625 L 217.417969 183.035156 C 217.417969 185.699219 219.652344 187.871094 222.398438 187.871094 C 225.144531 187.871094 227.378906 185.703125 227.378906 183.035156 L 227.378906 144.0625 Z M 217.417969 144.0625 " fill-opacity="1" fill-rule="nonzero"/><path fill="#fabf82" d="M 92.304688 98.84375 C 104.878906 98.84375 115.078125 88.53125 114.894531 75.921875 C 114.71875 63.933594 104.625 53.84375 92.640625 53.671875 C 80.03125 53.488281 69.71875 63.6875 69.71875 76.257812 C 69.714844 88.710938 79.847656 98.84375 92.304688 98.84375 " fill-opacity="1" fill-rule="nonzero"/><path fill="#472b29" d="M 92.304688 101.523438 C 78.371094 101.523438 67.035156 90.1875 67.035156 76.253906 C 67.035156 69.445312 69.710938 63.054688 74.574219 58.261719 C 79.433594 53.472656 85.753906 50.941406 92.679688 50.988281 C 106.210938 51.183594 117.378906 62.351562 117.574219 75.886719 C 117.675781 82.699219 115.09375 89.125 110.300781 93.988281 C 105.507812 98.84375 99.117188 101.523438 92.304688 101.523438 Z M 92.300781 56.347656 C 87.046875 56.347656 82.101562 58.375 78.339844 62.082031 C 74.507812 65.855469 72.402344 70.894531 72.402344 76.253906 C 72.402344 87.230469 81.332031 96.15625 92.304688 96.15625 C 97.671875 96.15625 102.703125 94.046875 106.484375 90.21875 C 110.253906 86.386719 112.292969 81.324219 112.214844 75.953125 C 112.0625 65.480469 103.085938 56.5 92.601562 56.347656 C 92.5 56.347656 92.402344 56.347656 92.300781 56.347656 Z M 92.300781 56.347656 " fill-opacity="1" fill-rule="nonzero"/><path fill="#472b29" d="M 91.28125 44.628906 C 79.238281 45.617188 67.664062 53.347656 67.664062 69.8125 L 67.742188 78.402344 C 67.941406 82.585938 78.261719 80.59375 80.3125 79 C 85.101562 75.289062 84.8125 68.535156 84.8125 68.535156 C 96.117188 68.699219 108.8125 66.457031 111.203125 63.792969 C 114.980469 59.214844 116.640625 54.1875 115.035156 48.46875 C 105.820312 49.902344 102.824219 44.277344 91.28125 44.628906 Z M 91.28125 44.628906 " fill-opacity="1" fill-rule="nonzero"/><path fill="#472b29" d="M 72.40625 83.566406 C 70.796875 83.566406 69.273438 83.339844 68.070312 82.789062 C 66.253906 81.949219 65.15625 80.398438 65.070312 78.53125 L 64.984375 69.839844 C 64.984375 50.832031 79.035156 42.9375 91.066406 41.957031 L 91.203125 41.949219 C 97.414062 41.726562 101.324219 43.148438 104.785156 44.375 C 108.050781 45.53125 110.632812 46.429688 114.628906 45.820312 L 116.980469 45.453125 L 117.625 47.742188 C 119.359375 53.921875 117.898438 59.898438 113.28125 65.5 C 109.867188 69.300781 96.664062 71.046875 87.3125 71.214844 C 86.910156 73.992188 85.679688 78.242188 81.960938 81.121094 C 80.410156 82.316406 76.179688 83.566406 72.40625 83.566406 Z M 70.421875 77.980469 C 71.953125 78.660156 77.289062 77.847656 78.683594 76.871094 C 82.273438 74.085938 82.132812 68.695312 82.128906 68.640625 L 82.039062 65.832031 L 84.851562 65.859375 C 97.300781 66.085938 107.832031 63.425781 109.210938 62 C 112.101562 58.492188 113.308594 55.050781 112.886719 51.371094 C 108.84375 51.53125 105.898438 50.464844 102.988281 49.4375 C 99.835938 48.320312 96.566406 47.148438 91.429688 47.308594 C 81.222656 48.171875 70.34375 54.53125 70.34375 69.816406 Z M 70.421875 77.980469 " fill-opacity="1" fill-rule="nonzero"/><path fill="#472b29" d="M 200.667969 44.628906 C 212.707031 45.617188 224.285156 53.347656 224.285156 69.8125 L 224.203125 78.402344 C 224.003906 82.585938 213.6875 80.59375 211.632812 79 C 206.84375 75.289062 207.132812 68.535156 207.132812 68.535156 C 195.828125 68.699219 183.132812 66.457031 180.742188 63.792969 C 176.964844 59.214844 175.304688 54.1875 176.910156 48.46875 C 186.128906 49.902344 189.121094 44.277344 200.667969 44.628906 Z M 200.667969 44.628906 " fill-opacity="1" fill-rule="nonzero"/><path fill="#472b29" d="M 219.542969 83.566406 C 215.765625 83.566406 211.535156 82.316406 209.988281 81.117188 C 206.269531 78.238281 205.039062 73.992188 204.640625 71.210938 C 195.292969 71.042969 182.09375 69.304688 178.746094 65.582031 C 174.054688 59.898438 172.59375 53.917969 174.328125 47.738281 L 174.972656 45.449219 L 177.320312 45.816406 C 181.339844 46.425781 183.902344 45.527344 187.164062 44.371094 C 190.625 43.148438 194.46875 41.734375 200.746094 41.945312 L 200.886719 41.953125 C 212.917969 42.941406 226.96875 50.832031 226.96875 69.8125 L 226.890625 78.425781 C 226.796875 80.398438 225.699219 81.949219 223.886719 82.789062 C 222.683594 83.34375 221.152344 83.566406 219.542969 83.566406 Z M 209.9375 65.8125 L 209.816406 68.652344 C 209.816406 68.695312 209.679688 74.089844 213.277344 76.875 C 214.660156 77.84375 220 78.632812 221.527344 77.976562 L 221.605469 69.78125 C 221.605469 54.527344 210.722656 48.164062 200.515625 47.300781 C 195.320312 47.210938 192.109375 48.3125 188.953125 49.429688 C 186.046875 50.460938 183.054688 51.527344 179.058594 51.363281 C 178.636719 55.046875 179.855469 58.5 182.808594 62.085938 C 184.109375 63.417969 194.558594 66.058594 207.097656 65.851562 Z M 209.9375 65.8125 " fill-opacity="1" fill-rule="nonzero"/><path fill="#472b29" d="M 231.417969 142.335938 L 204.597656 142.335938 C 203.539062 142.335938 202.683594 141.480469 202.683594 140.421875 L 202.683594 125.097656 C 202.683594 124.039062 203.539062 123.179688 204.597656 123.179688 C 205.65625 123.179688 206.511719 124.039062 206.511719 125.097656 L 206.511719 138.503906 L 231.417969 138.503906 C 232.476562 138.503906 233.332031 139.363281 233.332031 140.421875 C 233.332031 141.480469 232.476562 142.335938 231.417969 142.335938 Z M 231.417969 142.335938 " fill-opacity="1" fill-rule="nonzero"/><path fill="#fabf82" d="M 144.480469 150.40625 C 126.695312 152.199219 118.804688 143.898438 115.316406 136.828125 L 100.003906 140.367188 C 104.769531 152.84375 116.351562 166.605469 139.585938 166.605469 C 141.613281 166.605469 143.730469 166.5 145.9375 166.285156 C 150.152344 165.863281 153.242188 161.96875 152.839844 157.585938 C 152.4375 153.199219 148.703125 149.996094 144.480469 150.40625 Z M 144.480469 150.40625 " fill-opacity="1" fill-rule="nonzero"/><path fill="#472b29" d="M 139.585938 169.285156 C 111.242188 169.285156 100.710938 149.726562 97.5 141.320312 L 96.402344 138.445312 L 116.785156 133.734375 L 117.722656 135.640625 C 120.890625 142.0625 128.054688 149.378906 144.210938 147.730469 L 144.222656 147.730469 C 146.929688 147.449219 149.585938 148.289062 151.699219 150.039062 C 153.890625 151.855469 155.25 154.445312 155.511719 157.332031 C 156.054688 163.171875 151.878906 168.382812 146.207031 168.941406 C 143.941406 169.171875 141.714844 169.285156 139.585938 169.285156 Z M 103.71875 142.257812 C 108.003906 151.425781 117.839844 163.914062 139.585938 163.914062 C 141.542969 163.914062 143.589844 163.8125 145.679688 163.609375 C 148.421875 163.335938 150.4375 160.742188 150.167969 157.828125 C 150.035156 156.367188 149.363281 155.066406 148.277344 154.167969 C 147.273438 153.335938 146.023438 152.933594 144.738281 153.070312 C 127.027344 154.878906 118.261719 147.308594 113.929688 139.898438 Z M 103.71875 142.257812 " fill-opacity="1" fill-rule="nonzero"/></svg>