<svg xmlns="http://www.w3.org/2000/svg" xmlns:xlink="http://www.w3.org/1999/xlink" width="400" zoomAndPan="magnify" viewBox="0 0 300 299.999988" height="400" preserveAspectRatio="xMidYMid meet" version="1.0"><defs><clipPath id="bbfe399a92"><path d="M 226 111 L 297.9375 111 L 297.9375 163 L 226 163 Z M 226 111 " clip-rule="nonzero"/></clipPath><clipPath id="df0c3de36e"><path d="M 2.4375 111 L 74 111 L 74 163 L 2.4375 163 Z M 2.4375 111 " clip-rule="nonzero"/></clipPath><clipPath id="2c11b119e6"><path d="M 226 223 L 297.9375 223 L 297.9375 275 L 226 275 Z M 226 223 " clip-rule="nonzero"/></clipPath><clipPath id="0a13e4e020"><path d="M 2.4375 223 L 74 223 L 74 275 L 2.4375 275 Z M 2.4375 223 " clip-rule="nonzero"/></clipPath><clipPath id="c787badfb7"><path d="M 226 0 L 297.9375 0 L 297.9375 51 L 226 51 Z M 226 0 " clip-rule="nonzero"/></clipPath><clipPath id="ba76e71e19"><path d="M 2.4375 0 L 74 0 L 74 51 L 2.4375 51 Z M 2.4375 0 " clip-rule="nonzero"/></clipPath></defs><path fill="#f89c23" d="M 196.007812 40.679688 C 194.65625 40.679688 193.363281 41.214844 192.410156 42.167969 L 150.1875 84.335938 L 107.964844 42.167969 C 107.011719 41.214844 105.71875 40.679688 104.367188 40.679688 L 63.636719 40.679688 L 63.636719 50.847656 L 102.257812 50.847656 L 145.097656 93.628906 L 145.097656 101.695312 L 155.277344 101.695312 L 155.277344 93.628906 L 198.117188 50.847656 L 236.738281 50.847656 L 236.738281 40.679688 L 196.007812 40.679688 " fill-opacity="1" fill-rule="nonzero"/><path fill="#f89c23" d="M 196.007812 254.238281 C 194.65625 254.238281 193.363281 253.699219 192.410156 252.746094 L 150.1875 210.578125 L 107.964844 252.746094 C 107.011719 253.699219 105.71875 254.238281 104.367188 254.238281 L 63.636719 254.238281 L 63.636719 244.066406 L 102.257812 244.066406 L 145.097656 201.285156 L 145.097656 193.21875 L 155.277344 193.21875 L 155.277344 201.285156 L 198.117188 244.066406 L 236.738281 244.066406 L 236.738281 254.238281 L 196.007812 254.238281 " fill-opacity="1" fill-rule="nonzero"/><path fill="#aaa8af" d="M 272.375 162.710938 L 272.375 183.050781 L 252.011719 183.050781 L 252.011719 162.710938 L 272.375 162.710938 " fill-opacity="1" fill-rule="nonzero"/><g clip-path="url(#bbfe399a92)"><path fill="#6caae1" d="M 297.832031 116.949219 L 297.832031 157.628906 C 297.832031 160.425781 295.546875 162.710938 292.742188 162.710938 L 231.648438 162.710938 C 228.84375 162.710938 226.554688 160.425781 226.554688 157.628906 L 226.554688 116.949219 C 226.554688 114.148438 228.84375 111.863281 231.648438 111.863281 L 292.742188 111.863281 C 295.546875 111.863281 297.832031 114.148438 297.832031 116.949219 " fill-opacity="1" fill-rule="nonzero"/></g><path fill="#84848e" d="M 252.011719 162.710938 L 252.011719 172.882812 L 272.375 172.882812 L 272.375 162.710938 L 252.011719 162.710938 " fill-opacity="1" fill-rule="nonzero"/><path fill="#aaa8af" d="M 48.363281 162.710938 L 48.363281 183.050781 L 28 183.050781 L 28 162.710938 L 48.363281 162.710938 " fill-opacity="1" fill-rule="nonzero"/><g clip-path="url(#df0c3de36e)"><path fill="#6caae1" d="M 73.820312 116.949219 L 73.820312 157.628906 C 73.820312 160.425781 71.53125 162.710938 68.726562 162.710938 L 7.632812 162.710938 C 4.828125 162.710938 2.542969 160.425781 2.542969 157.628906 L 2.542969 116.949219 C 2.542969 114.148438 4.828125 111.863281 7.632812 111.863281 L 68.726562 111.863281 C 71.53125 111.863281 73.820312 114.148438 73.820312 116.949219 " fill-opacity="1" fill-rule="nonzero"/></g><path fill="#84848e" d="M 28 162.710938 L 28 172.882812 L 48.363281 172.882812 L 48.363281 162.710938 L 28 162.710938 " fill-opacity="1" fill-rule="nonzero"/><path fill="#aaa8af" d="M 272.375 274.578125 L 272.375 294.914062 L 252.011719 294.914062 L 252.011719 274.578125 L 272.375 274.578125 " fill-opacity="1" fill-rule="nonzero"/><g clip-path="url(#2c11b119e6)"><path fill="#6caae1" d="M 297.832031 228.8125 L 297.832031 269.492188 C 297.832031 272.292969 295.546875 274.578125 292.742188 274.578125 L 231.648438 274.578125 C 228.84375 274.578125 226.554688 272.292969 226.554688 269.492188 L 226.554688 228.8125 C 226.554688 226.011719 228.84375 223.730469 231.648438 223.730469 L 292.742188 223.730469 C 295.546875 223.730469 297.832031 226.011719 297.832031 228.8125 " fill-opacity="1" fill-rule="nonzero"/></g><path fill="#84848e" d="M 252.011719 274.578125 L 252.011719 284.746094 L 272.375 284.746094 L 272.375 274.578125 L 252.011719 274.578125 " fill-opacity="1" fill-rule="nonzero"/><path fill="#aaa8af" d="M 48.363281 274.578125 L 48.363281 294.914062 L 28 294.914062 L 28 274.578125 L 48.363281 274.578125 " fill-opacity="1" fill-rule="nonzero"/><g clip-path="url(#0a13e4e020)"><path fill="#6caae1" d="M 73.820312 228.8125 L 73.820312 269.492188 C 73.820312 272.292969 71.53125 274.578125 68.726562 274.578125 L 7.632812 274.578125 C 4.828125 274.578125 2.542969 272.292969 2.542969 269.492188 L 2.542969 228.8125 C 2.542969 226.011719 4.828125 223.730469 7.632812 223.730469 L 68.726562 223.730469 C 71.53125 223.730469 73.820312 226.011719 73.820312 228.8125 " fill-opacity="1" fill-rule="nonzero"/></g><path fill="#84848e" d="M 28 274.578125 L 28 284.746094 L 48.363281 284.746094 L 48.363281 274.578125 L 28 274.578125 " fill-opacity="1" fill-rule="nonzero"/><path fill="#aaa8af" d="M 272.375 50.847656 L 272.375 71.1875 L 252.011719 71.1875 L 252.011719 50.847656 L 272.375 50.847656 " fill-opacity="1" fill-rule="nonzero"/><g clip-path="url(#c787badfb7)"><path fill="#6caae1" d="M 297.832031 5.085938 L 297.832031 45.761719 C 297.832031 48.5625 295.546875 50.847656 292.742188 50.847656 L 231.648438 50.847656 C 228.84375 50.847656 226.554688 48.5625 226.554688 45.761719 L 226.554688 5.085938 C 226.554688 2.285156 228.84375 0 231.648438 0 L 292.742188 0 C 295.546875 0 297.832031 2.285156 297.832031 5.085938 " fill-opacity="1" fill-rule="nonzero"/></g><path fill="#84848e" d="M 252.011719 50.847656 L 252.011719 61.015625 L 272.375 61.015625 L 272.375 50.847656 L 252.011719 50.847656 " fill-opacity="1" fill-rule="nonzero"/><path fill="#dad8da" d="M 150.1875 132.203125 C 175.484375 132.203125 196.007812 123.105469 196.007812 111.863281 L 196.007812 147.457031 C 196.007812 158.699219 175.484375 167.796875 150.1875 167.796875 C 124.890625 167.796875 104.367188 158.699219 104.367188 147.457031 L 104.367188 111.863281 C 104.367188 123.105469 124.890625 132.203125 150.1875 132.203125 " fill-opacity="1" fill-rule="nonzero"/><path fill="#aaa8af" d="M 150.1875 203.390625 C 124.890625 203.390625 104.367188 194.292969 104.367188 183.050781 L 104.367188 147.457031 C 104.367188 158.699219 124.890625 167.796875 150.1875 167.796875 C 175.484375 167.796875 196.007812 158.699219 196.007812 147.457031 L 196.007812 183.050781 C 196.007812 194.292969 175.484375 203.390625 150.1875 203.390625 " fill-opacity="1" fill-rule="nonzero"/><path fill="#aaa8af" d="M 196.007812 111.863281 C 196.007812 123.105469 175.484375 132.203125 150.1875 132.203125 C 124.890625 132.203125 104.367188 123.105469 104.367188 111.863281 C 104.367188 100.621094 124.890625 91.527344 150.1875 91.527344 C 175.484375 91.527344 196.007812 100.621094 196.007812 111.863281 " fill-opacity="1" fill-rule="nonzero"/><path fill="#aaa8af" d="M 48.363281 50.847656 L 48.363281 71.1875 L 28 71.1875 L 28 50.847656 L 48.363281 50.847656 " fill-opacity="1" fill-rule="nonzero"/><g clip-path="url(#ba76e71e19)"><path fill="#6caae1" d="M 73.820312 5.085938 L 73.820312 45.761719 C 73.820312 48.5625 71.53125 50.847656 68.726562 50.847656 L 7.632812 50.847656 C 4.828125 50.847656 2.542969 48.5625 2.542969 45.761719 L 2.542969 5.085938 C 2.542969 2.285156 4.828125 0 7.632812 0 L 68.726562 0 C 71.53125 0 73.820312 2.285156 73.820312 5.085938 " fill-opacity="1" fill-rule="nonzero"/></g><path fill="#84848e" d="M 28 50.847656 L 28 61.015625 L 48.363281 61.015625 L 48.363281 50.847656 L 28 50.847656 " fill-opacity="1" fill-rule="nonzero"/><path fill="#84848e" d="M 58.546875 300 L 17.816406 300 L 17.816406 289.832031 L 58.546875 289.832031 L 58.546875 300 " fill-opacity="1" fill-rule="nonzero"/><path fill="#417dc8" d="M 33.089844 254.238281 L 22.90625 254.238281 L 22.90625 244.066406 L 33.089844 244.066406 L 33.089844 254.238281 " fill-opacity="1" fill-rule="nonzero"/><path fill="#417dc8" d="M 53.453125 254.238281 L 43.273438 254.238281 L 43.273438 244.066406 L 53.453125 244.066406 L 53.453125 254.238281 " fill-opacity="1" fill-rule="nonzero"/><path fill="#84848e" d="M 58.546875 188.136719 L 17.816406 188.136719 L 17.816406 177.964844 L 58.546875 177.964844 L 58.546875 188.136719 " fill-opacity="1" fill-rule="nonzero"/><path fill="#417dc8" d="M 33.089844 142.371094 L 22.90625 142.371094 L 22.90625 132.203125 L 33.089844 132.203125 L 33.089844 142.371094 " fill-opacity="1" fill-rule="nonzero"/><path fill="#417dc8" d="M 53.453125 142.371094 L 43.273438 142.371094 L 43.273438 132.203125 L 53.453125 132.203125 L 53.453125 142.371094 " fill-opacity="1" fill-rule="nonzero"/><path fill="#84848e" d="M 58.546875 76.269531 L 17.816406 76.269531 L 17.816406 66.101562 L 58.546875 66.101562 L 58.546875 76.269531 " fill-opacity="1" fill-rule="nonzero"/><path fill="#417dc8" d="M 33.089844 30.507812 L 22.90625 30.507812 L 22.90625 20.339844 L 33.089844 20.339844 L 33.089844 30.507812 " fill-opacity="1" fill-rule="nonzero"/><path fill="#417dc8" d="M 53.453125 30.507812 L 43.273438 30.507812 L 43.273438 20.339844 L 53.453125 20.339844 L 53.453125 30.507812 " fill-opacity="1" fill-rule="nonzero"/><path fill="#84848e" d="M 282.558594 300 L 241.828125 300 L 241.828125 289.832031 L 282.558594 289.832031 L 282.558594 300 " fill-opacity="1" fill-rule="nonzero"/><path fill="#417dc8" d="M 257.101562 254.238281 L 246.921875 254.238281 L 246.921875 244.066406 L 257.101562 244.066406 L 257.101562 254.238281 " fill-opacity="1" fill-rule="nonzero"/><path fill="#417dc8" d="M 277.46875 254.238281 L 267.285156 254.238281 L 267.285156 244.066406 L 277.46875 244.066406 L 277.46875 254.238281 " fill-opacity="1" fill-rule="nonzero"/><path fill="#84848e" d="M 282.558594 188.136719 L 241.828125 188.136719 L 241.828125 177.964844 L 282.558594 177.964844 L 282.558594 188.136719 " fill-opacity="1" fill-rule="nonzero"/><path fill="#417dc8" d="M 257.101562 142.371094 L 246.921875 142.371094 L 246.921875 132.203125 L 257.101562 132.203125 L 257.101562 142.371094 " fill-opacity="1" fill-rule="nonzero"/><path fill="#417dc8" d="M 277.46875 142.371094 L 267.285156 142.371094 L 267.285156 132.203125 L 277.46875 132.203125 L 277.46875 142.371094 " fill-opacity="1" fill-rule="nonzero"/><path fill="#84848e" d="M 282.558594 76.269531 L 241.828125 76.269531 L 241.828125 66.101562 L 282.558594 66.101562 L 282.558594 76.269531 " fill-opacity="1" fill-rule="nonzero"/><path fill="#417dc8" d="M 257.101562 30.507812 L 246.921875 30.507812 L 246.921875 20.339844 L 257.101562 20.339844 L 257.101562 30.507812 " fill-opacity="1" fill-rule="nonzero"/><path fill="#417dc8" d="M 277.46875 30.507812 L 267.285156 30.507812 L 267.285156 20.339844 L 277.46875 20.339844 L 277.46875 30.507812 " fill-opacity="1" fill-rule="nonzero"/><path fill="#84848e" d="M 129.824219 152.542969 L 119.640625 152.542969 L 119.640625 142.371094 L 129.824219 142.371094 L 129.824219 152.542969 " fill-opacity="1" fill-rule="nonzero"/><path fill="#84848e" d="M 150.1875 157.628906 L 140.003906 157.628906 L 140.003906 147.457031 L 150.1875 147.457031 L 150.1875 157.628906 " fill-opacity="1" fill-rule="nonzero"/><path fill="#84848e" d="M 129.824219 188.136719 L 119.640625 188.136719 L 119.640625 177.964844 L 129.824219 177.964844 L 129.824219 188.136719 " fill-opacity="1" fill-rule="nonzero"/><path fill="#84848e" d="M 150.1875 193.21875 L 140.003906 193.21875 L 140.003906 183.050781 L 150.1875 183.050781 L 150.1875 193.21875 " fill-opacity="1" fill-rule="nonzero"/><path fill="#f89c23" d="M 226.554688 152.542969 L 196.007812 152.542969 L 196.007812 142.371094 L 226.554688 142.371094 L 226.554688 152.542969 " fill-opacity="1" fill-rule="nonzero"/><path fill="#f89c23" d="M 104.367188 152.542969 L 73.820312 152.542969 L 73.820312 142.371094 L 104.367188 142.371094 L 104.367188 152.542969 " fill-opacity="1" fill-rule="nonzero"/></svg>