<svg xmlns="http://www.w3.org/2000/svg" xmlns:xlink="http://www.w3.org/1999/xlink" width="400" zoomAndPan="magnify" viewBox="0 0 300 299.999988" height="400" preserveAspectRatio="xMidYMid meet" version="1.0"><path fill="#e7e7e8" d="M 218.117188 105.421875 L 81.683594 105.421875 C 78.34375 105.421875 75.628906 108.140625 75.628906 111.480469 L 75.628906 133.753906 C 75.628906 137.097656 78.34375 139.8125 81.683594 139.8125 L 218.117188 139.8125 C 221.457031 139.8125 224.171875 137.097656 224.171875 133.753906 L 224.171875 111.480469 C 224.171875 108.140625 221.457031 105.421875 218.117188 105.421875 Z M 96.929688 109.519531 C 104.144531 109.515625 110.011719 115.394531 110.011719 122.617188 C 110.011719 129.84375 104.144531 135.71875 96.929688 135.71875 C 89.714844 135.71875 83.84375 129.84375 83.84375 122.617188 C 83.84375 115.394531 89.714844 109.519531 96.929688 109.519531 Z M 96.929688 109.519531 " fill-opacity="1" fill-rule="evenodd"/><path fill="#1865c1" d="M 81.679688 105.421875 C 78.34375 105.421875 75.628906 108.140625 75.628906 111.480469 L 75.628906 133.753906 C 75.628906 137.097656 78.34375 139.8125 81.679688 139.8125 L 218.117188 139.8125 C 221.453125 139.8125 224.167969 137.097656 224.167969 133.753906 L 224.167969 111.480469 C 224.167969 108.140625 221.453125 105.421875 218.117188 105.421875 Z M 218.117188 146.371094 L 81.679688 146.371094 C 74.734375 146.371094 69.082031 140.710938 69.082031 133.753906 L 69.082031 111.480469 C 69.082031 104.523438 74.734375 98.867188 81.679688 98.867188 L 218.117188 98.867188 C 225.066406 98.867188 230.71875 104.527344 230.71875 111.480469 L 230.71875 133.753906 C 230.71875 140.710938 225.066406 146.371094 218.117188 146.371094 Z M 218.117188 146.371094 " fill-opacity="1" fill-rule="evenodd"/><path fill="#1865c1" d="M 81.679688 187.316406 C 74.734375 187.316406 69.082031 181.660156 69.082031 174.703125 L 69.082031 152.429688 C 69.082031 145.472656 74.734375 139.8125 81.679688 139.8125 L 81.679688 146.371094 C 78.34375 146.371094 75.628906 149.089844 75.628906 152.429688 L 75.628906 174.703125 C 75.628906 178.042969 78.34375 180.761719 81.679688 180.761719 Z M 218.117188 187.316406 L 218.117188 180.761719 C 221.453125 180.761719 224.167969 178.042969 224.167969 174.703125 L 224.167969 152.429688 C 224.167969 149.089844 221.453125 146.371094 218.117188 146.371094 L 218.117188 139.8125 C 225.066406 139.8125 230.71875 145.472656 230.71875 152.429688 L 230.71875 174.703125 C 230.71875 181.660156 225.066406 187.320312 218.117188 187.316406 Z M 218.117188 187.316406 " fill-opacity="1" fill-rule="evenodd"/><path fill="#1865c1" d="M 81.679688 187.316406 C 78.34375 187.316406 75.628906 190.035156 75.628906 193.375 L 75.628906 215.648438 C 75.628906 218.988281 78.34375 221.707031 81.679688 221.707031 L 218.117188 221.707031 C 221.453125 221.707031 224.167969 218.992188 224.167969 215.648438 L 224.167969 193.375 C 224.167969 190.035156 221.453125 187.320312 218.117188 187.320312 Z M 218.117188 228.265625 L 81.679688 228.265625 C 74.734375 228.265625 69.082031 222.605469 69.082031 215.648438 L 69.082031 193.375 C 69.082031 186.417969 74.734375 180.761719 81.679688 180.761719 L 218.117188 180.761719 C 225.066406 180.761719 230.71875 186.421875 230.71875 193.375 L 230.71875 215.648438 C 230.71875 222.605469 225.066406 228.265625 218.117188 228.265625 Z M 218.117188 228.265625 " fill-opacity="1" fill-rule="evenodd"/><path fill="#1865c1" d="M 149.898438 256.734375 C 139.84375 256.734375 131.664062 264.929688 131.664062 274.996094 C 131.664062 285.0625 139.84375 293.253906 149.898438 293.253906 C 159.953125 293.253906 168.132812 285.0625 168.132812 274.996094 C 168.132812 264.925781 159.953125 256.738281 149.898438 256.734375 Z M 149.898438 299.808594 C 136.234375 299.808594 125.117188 288.679688 125.117188 274.996094 C 125.117188 261.3125 136.234375 250.179688 149.898438 250.179688 C 163.566406 250.179688 174.683594 261.3125 174.683594 274.996094 C 174.683594 288.675781 163.566406 299.808594 149.898438 299.808594 Z M 149.898438 299.808594 " fill-opacity="1" fill-rule="evenodd"/><path fill="#1865c1" d="M 149.898438 256.734375 C 148.089844 256.734375 146.625 255.269531 146.625 253.457031 L 146.625 224.988281 C 146.625 223.175781 148.089844 221.707031 149.898438 221.707031 C 151.707031 221.707031 153.171875 223.175781 153.171875 224.988281 L 153.171875 253.457031 C 153.171875 255.265625 151.707031 256.734375 149.898438 256.734375 Z M 149.898438 256.734375 " fill-opacity="1" fill-rule="evenodd"/><path fill="#1865c1" d="M 128.390625 278.273438 L 84.597656 278.273438 C 82.789062 278.273438 81.324219 276.804688 81.324219 274.996094 C 81.324219 273.183594 82.789062 271.714844 84.597656 271.714844 L 128.390625 271.714844 C 130.199219 271.714844 131.664062 273.183594 131.664062 274.996094 C 131.664062 276.804688 130.199219 278.273438 128.390625 278.273438 Z M 215.199219 278.273438 L 171.410156 278.273438 C 169.601562 278.273438 168.132812 276.804688 168.132812 274.996094 C 168.132812 273.183594 169.601562 271.714844 171.410156 271.714844 L 215.199219 271.714844 C 217.007812 271.714844 218.476562 273.183594 218.476562 274.996094 C 218.476562 276.804688 217.007812 278.273438 215.199219 278.273438 Z M 215.199219 278.273438 " fill-opacity="1" fill-rule="evenodd"/><path fill="#1865c1" d="M 247.585938 167.511719 L 227.429688 167.511719 C 225.621094 167.511719 224.152344 166.046875 224.152344 164.234375 C 224.152344 162.425781 225.621094 160.957031 227.429688 160.957031 L 247.585938 160.957031 C 272.808594 160.957031 293.328125 140.410156 293.328125 115.15625 C 293.328125 89.902344 272.808594 69.359375 247.585938 69.359375 C 244.210938 69.359375 240.832031 69.730469 237.550781 70.464844 C 236.5625 70.6875 235.527344 70.4375 234.746094 69.792969 C 233.964844 69.144531 233.527344 68.171875 233.5625 67.15625 C 233.582031 66.542969 233.597656 65.933594 233.597656 65.316406 C 233.597656 34.152344 208.273438 8.796875 177.144531 8.796875 C 154.109375 8.796875 133.589844 22.59375 124.871094 43.949219 C 124.253906 45.46875 122.605469 46.296875 121.015625 45.878906 C 117.359375 44.925781 113.574219 44.445312 109.761719 44.445312 C 87.140625 44.445312 68.105469 61.386719 65.488281 83.851562 C 65.378906 84.777344 64.878906 85.617188 64.117188 86.152344 C 63.378906 86.671875 62.464844 86.863281 61.585938 86.683594 C 60.898438 86.863281 60.128906 86.828125 59.476562 86.5625 C 54.882812 84.699219 50.019531 83.757812 45.023438 83.757812 C 23.765625 83.753906 6.472656 101.070312 6.472656 122.355469 C 6.472656 143.640625 23.765625 160.957031 45.023438 160.957031 L 72.402344 160.957031 C 74.210938 160.957031 75.675781 162.425781 75.675781 164.234375 C 75.675781 166.046875 74.210938 167.511719 72.402344 167.511719 L 45.023438 167.511719 C 20.15625 167.511719 -0.078125 147.253906 -0.078125 122.355469 C -0.078125 97.453125 20.15625 77.199219 45.023438 77.199219 C 49.996094 77.199219 54.859375 78 59.515625 79.582031 C 64 55.578125 85.007812 37.886719 109.761719 37.886719 C 113.183594 37.886719 116.589844 38.230469 119.925781 38.902344 C 130.207031 16.539062 152.371094 2.238281 177.144531 2.238281 C 211.222656 2.238281 239.066406 29.464844 240.113281 63.335938 C 242.585938 62.980469 245.085938 62.800781 247.585938 62.800781 C 276.421875 62.800781 299.878906 86.289062 299.878906 115.15625 C 299.878906 144.023438 276.421875 167.511719 247.585938 167.511719 Z M 247.585938 167.511719 " fill-opacity="1" fill-rule="evenodd"/><path fill="#1865c1" d="M 96.925781 116.074219 C 93.324219 116.074219 90.390625 119.011719 90.390625 122.617188 C 90.390625 126.226562 93.324219 129.160156 96.925781 129.160156 C 100.53125 129.160156 103.460938 126.226562 103.460938 122.617188 C 103.460938 119.011719 100.53125 116.074219 96.925781 116.074219 Z M 96.925781 135.71875 C 89.710938 135.71875 83.84375 129.84375 83.84375 122.617188 C 83.84375 115.394531 89.710938 109.519531 96.925781 109.519531 C 104.140625 109.515625 110.011719 115.394531 110.011719 122.617188 C 110.011719 129.84375 104.140625 135.71875 96.925781 135.71875 Z M 96.925781 135.71875 " fill-opacity="1" fill-rule="evenodd"/><path fill="#1865c1" d="M 96.925781 157.023438 C 93.324219 157.023438 90.390625 159.957031 90.390625 163.566406 C 90.390625 167.171875 93.324219 170.109375 96.925781 170.109375 C 100.53125 170.109375 103.460938 167.175781 103.460938 163.566406 C 103.460938 159.957031 100.53125 157.023438 96.925781 157.023438 Z M 96.925781 176.664062 C 89.710938 176.664062 83.84375 170.789062 83.84375 163.566406 C 83.84375 156.339844 89.710938 150.464844 96.925781 150.464844 C 104.140625 150.464844 110.011719 156.34375 110.011719 163.566406 C 110.011719 170.789062 104.140625 176.667969 96.925781 176.664062 Z M 96.925781 176.664062 " fill-opacity="1" fill-rule="evenodd"/><path fill="#1865c1" d="M 96.925781 197.96875 C 93.324219 197.96875 90.390625 200.90625 90.390625 204.515625 C 90.390625 208.121094 93.324219 211.058594 96.925781 211.058594 C 100.53125 211.054688 103.460938 208.121094 103.460938 204.515625 C 103.460938 200.902344 100.53125 197.96875 96.925781 197.96875 Z M 96.925781 217.613281 C 89.710938 217.613281 83.84375 211.738281 83.84375 204.515625 C 83.84375 197.289062 89.710938 191.414062 96.925781 191.414062 C 104.140625 191.410156 110.011719 197.289062 110.011719 204.515625 C 110.011719 211.734375 104.140625 217.613281 96.925781 217.613281 Z M 96.925781 217.613281 " fill-opacity="1" fill-rule="evenodd"/><path fill="#83dbf2" d="M 81.679688 98.867188 L 218.117188 98.867188 C 225.066406 98.867188 230.71875 104.527344 230.71875 111.480469 L 230.71875 133.753906 C 230.71875 137.449219 229.121094 140.78125 226.582031 143.09375 C 229.121094 145.402344 230.71875 148.734375 230.71875 152.429688 L 230.71875 160.957031 L 247.585938 160.957031 C 272.808594 160.957031 293.328125 140.410156 293.328125 115.15625 C 293.328125 89.902344 272.808594 69.359375 247.585938 69.359375 C 244.207031 69.359375 240.832031 69.730469 237.550781 70.464844 C 236.5625 70.6875 235.523438 70.4375 234.742188 69.792969 C 233.964844 69.144531 233.527344 68.171875 233.5625 67.15625 C 233.582031 66.542969 233.59375 65.933594 233.59375 65.316406 C 233.59375 34.152344 208.273438 8.796875 177.144531 8.796875 C 154.109375 8.796875 133.589844 22.59375 124.871094 43.949219 C 124.25 45.46875 122.605469 46.296875 121.015625 45.878906 C 117.359375 44.925781 113.574219 44.445312 109.761719 44.445312 C 87.140625 44.445312 68.105469 61.386719 65.488281 83.851562 C 65.378906 84.777344 64.878906 85.617188 64.113281 86.152344 C 63.378906 86.671875 62.460938 86.863281 61.582031 86.683594 C 60.898438 86.863281 60.128906 86.828125 59.472656 86.5625 C 54.878906 84.699219 50.019531 83.757812 45.023438 83.757812 C 23.765625 83.753906 6.46875 101.070312 6.46875 122.355469 C 6.46875 143.640625 23.765625 160.957031 45.023438 160.957031 L 69.082031 160.957031 L 69.082031 152.429688 C 69.082031 148.730469 70.675781 145.402344 73.214844 143.09375 C 70.675781 140.78125 69.082031 137.453125 69.082031 133.753906 L 69.082031 111.480469 C 69.082031 104.523438 74.734375 98.867188 81.679688 98.867188 Z M 81.679688 98.867188 " fill-opacity="1" fill-rule="evenodd"/><path fill="#83dbf2" d="M 96.925781 129.160156 C 100.53125 129.160156 103.460938 126.226562 103.460938 122.617188 C 103.460938 119.011719 100.53125 116.074219 96.925781 116.074219 C 93.324219 116.074219 90.390625 119.011719 90.390625 122.617188 C 90.390625 126.226562 93.324219 129.160156 96.925781 129.160156 Z M 96.925781 129.160156 " fill-opacity="1" fill-rule="evenodd"/><path fill="#83dbf2" d="M 103.460938 163.566406 C 103.460938 159.957031 100.53125 157.023438 96.925781 157.023438 C 93.324219 157.023438 90.390625 159.957031 90.390625 163.566406 C 90.390625 167.171875 93.324219 170.109375 96.925781 170.109375 C 100.53125 170.109375 103.460938 167.175781 103.460938 163.566406 Z M 103.460938 163.566406 " fill-opacity="1" fill-rule="evenodd"/><path fill="#83dbf2" d="M 103.460938 204.515625 C 103.460938 200.90625 100.53125 197.972656 96.925781 197.96875 C 93.324219 197.96875 90.390625 200.90625 90.390625 204.515625 C 90.390625 208.121094 93.324219 211.058594 96.925781 211.058594 C 100.53125 211.058594 103.460938 208.121094 103.460938 204.515625 Z M 103.460938 204.515625 " fill-opacity="1" fill-rule="evenodd"/><path fill="#e7e7e8" d="M 218.117188 146.371094 L 81.683594 146.371094 C 78.34375 146.371094 75.628906 149.089844 75.628906 152.429688 L 75.628906 163.683594 C 75.660156 163.863281 75.675781 164.046875 75.675781 164.234375 C 75.675781 164.421875 75.660156 164.605469 75.628906 164.785156 L 75.628906 174.703125 C 75.628906 178.042969 78.34375 180.761719 81.683594 180.761719 L 218.117188 180.761719 C 221.457031 180.761719 224.171875 178.042969 224.171875 174.703125 L 224.171875 164.5625 C 224.160156 164.457031 224.152344 164.347656 224.152344 164.234375 C 224.152344 164.125 224.160156 164.015625 224.171875 163.90625 L 224.171875 152.429688 C 224.171875 149.089844 221.457031 146.371094 218.117188 146.371094 Z M 96.929688 150.464844 C 104.144531 150.464844 110.011719 156.34375 110.011719 163.566406 C 110.011719 170.789062 104.144531 176.667969 96.929688 176.664062 C 89.714844 176.664062 83.84375 170.789062 83.84375 163.566406 C 83.84375 156.339844 89.714844 150.464844 96.929688 150.464844 Z M 96.929688 150.464844 " fill-opacity="1" fill-rule="evenodd"/><path fill="#e7e7e8" d="M 218.117188 187.320312 L 81.683594 187.320312 C 78.34375 187.320312 75.628906 190.039062 75.628906 193.378906 L 75.628906 215.648438 C 75.628906 218.992188 78.34375 221.710938 81.683594 221.710938 L 218.117188 221.710938 C 221.457031 221.710938 224.171875 218.992188 224.171875 215.652344 L 224.171875 193.375 C 224.171875 190.035156 221.457031 187.320312 218.117188 187.320312 Z M 96.929688 191.414062 C 104.144531 191.410156 110.011719 197.289062 110.011719 204.515625 C 110.011719 211.738281 104.144531 217.613281 96.929688 217.613281 C 89.714844 217.613281 83.84375 211.738281 83.84375 204.515625 C 83.84375 197.289062 89.714844 191.414062 96.929688 191.414062 Z M 96.929688 191.414062 " fill-opacity="1" fill-rule="evenodd"/><path fill="#e7e7e8" d="M 149.804688 256.734375 C 139.792969 256.785156 131.664062 264.960938 131.664062 274.996094 C 131.664062 285.0625 139.84375 293.253906 149.898438 293.253906 C 159.953125 293.253906 168.132812 285.0625 168.132812 274.996094 C 168.132812 264.957031 160.003906 256.789062 149.992188 256.734375 C 149.960938 256.738281 149.929688 256.738281 149.898438 256.734375 C 149.867188 256.734375 149.835938 256.734375 149.804688 256.734375 Z M 149.804688 256.734375 " fill-opacity="1" fill-rule="evenodd"/></svg>