<svg xmlns="http://www.w3.org/2000/svg" xmlns:xlink="http://www.w3.org/1999/xlink" width="400" zoomAndPan="magnify" viewBox="0 0 300 299.999988" height="400" preserveAspectRatio="xMidYMid meet" version="1.0"><path fill="#6fceae" d="M 220.808594 25.257812 C 199.296875 19.679688 177.253906 22.660156 157.324219 32.292969 C 141.652344 39.890625 127.277344 51.613281 115.527344 66.523438 C 107.550781 76.59375 100.796875 88.113281 95.648438 100.832031 C 93.152344 106.898438 91.0625 113.21875 89.355469 119.769531 C 88.03125 124.894531 86.984375 130.015625 86.21875 135.113281 C 82.523438 159.457031 85.148438 183.160156 92.871094 203.675781 C 97.6875 216.574219 104.542969 228.199219 113.109375 237.960938 C 125.085938 251.59375 140.402344 261.585938 158.292969 266.226562 C 213.648438 280.550781 272.492188 238.238281 289.746094 171.691406 C 307 105.164062 276.136719 39.585938 220.808594 25.257812 Z M 220.808594 25.257812 " fill-opacity="1" fill-rule="nonzero"/><path fill="#e15c63" d="M 222.644531 143.578125 L 173.636719 176.40625 L 199.859375 145.078125 L 164.691406 113.371094 Z M 222.644531 143.578125 " fill-opacity="1" fill-rule="nonzero"/><path fill="#20bab6" d="M 220.808594 25.257812 C 199.296875 19.679688 177.253906 22.660156 157.324219 32.292969 C 141.652344 39.890625 127.277344 51.613281 115.527344 66.523438 C 107.550781 76.59375 100.796875 88.113281 95.648438 100.832031 C 93.152344 106.898438 91.0625 113.21875 89.355469 119.769531 C 88.03125 124.894531 86.984375 130.015625 86.21875 135.113281 C 82.523438 159.457031 85.148438 183.160156 92.871094 203.675781 C 97.6875 216.574219 104.542969 228.199219 113.109375 237.960938 C 125.085938 251.59375 140.402344 261.585938 158.292969 266.226562 C 213.648438 280.550781 272.492188 238.238281 289.746094 171.691406 C 307 105.164062 276.136719 39.585938 220.808594 25.257812 Z M 269.050781 166.335938 C 254.601562 222.054688 207.277344 258.019531 163.363281 246.652344 C 141.828125 241.042969 125.085938 225.085938 115.375 203.675781 C 110.660156 193.328125 107.601562 181.730469 106.40625 169.394531 C 105.335938 158.410156 105.769531 146.863281 107.882812 135.113281 C 108.46875 131.800781 109.183594 128.460938 110.050781 125.121094 C 112.292969 116.53125 115.300781 108.375 118.96875 100.832031 C 125.46875 87.375 134.03125 75.753906 143.917969 66.523438 C 164.460938 47.257812 190.660156 38.335938 215.710938 44.835938 C 259.621094 56.203125 283.5 110.59375 269.050781 166.335938 Z M 269.050781 166.335938 " fill-opacity="1" fill-rule="nonzero"/><path fill="#53b79a" d="M 272.085938 150.789062 C 271.421875 155.9375 270.402344 161.136719 269.050781 166.335938 C 254.601562 222.054688 207.277344 258.019531 163.363281 246.652344 C 153.628906 244.128906 144.886719 239.464844 137.34375 233.167969 C 216.273438 242.828125 254.167969 193.761719 272.085938 150.789062 Z M 272.085938 150.789062 " fill-opacity="1" fill-rule="nonzero"/><path fill="#21aaa3" d="M 287.578125 91.582031 C 295.734375 115.566406 297.035156 143.550781 289.746094 171.691406 C 272.492188 238.238281 213.648438 280.550781 158.292969 266.226562 C 140.402344 261.585938 125.085938 251.59375 113.109375 237.960938 C 109.894531 234.289062 106.914062 230.363281 104.214844 226.234375 C 115.988281 229.648438 127.023438 231.917969 137.34375 233.167969 C 144.886719 239.464844 153.628906 244.128906 163.363281 246.652344 C 207.277344 258.019531 254.601562 222.054688 269.050781 166.335938 C 270.402344 161.136719 271.421875 155.9375 272.085938 150.789062 C 285.109375 119.59375 287.578125 91.582031 287.578125 91.582031 Z M 287.578125 91.582031 " fill-opacity="1" fill-rule="nonzero"/><path fill="#e15c63" d="M 177.941406 63.976562 L -21.480469 63.976562 C -22.890625 63.976562 -24.027344 65.117188 -24.027344 66.523438 C -24.027344 67.933594 -22.890625 69.074219 -21.480469 69.074219 L 177.941406 69.074219 C 179.351562 69.074219 180.492188 67.933594 180.492188 66.523438 C 180.492188 65.117188 179.351562 63.976562 177.941406 63.976562 Z M 177.941406 63.976562 " fill-opacity="1" fill-rule="nonzero"/><path fill="#e15c63" d="M 144.199219 132.566406 L -21.480469 132.566406 C -22.890625 132.566406 -24.027344 133.707031 -24.027344 135.113281 C -24.027344 136.519531 -22.890625 137.664062 -21.480469 137.664062 L 144.199219 137.664062 C 145.609375 137.664062 146.75 136.519531 146.75 135.113281 C 146.75 133.707031 145.609375 132.566406 144.199219 132.566406 Z M 144.199219 132.566406 " fill-opacity="1" fill-rule="nonzero"/><path fill="#e58e1a" d="M 142.925781 166.847656 L 97.027344 166.847656 C 95.617188 166.847656 94.476562 167.988281 94.476562 169.394531 C 94.476562 170.804688 95.617188 171.945312 97.027344 171.945312 L 142.925781 171.945312 C 144.335938 171.945312 145.472656 170.804688 145.472656 169.394531 C 145.472656 167.988281 144.335938 166.847656 142.925781 166.847656 Z M 142.925781 166.847656 " fill-opacity="1" fill-rule="nonzero"/><path fill="#ffc05a" d="M 74.523438 171.945312 C 75.933594 171.945312 77.070312 170.804688 77.070312 169.394531 C 77.070312 167.988281 75.933594 166.847656 74.523438 166.847656 L 23.707031 166.847656 C 22.296875 166.847656 21.15625 167.988281 21.15625 169.394531 C 21.15625 170.804688 22.296875 171.945312 23.707031 171.945312 Z M 74.523438 171.945312 " fill-opacity="1" fill-rule="nonzero"/><path fill="#b72e4f" d="M 178.859375 29.746094 L 119.605469 29.746094 C 118.195312 29.746094 117.058594 30.886719 117.058594 32.292969 C 117.058594 33.703125 118.195312 34.84375 119.605469 34.84375 L 178.859375 34.84375 C 180.269531 34.84375 181.40625 33.703125 181.40625 32.292969 C 181.40625 30.886719 180.269531 29.746094 178.859375 29.746094 Z M 178.859375 29.746094 " fill-opacity="1" fill-rule="nonzero"/><path fill="#ffc05a" d="M 23.707031 34.84375 L 89.839844 34.84375 C 91.25 34.84375 92.386719 33.703125 92.386719 32.292969 C 92.386719 30.886719 91.25 29.746094 89.839844 29.746094 L 23.707031 29.746094 C 22.296875 29.746094 21.15625 30.886719 21.15625 32.292969 C 21.15625 33.703125 22.296875 34.84375 23.707031 34.84375 Z M 23.707031 34.84375 " fill-opacity="1" fill-rule="nonzero"/><path fill="#ffc05a" d="M -24.027344 203.675781 C -24.027344 205.085938 -22.890625 206.226562 -21.480469 206.226562 L 125.339844 206.226562 C 126.75 206.226562 127.890625 205.085938 127.890625 203.675781 C 127.890625 202.269531 126.75 201.128906 125.339844 201.128906 L -21.480469 201.128906 C -22.890625 201.128906 -24.027344 202.269531 -24.027344 203.675781 Z M -24.027344 203.675781 " fill-opacity="1" fill-rule="nonzero"/><path fill="#d14b62" d="M -21.480469 240.507812 L 113.109375 240.507812 C 114.515625 240.507812 115.65625 239.367188 115.65625 237.960938 C 115.65625 236.550781 114.515625 235.410156 113.109375 235.410156 L -21.480469 235.410156 C -22.890625 235.410156 -24.027344 236.550781 -24.027344 237.960938 C -24.027344 239.367188 -22.890625 240.507812 -21.480469 240.507812 Z M -21.480469 240.507812 " fill-opacity="1" fill-rule="nonzero"/><path fill="#f9b132" d="M 136.65625 269.691406 L -21.480469 269.691406 C -22.890625 269.691406 -24.027344 270.835938 -24.027344 272.242188 C -24.027344 273.648438 -22.890625 274.789062 -21.480469 274.789062 L 136.65625 274.789062 C 138.066406 274.789062 139.203125 273.648438 139.203125 272.242188 C 139.203125 270.835938 138.066406 269.691406 136.65625 269.691406 Z M 136.65625 269.691406 " fill-opacity="1" fill-rule="nonzero"/><path fill="#ffc05a" d="M 155.054688 98.285156 L 80.179688 98.285156 C 78.769531 98.285156 77.632812 99.425781 77.632812 100.832031 C 77.632812 102.238281 78.769531 103.382812 80.179688 103.382812 L 155.054688 103.382812 C 156.464844 103.382812 157.605469 102.238281 157.605469 100.832031 C 157.605469 99.425781 156.464844 98.285156 155.054688 98.285156 Z M 155.054688 98.285156 " fill-opacity="1" fill-rule="nonzero"/></svg>