<svg xmlns="http://www.w3.org/2000/svg" xmlns:xlink="http://www.w3.org/1999/xlink" width="400" zoomAndPan="magnify" viewBox="0 0 300 299.999988" height="400" preserveAspectRatio="xMidYMid meet" version="1.0"><defs><clipPath id="5c7af8a326"><path d="M 0 15 L 295.9375 15 L 295.9375 288.808594 L 0 288.808594 Z M 0 15 " clip-rule="nonzero"/></clipPath><clipPath id="5fbace6970"><path d="M 24.765625 15 L 293.394531 15 L 293.394531 288.808594 L 24.765625 288.808594 Z M 24.765625 15 " clip-rule="nonzero"/></clipPath><clipPath id="eb1b29c9fe"><path d="M 0 11.4375 L 288 11.4375 L 288 280 L 0 280 Z M 0 11.4375 " clip-rule="nonzero"/></clipPath><clipPath id="0a33b09dbd"><path d="M 21.59375 15.375 L 295.9375 15.375 L 295.9375 288.808594 L 21.59375 288.808594 Z M 21.59375 15.375 " clip-rule="nonzero"/></clipPath><clipPath id="7c5d8aa67a"><path d="M 55.25 84.6875 L 299.992188 84.6875 L 299.992188 280.550781 L 55.25 280.550781 Z M 55.25 84.6875 " clip-rule="nonzero"/></clipPath></defs><g clip-path="url(#5c7af8a326)"><path fill="#f6836b" d="M 261.578125 229.046875 L 250.570312 212.46875 L 246.320312 212.46875 C 242.011719 218.226562 237.464844 223.773438 232.71875 229.046875 Z M 44.664062 42.585938 C 44.664062 42.839844 44.683594 43.089844 44.71875 43.335938 C 47.453125 41.472656 50.285156 39.710938 53.203125 38.042969 C 52.328125 37.449219 51.273438 37.101562 50.136719 37.101562 C 47.117188 37.101562 44.664062 39.5625 44.664062 42.585938 Z M 295.804688 238.953125 L 283.039062 238.953125 L 288.820312 288.808594 L 279.546875 288.808594 L 273.761719 238.953125 L 241.070312 238.953125 L 235.289062 288.808594 L 226.015625 288.808594 L 231.796875 238.953125 L 223.238281 238.953125 C 198.511719 263.203125 169.566406 279.542969 141.195312 279.542969 C 128.515625 279.542969 115.953125 277.070312 103.851562 272.613281 L 105.730469 288.808594 L 96.457031 288.808594 L 94.105469 268.550781 C 81.027344 262.464844 68.632812 254.09375 57.386719 244.085938 L 52.199219 288.808594 L 42.929688 288.808594 L 48.707031 238.953125 L 36.644531 238.953125 L 36.644531 229.046875 L 42.425781 229.046875 C 16.746094 199.960938 0 162.167969 0 126.320312 C 0 92.890625 14.5625 66.992188 37.355469 48.773438 C 36.960938 47.957031 36.640625 47.109375 36.410156 46.234375 L 32.242188 45.3125 L 32.242188 39.859375 L 36.410156 38.941406 C 36.738281 37.710938 37.21875 36.539062 37.855469 35.445312 L 35.554688 31.84375 L 39.410156 27.984375 L 43.007812 30.289062 C 44.101562 29.648438 45.269531 29.164062 46.496094 28.84375 L 47.414062 24.664062 L 52.863281 24.664062 L 53.777344 28.84375 C 55.003906 29.164062 56.175781 29.648438 57.269531 30.289062 L 60.867188 27.984375 L 64.71875 31.84375 L 64.4375 32.28125 C 66.507812 31.332031 68.617188 30.425781 70.75 29.5625 L 70.75 24.664062 L 84.671875 24.664062 C 95.875 21.277344 107.695312 18.949219 119.8125 17.699219 C 119.800781 17.59375 119.78125 17.492188 119.78125 17.382812 C 119.78125 16.117188 120.8125 15.085938 122.078125 15.085938 C 123.308594 15.085938 124.304688 16.058594 124.363281 17.277344 C 129.929688 16.828125 135.550781 16.601562 141.195312 16.601562 C 213.707031 16.601562 289.972656 27.574219 289.972656 100.183594 C 289.972656 133.695312 273.722656 174.480469 249.097656 208.6875 L 268.34375 208.6875 L 281.863281 229.046875 L 295.804688 229.046875 Z M 33.820312 19.683594 C 35.085938 19.683594 36.113281 18.652344 36.113281 17.382812 C 36.113281 16.117188 35.085938 15.085938 33.820312 15.085938 C 32.550781 15.085938 31.523438 16.117188 31.523438 17.382812 C 31.523438 18.652344 32.550781 19.683594 33.820312 19.683594 Z M 210.058594 17.382812 C 210.058594 16.117188 211.089844 15.085938 212.355469 15.085938 C 213.621094 15.085938 214.652344 16.117188 214.652344 17.382812 C 214.652344 18.652344 213.621094 19.683594 212.355469 19.683594 C 211.089844 19.683594 210.058594 18.652344 210.058594 17.382812 " fill-opacity="1" fill-rule="nonzero"/></g><g clip-path="url(#5fbace6970)"><path fill="#5ec9cc" d="M 206.0625 19.046875 C 206.980469 19.046875 207.726562 18.300781 207.726562 17.382812 C 207.726562 16.464844 206.980469 15.722656 206.0625 15.722656 C 205.144531 15.722656 204.402344 16.464844 204.402344 17.382812 C 204.402344 18.300781 205.144531 19.046875 206.0625 19.046875 Z M 243.648438 68.835938 L 251.382812 68.835938 L 251.382812 66.929688 L 243.648438 66.929688 Z M 240.644531 43.09375 L 230.105469 36.789062 L 230.105469 49.398438 Z M 266.984375 60.507812 L 203.769531 60.507812 L 203.769531 27.441406 L 266.984375 27.441406 Z M 254.75 64.808594 L 249.363281 64.808594 L 249.363281 66.714844 L 254.75 66.714844 Z M 243.648438 64.808594 L 243.648438 66.714844 L 249.035156 66.714844 L 249.035156 64.808594 Z M 254.75 62.691406 L 243.648438 62.691406 L 243.648438 64.597656 L 254.75 64.597656 Z M 76.992188 68.945312 L 70.527344 68.945312 L 70.527344 69.582031 L 76.992188 69.582031 Z M 80.355469 67.460938 L 80.355469 66.824219 L 76.242188 66.824219 L 76.242188 67.460938 Z M 74.640625 66.824219 L 70.527344 66.824219 L 70.527344 67.460938 L 74.640625 67.460938 Z M 80.355469 64.703125 L 70.527344 64.703125 L 70.527344 65.339844 L 80.355469 65.339844 Z M 36.445312 68.945312 L 29.980469 68.945312 L 29.980469 69.582031 L 36.445312 69.582031 Z M 39.808594 67.460938 L 39.808594 66.824219 L 35.695312 66.824219 L 35.695312 67.460938 Z M 34.09375 66.824219 L 29.980469 66.824219 L 29.980469 67.460938 L 34.09375 67.460938 Z M 39.808594 64.703125 L 29.980469 64.703125 L 29.980469 65.339844 L 39.808594 65.339844 Z M 82.691406 49.199219 L 71.386719 49.199219 L 71.386719 53.160156 L 82.691406 53.160156 Z M 82.691406 31.914062 L 71.386719 31.914062 L 71.386719 35.875 L 82.691406 35.875 Z M 27.527344 19.046875 C 28.445312 19.046875 29.1875 18.300781 29.1875 17.382812 C 29.1875 16.464844 28.445312 15.722656 27.527344 15.722656 C 26.609375 15.722656 25.867188 16.464844 25.867188 17.382812 C 25.867188 18.300781 26.609375 19.046875 27.527344 19.046875 Z M 40.679688 42.585938 C 40.679688 47.808594 44.921875 52.054688 50.136719 52.054688 C 55.355469 52.054688 59.597656 47.808594 59.597656 42.585938 C 59.597656 37.363281 55.355469 33.113281 50.136719 33.113281 C 44.921875 33.113281 40.679688 37.363281 40.679688 42.585938 Z M 40.046875 42.585938 C 40.046875 37.011719 44.574219 32.480469 50.136719 32.480469 C 55.703125 32.480469 60.230469 37.011719 60.230469 42.585938 C 60.230469 48.15625 55.703125 52.691406 50.136719 52.691406 C 44.574219 52.691406 40.046875 48.15625 40.046875 42.585938 Z M 160.546875 99.636719 C 160.027344 99.636719 159.554688 100.058594 159.492188 100.578125 C 159.421875 101.097656 159.792969 101.519531 160.3125 101.519531 C 160.832031 101.519531 161.304688 101.097656 161.367188 100.578125 C 161.433594 100.058594 161.066406 99.636719 160.546875 99.636719 Z M 187.503906 99.941406 L 178.046875 99.941406 C 177.699219 99.941406 177.414062 100.226562 177.414062 100.578125 C 177.414062 100.929688 177.699219 101.210938 178.046875 101.210938 L 187.503906 101.210938 C 187.855469 101.210938 188.140625 100.929688 188.140625 100.578125 C 188.140625 100.226562 187.855469 99.941406 187.503906 99.941406 Z M 115.785156 19.683594 C 117.050781 19.683594 118.082031 18.652344 118.082031 17.382812 C 118.082031 16.117188 117.050781 15.085938 115.785156 15.085938 C 114.519531 15.085938 113.492188 16.117188 113.492188 17.382812 C 113.492188 18.652344 114.519531 19.683594 115.785156 19.683594 Z M 132.914062 62.457031 C 132.914062 63.460938 133.730469 64.28125 134.730469 64.28125 L 148.484375 64.28125 C 149.484375 64.28125 150.300781 63.460938 150.300781 62.457031 C 150.300781 61.457031 149.484375 60.640625 148.484375 60.640625 L 134.730469 60.640625 C 133.730469 60.640625 132.914062 61.457031 132.914062 62.457031 Z M 120.335938 53.214844 L 134.089844 53.214844 C 135.09375 53.214844 135.910156 52.398438 135.910156 51.390625 C 135.910156 50.390625 135.09375 49.574219 134.089844 49.574219 L 120.335938 49.574219 C 119.332031 49.574219 118.515625 50.390625 118.515625 51.390625 C 118.515625 52.398438 119.332031 53.214844 120.335938 53.214844 Z M 120.335938 42.148438 L 144.167969 42.148438 C 145.167969 42.148438 145.984375 41.328125 145.984375 40.324219 C 145.984375 39.324219 145.167969 38.507812 144.167969 38.507812 L 120.335938 38.507812 C 119.332031 38.507812 118.515625 39.324219 118.515625 40.324219 C 118.515625 41.328125 119.332031 42.148438 120.335938 42.148438 Z M 148.761719 53.214844 L 153.625 53.214844 C 154.628906 53.214844 155.441406 52.398438 155.441406 51.390625 C 155.441406 50.390625 154.628906 49.574219 153.625 49.574219 L 148.761719 49.574219 C 147.757812 49.574219 146.941406 50.390625 146.941406 51.390625 C 146.941406 52.398438 147.757812 53.214844 148.761719 53.214844 Z M 143.804688 53.214844 C 144.804688 53.214844 145.621094 52.398438 145.621094 51.390625 C 145.621094 50.390625 144.804688 49.574219 143.804688 49.574219 L 138.941406 49.574219 C 137.9375 49.574219 137.121094 50.390625 137.121094 51.390625 C 137.121094 52.398438 137.9375 53.214844 138.941406 53.214844 Z M 120.335938 36.613281 L 125.199219 36.613281 C 126.203125 36.613281 127.019531 35.796875 127.019531 34.792969 C 127.019531 33.789062 126.203125 32.972656 125.199219 32.972656 L 120.335938 32.972656 C 119.332031 32.972656 118.515625 33.789062 118.515625 34.792969 C 118.515625 35.796875 119.332031 36.613281 120.335938 36.613281 Z M 120.335938 31.082031 L 136.714844 31.082031 C 137.71875 31.082031 138.535156 30.265625 138.535156 29.261719 C 138.535156 28.257812 137.71875 27.441406 136.714844 27.441406 L 120.335938 27.441406 C 119.332031 27.441406 118.515625 28.257812 118.515625 29.261719 C 118.515625 30.265625 119.332031 31.082031 120.335938 31.082031 Z M 155.710938 271.550781 L 40.121094 271.550781 C 35.363281 271.550781 31.503906 275.414062 31.503906 280.179688 C 31.503906 284.945312 35.363281 288.808594 40.121094 288.808594 L 155.710938 288.808594 C 160.46875 288.808594 164.328125 284.945312 164.328125 280.179688 C 164.328125 275.414062 160.46875 271.550781 155.710938 271.550781 Z M 289.0625 91.253906 C 289.0625 90.902344 288.777344 90.617188 288.429688 90.617188 L 257.203125 90.617188 C 256.851562 90.617188 256.570312 90.902344 256.570312 91.253906 C 256.570312 91.605469 256.851562 91.890625 257.203125 91.890625 L 288.429688 91.890625 C 288.777344 91.890625 289.0625 91.605469 289.0625 91.253906 Z M 274.394531 101.210938 L 279.746094 101.210938 C 280.097656 101.210938 280.382812 100.929688 280.382812 100.578125 C 280.382812 100.226562 280.097656 99.941406 279.746094 99.941406 L 274.394531 99.941406 C 274.042969 99.941406 273.757812 100.226562 273.757812 100.578125 C 273.757812 100.929688 274.042969 101.210938 274.394531 101.210938 Z M 286.984375 104.730469 C 286.984375 104.382812 286.699219 104.097656 286.347656 104.097656 L 273.871094 104.097656 C 273.523438 104.097656 273.238281 104.382812 273.238281 104.730469 C 273.238281 105.082031 273.523438 105.367188 273.871094 105.367188 L 286.347656 105.367188 C 286.699219 105.367188 286.984375 105.082031 286.984375 104.730469 Z M 273.351562 109.523438 L 279.757812 109.523438 C 280.109375 109.523438 280.390625 109.238281 280.390625 108.886719 C 280.390625 108.535156 280.109375 108.25 279.757812 108.25 L 273.351562 108.25 C 273 108.25 272.714844 108.535156 272.714844 108.886719 C 272.714844 109.238281 273 109.523438 273.351562 109.523438 Z M 269.597656 136.035156 C 269.246094 136.035156 268.964844 136.316406 268.964844 136.667969 C 268.964844 137.019531 269.246094 137.304688 269.597656 137.304688 L 274.949219 137.304688 C 275.296875 137.304688 275.585938 137.019531 275.585938 136.667969 C 275.585938 136.316406 275.296875 136.035156 274.949219 136.035156 Z M 282.183594 140.824219 C 282.183594 140.472656 281.898438 140.1875 281.550781 140.1875 L 269.074219 140.1875 C 268.726562 140.1875 268.441406 140.472656 268.441406 140.824219 C 268.441406 141.175781 268.726562 141.457031 269.074219 141.457031 L 281.550781 141.457031 C 281.898438 141.457031 282.183594 141.175781 282.183594 140.824219 Z M 275.59375 144.976562 C 275.59375 144.625 275.3125 144.34375 274.957031 144.34375 L 268.554688 144.34375 C 268.203125 144.34375 267.917969 144.625 267.917969 144.976562 C 267.917969 145.328125 268.203125 145.613281 268.554688 145.613281 L 274.957031 145.613281 C 275.3125 145.613281 275.59375 145.328125 275.59375 144.976562 Z M 261.925781 105.210938 C 261.925781 104.859375 261.644531 104.574219 261.289062 104.574219 L 250.589844 104.574219 C 250.238281 104.574219 249.957031 104.859375 249.957031 105.210938 C 249.957031 105.5625 250.238281 105.847656 250.589844 105.847656 L 261.289062 105.847656 C 261.644531 105.847656 261.925781 105.5625 261.925781 105.210938 Z M 256.566406 113.523438 C 256.566406 113.171875 256.285156 112.886719 255.933594 112.886719 L 246.582031 112.886719 C 246.234375 112.886719 245.949219 113.171875 245.949219 113.523438 C 245.949219 113.875 246.234375 114.160156 246.582031 114.160156 L 255.933594 114.160156 C 256.285156 114.160156 256.566406 113.875 256.566406 113.523438 Z M 254.332031 165.710938 C 254.332031 165.363281 254.050781 165.078125 253.695312 165.078125 L 236.863281 165.078125 C 236.511719 165.078125 236.226562 165.363281 236.226562 165.710938 C 236.226562 166.0625 236.511719 166.347656 236.863281 166.347656 L 253.695312 166.347656 C 254.050781 166.347656 254.332031 166.0625 254.332031 165.710938 Z M 206.574219 95.945312 L 160.144531 95.945312 C 158.390625 95.945312 156.789062 97.367188 156.566406 99.125 L 155.804688 105.210938 L 208.585938 105.210938 L 209.351562 99.125 C 209.570312 97.367188 208.328125 95.945312 206.574219 95.945312 Z M 201.253906 143.75 C 201.253906 143.394531 200.96875 143.113281 200.617188 143.113281 L 194.953125 143.113281 C 194.601562 143.113281 194.316406 143.394531 194.316406 143.75 C 194.316406 144.097656 194.601562 144.382812 194.953125 144.382812 L 200.617188 144.382812 C 200.96875 144.382812 201.253906 144.097656 201.253906 143.75 Z M 187.585938 146.800781 C 187.585938 146.449219 187.300781 146.164062 186.953125 146.164062 L 181.644531 146.164062 C 181.296875 146.164062 181.011719 146.449219 181.011719 146.800781 C 181.011719 147.152344 181.296875 147.4375 181.644531 147.4375 L 186.953125 147.4375 C 187.300781 147.4375 187.585938 147.152344 187.585938 146.800781 Z M 176.605469 143.75 C 176.605469 143.394531 176.320312 143.113281 175.96875 143.113281 L 170.304688 143.113281 C 169.953125 143.113281 169.667969 143.394531 169.667969 143.75 C 169.667969 144.097656 169.953125 144.382812 170.304688 144.382812 L 175.96875 144.382812 C 176.320312 144.382812 176.605469 144.097656 176.605469 143.75 Z M 161.175781 168.324219 L 156.335938 168.324219 C 155.671875 168.324219 155.0625 168.863281 154.976562 169.53125 C 154.894531 170.199219 155.367188 170.742188 156.035156 170.742188 L 160.871094 170.742188 C 161.539062 170.742188 162.148438 170.199219 162.230469 169.53125 C 162.3125 168.863281 161.84375 168.324219 161.175781 168.324219 Z M 156.207031 160.042969 C 156.726562 160.042969 157.199219 159.621094 157.265625 159.101562 C 157.328125 158.582031 156.960938 158.160156 156.445312 158.160156 C 155.925781 158.160156 155.453125 158.582031 155.386719 159.101562 C 155.320312 159.621094 155.691406 160.042969 156.207031 160.042969 Z M 155.652344 146.800781 C 155.652344 147.152344 155.9375 147.4375 156.289062 147.4375 L 160.183594 147.4375 C 160.535156 147.4375 160.820312 147.152344 160.820312 146.800781 C 160.820312 146.449219 160.535156 146.164062 160.183594 146.164062 L 156.289062 146.164062 C 155.9375 146.164062 155.652344 146.449219 155.652344 146.800781 Z M 180.585938 113.523438 C 180.585938 113.171875 180.304688 112.886719 179.953125 112.886719 L 167.957031 112.886719 C 167.605469 112.886719 167.320312 113.171875 167.320312 113.523438 C 167.320312 113.875 167.605469 114.160156 167.957031 114.160156 L 179.953125 114.160156 C 180.304688 114.160156 180.585938 113.875 180.585938 113.523438 Z M 221.222656 182.332031 C 221.222656 182.683594 221.503906 182.96875 221.859375 182.96875 L 246.140625 182.96875 C 246.492188 182.96875 246.777344 182.683594 246.777344 182.332031 C 246.777344 181.980469 246.492188 181.695312 246.140625 181.695312 L 221.859375 181.695312 C 221.503906 181.695312 221.222656 181.980469 221.222656 182.332031 Z M 226.730469 138.449219 C 226.730469 138.800781 227.015625 139.085938 227.363281 139.085938 L 233.769531 139.085938 C 234.121094 139.085938 234.40625 138.800781 234.40625 138.449219 C 234.40625 138.097656 234.121094 137.816406 233.769531 137.816406 L 227.363281 137.816406 C 227.015625 137.816406 226.730469 138.097656 226.730469 138.449219 Z M 228.816406 121.832031 C 228.816406 122.183594 229.101562 122.46875 229.449219 122.46875 L 237.167969 122.46875 C 237.519531 122.46875 237.804688 122.183594 237.804688 121.832031 C 237.804688 121.480469 237.519531 121.195312 237.167969 121.195312 L 229.449219 121.195312 C 229.101562 121.195312 228.816406 121.480469 228.816406 121.832031 Z M 230.378906 109.367188 C 230.378906 109.71875 230.664062 110.003906 231.011719 110.003906 L 236.363281 110.003906 C 236.714844 110.003906 237 109.71875 237 109.367188 C 237 109.015625 236.714844 108.730469 236.363281 108.730469 L 231.011719 108.730469 C 230.664062 108.730469 230.378906 109.015625 230.378906 109.367188 Z M 251.644531 121.832031 C 251.644531 121.480469 251.359375 121.195312 251.007812 121.195312 L 239.945312 121.195312 C 239.59375 121.195312 239.308594 121.480469 239.308594 121.832031 C 239.308594 122.183594 239.59375 122.46875 239.945312 122.46875 L 251.007812 122.46875 C 251.359375 122.46875 251.644531 122.183594 251.644531 121.832031 Z M 253.324219 134.929688 C 253.675781 134.929688 253.960938 134.648438 253.960938 134.292969 C 253.960938 133.945312 253.675781 133.660156 253.324219 133.660156 L 243.976562 133.660156 C 243.625 133.660156 243.339844 133.945312 243.339844 134.292969 C 243.339844 134.648438 243.625 134.929688 243.976562 134.929688 Z M 293.113281 93.375 L 283.277344 182.214844 C 282.988281 184.839844 280.777344 186.820312 278.140625 186.820312 L 140.402344 186.820312 C 138.910156 186.820312 137.542969 186.207031 136.550781 185.097656 C 136.351562 184.878906 136.183594 184.640625 136.03125 184.398438 C 134.597656 194.574219 127.746094 206.058594 127.746094 215.011719 C 127.746094 224.847656 135.230469 238.953125 135.230469 238.953125 C 135.230469 238.953125 132.574219 260.976562 105.605469 260.976562 C 95.855469 260.976562 88.976562 259.265625 85.433594 258.105469 C 83.597656 257.503906 82.242188 255.957031 81.828125 254.066406 C 78.691406 239.816406 80.816406 219.585938 83.027344 212.46875 C 84.523438 207.660156 82.765625 183.027344 76.996094 165.46875 C 74.054688 156.511719 80.714844 147.292969 90.132812 147.292969 L 92.363281 140.1875 C 92.363281 140.1875 99.457031 136.753906 106.949219 138.277344 C 114.445312 139.808594 118.023438 141.867188 120.816406 142.261719 L 119.003906 147.332031 C 122.097656 147.605469 124.859375 149.445312 126.273438 152.257812 C 129.324219 158.324219 134.171875 168.742188 135.761719 176.574219 L 145.101562 92.234375 C 145.390625 89.609375 147.597656 87.628906 150.238281 87.628906 L 287.976562 87.628906 C 289.464844 87.628906 290.835938 88.242188 291.828125 89.351562 C 292.824219 90.464844 293.277344 91.890625 293.113281 93.375 Z M 164.101562 99.636719 C 163.585938 99.636719 163.113281 100.058594 163.046875 100.578125 C 162.980469 101.097656 163.347656 101.519531 163.867188 101.519531 C 164.386719 101.519531 164.859375 101.097656 164.921875 100.578125 C 164.992188 100.058594 164.625 99.636719 164.101562 99.636719 Z M 167.660156 99.636719 C 167.140625 99.636719 166.667969 100.058594 166.601562 100.578125 C 166.539062 101.097656 166.90625 101.519531 167.421875 101.519531 C 167.941406 101.519531 168.417969 101.097656 168.480469 100.578125 C 168.546875 100.058594 168.179688 99.636719 167.660156 99.636719 Z M 70.328125 96.734375 L 62.765625 96.734375 L 62.765625 113.246094 L 70.328125 113.246094 Z M 43.800781 113.246094 L 51.359375 113.246094 L 51.359375 99.019531 L 43.800781 99.019531 Z M 32.394531 113.246094 L 24.832031 113.246094 L 24.832031 103.980469 L 32.394531 103.980469 L 32.394531 113.246094 " fill-opacity="1" fill-rule="nonzero"/></g><g clip-path="url(#eb1b29c9fe)"><path fill="#f3d0d2" d="M 50.136719 48.707031 C 53.511719 48.707031 56.25 45.96875 56.25 42.585938 C 56.25 39.207031 53.511719 36.464844 50.136719 36.464844 C 46.761719 36.464844 44.027344 39.207031 44.027344 42.585938 C 44.027344 45.96875 46.761719 48.707031 50.136719 48.707031 Z M 32.15625 17.382812 C 32.15625 18.300781 32.902344 19.046875 33.820312 19.046875 C 34.738281 19.046875 35.480469 18.300781 35.480469 17.382812 C 35.480469 16.464844 34.738281 15.722656 33.820312 15.722656 C 32.902344 15.722656 32.15625 16.464844 32.15625 17.382812 Z M 36.367188 31.933594 L 38.605469 35.433594 C 37.839844 36.664062 37.273438 38.027344 36.933594 39.476562 L 32.875 40.367188 L 32.875 44.800781 L 36.933594 45.695312 C 37.273438 47.148438 37.839844 48.507812 38.605469 49.738281 L 36.367188 53.242188 L 39.496094 56.375 L 42.996094 54.136719 C 44.226562 54.898438 45.582031 55.46875 47.03125 55.808594 L 47.925781 59.871094 L 52.351562 59.871094 L 53.246094 55.808594 C 54.691406 55.46875 56.050781 54.898438 57.277344 54.136719 L 60.777344 56.375 L 63.910156 53.242188 L 61.671875 49.738281 C 62.433594 48.507812 63.003906 47.148438 63.34375 45.695312 L 67.398438 44.800781 L 67.398438 40.367188 L 63.34375 39.476562 C 63.003906 38.027344 62.433594 36.664062 61.671875 35.433594 L 63.910156 31.933594 L 60.777344 28.792969 L 57.277344 31.035156 C 56.050781 30.273438 54.691406 29.703125 53.246094 29.363281 L 52.351562 25.300781 L 47.925781 25.300781 L 47.03125 29.363281 C 45.582031 29.703125 44.226562 30.273438 42.996094 31.035156 L 39.496094 28.792969 Z M 71.386719 46.546875 L 88.660156 46.546875 L 88.660156 42.585938 L 71.386719 42.585938 Z M 71.386719 29.261719 L 88.660156 29.261719 L 88.660156 25.300781 L 71.386719 25.300781 Z M 53.324219 64.703125 L 43.496094 64.703125 L 43.496094 65.339844 L 53.324219 65.339844 Z M 53.324219 66.824219 L 49.210938 66.824219 L 49.210938 67.460938 L 53.324219 67.460938 Z M 47.609375 67.460938 L 47.609375 66.824219 L 43.496094 66.824219 L 43.496094 67.460938 Z M 49.960938 68.945312 L 43.496094 68.945312 L 43.496094 69.582031 L 49.960938 69.582031 Z M 96.265625 60.957031 L 107.753906 60.957031 L 107.753906 43.410156 L 96.265625 43.410156 Z M 96.265625 42.773438 L 107.753906 42.773438 L 107.753906 25.230469 L 96.265625 25.230469 Z M 114.125 62.457031 C 114.125 63.113281 114.65625 63.644531 115.308594 63.644531 L 115.417969 63.644531 C 116.074219 63.644531 116.601562 63.113281 116.601562 62.457031 C 116.601562 61.804688 116.074219 61.277344 115.417969 61.277344 L 115.308594 61.277344 C 114.65625 61.277344 114.125 61.804688 114.125 62.457031 Z M 114.125 56.925781 C 114.125 57.578125 114.65625 58.113281 115.308594 58.113281 L 115.417969 58.113281 C 116.074219 58.113281 116.601562 57.578125 116.601562 56.925781 C 116.601562 56.273438 116.074219 55.742188 115.417969 55.742188 L 115.308594 55.742188 C 114.65625 55.742188 114.125 56.273438 114.125 56.925781 Z M 114.125 51.394531 C 114.125 52.046875 114.65625 52.578125 115.308594 52.578125 L 115.417969 52.578125 C 116.074219 52.578125 116.601562 52.046875 116.601562 51.394531 C 116.601562 50.738281 116.074219 50.210938 115.417969 50.210938 L 115.308594 50.210938 C 114.65625 50.210938 114.125 50.738281 114.125 51.394531 Z M 114.125 45.859375 C 114.125 46.511719 114.65625 47.046875 115.308594 47.046875 L 115.417969 47.046875 C 116.074219 47.046875 116.601562 46.511719 116.601562 45.859375 C 116.601562 45.207031 116.074219 44.675781 115.417969 44.675781 L 115.308594 44.675781 C 114.65625 44.675781 114.125 45.207031 114.125 45.859375 Z M 114.125 40.324219 C 114.125 40.980469 114.65625 41.511719 115.308594 41.511719 L 115.417969 41.511719 C 116.074219 41.511719 116.601562 40.980469 116.601562 40.324219 C 116.601562 39.671875 116.074219 39.144531 115.417969 39.144531 L 115.308594 39.144531 C 114.65625 39.144531 114.125 39.671875 114.125 40.324219 Z M 114.125 34.792969 C 114.125 35.445312 114.65625 35.980469 115.308594 35.980469 L 115.417969 35.980469 C 116.074219 35.980469 116.601562 35.445312 116.601562 34.792969 C 116.601562 34.140625 116.074219 33.609375 115.417969 33.609375 L 115.308594 33.609375 C 114.65625 33.609375 114.125 34.140625 114.125 34.792969 Z M 114.125 29.261719 C 114.125 29.914062 114.65625 30.445312 115.308594 30.445312 L 115.417969 30.445312 C 116.074219 30.445312 116.601562 29.914062 116.601562 29.261719 C 116.601562 28.605469 116.074219 28.078125 115.417969 28.078125 L 115.308594 28.078125 C 114.65625 28.078125 114.125 28.605469 114.125 29.261719 Z M 114.125 23.726562 C 114.125 24.378906 114.65625 24.914062 115.308594 24.914062 L 115.417969 24.914062 C 116.074219 24.914062 116.601562 24.378906 116.601562 23.726562 C 116.601562 23.074219 116.074219 22.542969 115.417969 22.542969 L 115.308594 22.542969 C 114.65625 22.542969 114.125 23.074219 114.125 23.726562 Z M 114.125 17.382812 C 114.125 18.300781 114.867188 19.046875 115.785156 19.046875 C 116.703125 19.046875 117.449219 18.300781 117.449219 17.382812 C 117.449219 16.464844 116.703125 15.722656 115.785156 15.722656 C 114.867188 15.722656 114.125 16.464844 114.125 17.382812 Z M 119.152344 62.457031 C 119.152344 63.113281 119.683594 63.644531 120.335938 63.644531 L 130.363281 63.644531 C 131.015625 63.644531 131.546875 63.113281 131.546875 62.457031 C 131.546875 61.804688 131.015625 61.277344 130.363281 61.277344 L 120.335938 61.277344 C 119.683594 61.277344 119.152344 61.804688 119.152344 62.457031 Z M 119.152344 56.925781 C 119.152344 57.578125 119.683594 58.113281 120.335938 58.113281 L 141.796875 58.113281 C 142.449219 58.113281 142.980469 57.578125 142.980469 56.925781 C 142.980469 56.273438 142.449219 55.742188 141.796875 55.742188 L 120.335938 55.742188 C 119.683594 55.742188 119.152344 56.273438 119.152344 56.925781 Z M 119.152344 51.394531 C 119.152344 52.046875 119.683594 52.578125 120.335938 52.578125 L 134.089844 52.578125 C 134.742188 52.578125 135.273438 52.046875 135.273438 51.394531 C 135.273438 50.738281 134.742188 50.210938 134.089844 50.210938 L 120.335938 50.210938 C 119.683594 50.210938 119.152344 50.738281 119.152344 51.394531 Z M 119.152344 45.859375 C 119.152344 46.511719 119.683594 47.046875 120.335938 47.046875 L 138.492188 47.046875 C 139.148438 47.046875 139.675781 46.511719 139.675781 45.859375 C 139.675781 45.207031 139.148438 44.675781 138.492188 44.675781 L 120.335938 44.675781 C 119.683594 44.675781 119.152344 45.207031 119.152344 45.859375 Z M 119.152344 40.324219 C 119.152344 40.980469 119.683594 41.511719 120.335938 41.511719 L 144.167969 41.511719 C 144.820312 41.511719 145.347656 40.980469 145.347656 40.324219 C 145.347656 39.671875 144.820312 39.144531 144.167969 39.144531 L 120.335938 39.144531 C 119.683594 39.144531 119.152344 39.671875 119.152344 40.324219 Z M 119.152344 34.792969 C 119.152344 35.445312 119.683594 35.980469 120.335938 35.980469 L 125.199219 35.980469 C 125.851562 35.980469 126.382812 35.445312 126.382812 34.792969 C 126.382812 34.140625 125.851562 33.609375 125.199219 33.609375 L 120.335938 33.609375 C 119.683594 33.609375 119.152344 34.140625 119.152344 34.792969 Z M 119.152344 29.261719 C 119.152344 29.914062 119.683594 30.445312 120.335938 30.445312 L 136.714844 30.445312 C 137.367188 30.445312 137.898438 29.914062 137.898438 29.261719 C 137.898438 28.605469 137.367188 28.078125 136.714844 28.078125 L 120.335938 28.078125 C 119.683594 28.078125 119.152344 28.605469 119.152344 29.261719 Z M 119.152344 23.726562 C 119.152344 24.378906 119.683594 24.914062 120.335938 24.914062 L 127.855469 24.914062 C 128.507812 24.914062 129.039062 24.378906 129.039062 23.726562 C 129.039062 23.074219 128.507812 22.542969 127.855469 22.542969 L 120.335938 22.542969 C 119.683594 22.542969 119.152344 23.074219 119.152344 23.726562 Z M 120.414062 17.382812 C 120.414062 18.300781 121.160156 19.046875 122.078125 19.046875 C 122.996094 19.046875 123.738281 18.300781 123.738281 17.382812 C 123.738281 16.464844 122.996094 15.722656 122.078125 15.722656 C 121.160156 15.722656 120.414062 16.464844 120.414062 17.382812 Z M 154.894531 33.609375 L 131.0625 33.609375 C 130.410156 33.609375 129.882812 34.140625 129.882812 34.792969 C 129.882812 35.445312 130.410156 35.980469 131.0625 35.980469 L 154.894531 35.980469 C 155.546875 35.980469 156.078125 35.445312 156.078125 34.792969 C 156.078125 34.140625 155.546875 33.609375 154.894531 33.609375 Z M 155.398438 40.324219 C 155.398438 39.671875 154.871094 39.144531 154.21875 39.144531 L 149.355469 39.144531 C 148.703125 39.144531 148.171875 39.671875 148.171875 40.324219 C 148.171875 40.980469 148.703125 41.511719 149.355469 41.511719 L 154.21875 41.511719 C 154.871094 41.511719 155.398438 40.980469 155.398438 40.324219 Z M 154.808594 51.394531 C 154.808594 50.738281 154.277344 50.210938 153.625 50.210938 L 148.761719 50.210938 C 148.109375 50.210938 147.578125 50.738281 147.578125 51.394531 C 147.578125 52.046875 148.109375 52.578125 148.761719 52.578125 L 153.625 52.578125 C 154.277344 52.578125 154.808594 52.046875 154.808594 51.394531 Z M 144.984375 51.394531 C 144.984375 50.738281 144.457031 50.210938 143.804688 50.210938 L 138.9375 50.210938 C 138.285156 50.210938 137.757812 50.738281 137.757812 51.394531 C 137.757812 52.046875 138.285156 52.578125 138.9375 52.578125 L 143.804688 52.578125 C 144.457031 52.578125 144.984375 52.046875 144.984375 51.394531 Z M 149.667969 62.457031 C 149.667969 61.804688 149.140625 61.277344 148.484375 61.277344 L 134.730469 61.277344 C 134.074219 61.277344 133.546875 61.804688 133.546875 62.457031 C 133.546875 63.113281 134.074219 63.644531 134.730469 63.644531 L 148.484375 63.644531 C 149.140625 63.644531 149.667969 63.113281 149.667969 62.457031 Z M 182.21875 60.957031 L 197.253906 60.957031 L 197.253906 43.410156 L 182.21875 43.410156 Z M 182.21875 42.773438 L 197.253906 42.773438 L 197.253906 25.230469 L 182.21875 25.230469 Z M 204.402344 59.871094 L 266.347656 59.871094 L 266.347656 28.078125 L 204.402344 28.078125 Z M 210.691406 17.382812 C 210.691406 18.300781 211.4375 19.046875 212.355469 19.046875 C 213.273438 19.046875 214.015625 18.300781 214.015625 17.382812 C 214.015625 16.464844 213.273438 15.722656 212.355469 15.722656 C 211.4375 15.722656 210.691406 16.464844 210.691406 17.382812 Z M 254.113281 63.324219 L 244.28125 63.324219 L 244.28125 63.960938 L 254.113281 63.960938 Z M 254.113281 65.445312 L 250 65.445312 L 250 66.082031 L 254.113281 66.082031 Z M 248.398438 66.082031 L 248.398438 65.445312 L 244.28125 65.445312 L 244.28125 66.082031 Z M 250.746094 67.566406 L 244.28125 67.566406 L 244.28125 68.203125 L 250.746094 68.203125 Z M 233.792969 63.324219 L 223.960938 63.324219 L 223.960938 63.960938 L 233.792969 63.960938 Z M 233.792969 65.445312 L 229.675781 65.445312 L 229.675781 66.082031 L 233.792969 66.082031 Z M 228.078125 66.082031 L 228.078125 65.445312 L 223.960938 65.445312 L 223.960938 66.082031 Z M 230.425781 67.566406 L 223.960938 67.566406 L 223.960938 68.203125 L 230.425781 68.203125 Z M 21.800781 73.796875 L 21.800781 14.738281 C 21.800781 12.980469 23.222656 11.558594 24.976562 11.558594 L 93.089844 11.558594 C 94.84375 11.558594 96.265625 12.980469 96.265625 14.738281 L 96.265625 24.59375 L 107.753906 24.59375 L 107.753906 14.738281 C 107.753906 12.980469 109.175781 11.558594 110.929688 11.558594 L 179.042969 11.558594 C 180.796875 11.558594 182.21875 12.980469 182.21875 14.738281 L 182.21875 24.59375 L 197.253906 24.59375 L 197.253906 14.738281 C 197.253906 12.980469 198.675781 11.558594 200.429688 11.558594 L 268.542969 11.558594 C 270.296875 11.558594 271.714844 12.980469 271.714844 14.738281 L 271.714844 60.957031 L 279.921875 60.957031 C 280.050781 61.167969 280.171875 61.382812 280.292969 61.59375 L 271.714844 61.59375 L 271.714844 73.796875 C 271.714844 75.554688 270.296875 76.976562 268.542969 76.976562 L 200.429688 76.976562 C 198.675781 76.976562 197.253906 75.554688 197.253906 73.796875 L 197.253906 61.59375 L 182.21875 61.59375 L 182.21875 67.183594 C 182.21875 68.941406 180.796875 70.363281 179.042969 70.363281 L 110.929688 70.363281 C 109.175781 70.363281 107.753906 68.941406 107.753906 67.183594 L 107.753906 61.59375 L 96.265625 61.59375 L 96.265625 73.796875 C 96.265625 75.554688 94.84375 76.976562 93.089844 76.976562 L 24.976562 76.976562 C 23.222656 76.976562 21.800781 75.554688 21.800781 73.796875 Z M 240.4375 90.617188 C 240.089844 90.617188 239.800781 90.902344 239.800781 91.253906 C 239.800781 91.605469 240.089844 91.890625 240.4375 91.890625 L 253.265625 91.890625 C 253.617188 91.890625 253.902344 91.605469 253.902344 91.253906 C 253.902344 90.902344 253.617188 90.617188 253.265625 90.617188 Z M 254.332031 165.710938 C 254.332031 165.363281 254.050781 165.078125 253.695312 165.078125 L 236.863281 165.078125 C 236.511719 165.078125 236.226562 165.363281 236.226562 165.710938 C 236.226562 166.0625 236.511719 166.347656 236.863281 166.347656 L 253.695312 166.347656 C 254.050781 166.347656 254.332031 166.0625 254.332031 165.710938 Z M 247.296875 178.175781 C 247.296875 177.824219 247.015625 177.542969 246.660156 177.542969 L 222.378906 177.542969 C 222.027344 177.542969 221.742188 177.824219 221.742188 178.175781 C 221.742188 178.527344 222.027344 178.8125 222.378906 178.8125 L 246.660156 178.8125 C 247.015625 178.8125 247.296875 178.527344 247.296875 178.175781 Z M 246.777344 182.332031 C 246.777344 181.980469 246.492188 181.695312 246.140625 181.695312 L 221.859375 181.695312 C 221.503906 181.695312 221.222656 181.980469 221.222656 182.332031 C 221.222656 182.683594 221.503906 182.96875 221.859375 182.96875 L 246.140625 182.96875 C 246.492188 182.96875 246.777344 182.683594 246.777344 182.332031 Z M 222.785156 169.867188 C 222.785156 170.21875 223.070312 170.503906 223.421875 170.503906 L 243.046875 170.503906 C 243.394531 170.503906 243.679688 170.21875 243.679688 169.867188 C 243.679688 169.515625 243.394531 169.230469 243.046875 169.230469 L 223.421875 169.230469 C 223.070312 169.230469 222.785156 169.515625 222.785156 169.867188 Z M 223.308594 165.710938 C 223.308594 166.0625 223.589844 166.347656 223.945312 166.347656 L 232.359375 166.347656 C 232.710938 166.347656 232.996094 166.0625 232.996094 165.710938 C 232.996094 165.363281 232.710938 165.078125 232.359375 165.078125 L 223.945312 165.078125 C 223.589844 165.078125 223.308594 165.363281 223.308594 165.710938 Z M 223.828125 161.558594 C 223.828125 161.910156 224.113281 162.195312 224.464844 162.195312 L 248.75 162.195312 C 249.101562 162.195312 249.382812 161.910156 249.382812 161.558594 C 249.382812 161.207031 249.101562 160.921875 248.75 160.921875 L 224.464844 160.921875 C 224.113281 160.921875 223.828125 161.207031 223.828125 161.558594 Z M 219.15625 161.558594 C 219.15625 161.207031 218.871094 160.921875 218.519531 160.921875 L 214.285156 160.921875 C 213.9375 160.921875 213.652344 161.207031 213.652344 161.558594 C 213.652344 161.910156 213.9375 162.195312 214.285156 162.195312 L 218.519531 162.195312 C 218.871094 162.195312 219.15625 161.910156 219.15625 161.558594 Z M 218.632812 165.710938 C 218.632812 165.363281 218.351562 165.078125 217.996094 165.078125 L 213.765625 165.078125 C 213.414062 165.078125 213.128906 165.363281 213.128906 165.710938 C 213.128906 166.0625 213.414062 166.347656 213.765625 166.347656 L 217.996094 166.347656 C 218.351562 166.347656 218.632812 166.0625 218.632812 165.710938 Z M 218.113281 169.867188 C 218.113281 169.515625 217.828125 169.230469 217.476562 169.230469 L 213.242188 169.230469 C 212.890625 169.230469 212.605469 169.515625 212.605469 169.867188 C 212.605469 170.21875 212.890625 170.503906 213.242188 170.503906 L 217.476562 170.503906 C 217.828125 170.503906 218.113281 170.21875 218.113281 169.867188 Z M 217.070312 178.175781 C 217.070312 177.824219 216.785156 177.542969 216.433594 177.542969 L 212.199219 177.542969 C 211.851562 177.542969 211.566406 177.824219 211.566406 178.175781 C 211.566406 178.527344 211.851562 178.8125 212.199219 178.8125 L 216.433594 178.8125 C 216.785156 178.8125 217.070312 178.527344 217.070312 178.175781 Z M 216.546875 182.332031 C 216.546875 181.980469 216.261719 181.695312 215.914062 181.695312 L 211.679688 181.695312 C 211.328125 181.695312 211.042969 181.980469 211.042969 182.332031 C 211.042969 182.683594 211.328125 182.96875 211.679688 182.96875 L 215.914062 182.96875 C 216.261719 182.96875 216.546875 182.683594 216.546875 182.332031 Z M 262.730469 159.003906 L 259.238281 186.820312 L 251.617188 186.820312 C 251.679688 186.722656 251.726562 186.609375 251.726562 186.488281 C 251.726562 186.132812 251.441406 185.851562 251.089844 185.851562 L 234.257812 185.851562 C 233.90625 185.851562 233.621094 186.132812 233.621094 186.488281 C 233.621094 186.609375 233.664062 186.722656 233.730469 186.820312 L 230.28125 186.820312 C 230.339844 186.722656 230.386719 186.609375 230.386719 186.488281 C 230.386719 186.132812 230.101562 185.851562 229.753906 185.851562 L 221.335938 185.851562 C 220.984375 185.851562 220.699219 186.132812 220.699219 186.488281 C 220.699219 186.609375 220.746094 186.722656 220.808594 186.820312 L 215.917969 186.820312 C 215.980469 186.722656 216.023438 186.609375 216.023438 186.488281 C 216.023438 186.132812 215.742188 185.851562 215.390625 185.851562 L 211.160156 185.851562 C 210.804688 185.851562 210.523438 186.132812 210.523438 186.488281 C 210.523438 186.609375 210.566406 186.722656 210.632812 186.820312 L 206.457031 186.820312 L 209.949219 159.003906 C 210.171875 157.246094 211.769531 155.824219 213.523438 155.824219 L 259.957031 155.824219 C 261.707031 155.824219 262.953125 157.246094 262.730469 159.003906 Z M 172.582031 168.324219 L 167.742188 168.324219 C 167.078125 168.324219 166.46875 168.863281 166.386719 169.53125 C 166.300781 170.199219 166.773438 170.742188 167.441406 170.742188 L 172.277344 170.742188 C 172.945312 170.742188 173.554688 170.199219 173.636719 169.53125 C 173.71875 168.863281 173.25 168.324219 172.582031 168.324219 Z M 161.175781 168.324219 L 156.335938 168.324219 C 155.671875 168.324219 155.0625 168.863281 154.976562 169.53125 C 154.894531 170.199219 155.367188 170.742188 156.035156 170.742188 L 160.871094 170.742188 C 161.539062 170.742188 162.148438 170.199219 162.230469 169.53125 C 162.3125 168.863281 161.84375 168.324219 161.175781 168.324219 Z M 152.886719 158.160156 C 152.367188 158.160156 151.894531 158.582031 151.832031 159.101562 C 151.765625 159.621094 152.132812 160.042969 152.652344 160.042969 C 153.167969 160.042969 153.644531 159.621094 153.707031 159.101562 C 153.773438 158.582031 153.40625 158.160156 152.886719 158.160156 Z M 156.207031 160.042969 C 156.726562 160.042969 157.199219 159.621094 157.265625 159.101562 C 157.328125 158.582031 156.960938 158.160156 156.445312 158.160156 C 155.925781 158.160156 155.453125 158.582031 155.386719 159.101562 C 155.320312 159.621094 155.691406 160.042969 156.207031 160.042969 Z M 159.761719 160.042969 C 160.28125 160.042969 160.753906 159.621094 160.820312 159.101562 C 160.886719 158.582031 160.519531 158.160156 160 158.160156 C 159.480469 158.160156 159.007812 158.582031 158.941406 159.101562 C 158.878906 159.621094 159.246094 160.042969 159.761719 160.042969 Z M 169.652344 164 L 160.191406 164 C 159.839844 164 159.554688 164.285156 159.554688 164.632812 C 159.554688 164.988281 159.839844 165.269531 160.191406 165.269531 L 169.652344 165.269531 C 170.007812 165.269531 170.289062 164.988281 170.289062 164.632812 C 170.289062 164.285156 170.007812 164 169.652344 164 Z M 179.265625 155.816406 C 181.019531 155.816406 182.265625 157.242188 182.046875 158.996094 L 180.710938 169.59375 C 180.496094 171.351562 178.890625 172.773438 177.140625 172.773438 L 150.171875 172.773438 C 148.417969 172.773438 147.175781 171.351562 147.398438 169.59375 L 148.726562 158.996094 C 148.949219 157.242188 150.546875 155.816406 152.300781 155.816406 Z M 164.921875 100.578125 C 164.992188 100.058594 164.625 99.636719 164.101562 99.636719 C 163.585938 99.636719 163.113281 100.058594 163.046875 100.578125 C 162.980469 101.097656 163.347656 101.519531 163.867188 101.519531 C 164.386719 101.519531 164.859375 101.097656 164.921875 100.578125 Z M 198.449219 146.800781 C 198.449219 146.449219 198.164062 146.164062 197.816406 146.164062 L 194.570312 146.164062 C 194.21875 146.164062 193.933594 146.449219 193.933594 146.800781 C 193.933594 147.152344 194.21875 147.4375 194.570312 147.4375 L 197.816406 147.4375 C 198.164062 147.4375 198.449219 147.152344 198.449219 146.800781 Z M 193.796875 114.160156 C 194.144531 114.160156 194.429688 113.875 194.429688 113.523438 C 194.429688 113.171875 194.144531 112.886719 193.796875 112.886719 L 184.34375 112.886719 C 183.992188 112.886719 183.707031 113.171875 183.707031 113.523438 C 183.707031 113.875 183.992188 114.160156 184.34375 114.160156 Z M 191.957031 119.089844 L 168.953125 119.089844 C 168.015625 119.089844 167.164062 119.851562 167.046875 120.785156 L 166.351562 126.324219 C 166.234375 127.261719 166.894531 128.019531 167.832031 128.019531 L 190.835938 128.019531 C 191.769531 128.019531 192.621094 127.261719 192.738281 126.324219 L 193.433594 120.785156 C 193.554688 119.851562 192.886719 119.089844 191.957031 119.089844 Z M 182.03125 144.382812 L 185.273438 144.382812 C 185.625 144.382812 185.910156 144.097656 185.910156 143.75 C 185.910156 143.394531 185.625 143.113281 185.273438 143.113281 L 182.03125 143.113281 C 181.679688 143.113281 181.394531 143.394531 181.394531 143.75 C 181.394531 144.097656 181.679688 144.382812 182.03125 144.382812 Z M 187.585938 146.800781 C 187.585938 146.449219 187.300781 146.164062 186.953125 146.164062 L 181.644531 146.164062 C 181.296875 146.164062 181.011719 146.449219 181.011719 146.800781 C 181.011719 147.152344 181.296875 147.4375 181.644531 147.4375 L 186.953125 147.4375 C 187.300781 147.4375 187.585938 147.152344 187.585938 146.800781 Z M 176.605469 143.75 C 176.605469 143.394531 176.320312 143.113281 175.96875 143.113281 L 170.304688 143.113281 C 169.953125 143.113281 169.667969 143.394531 169.667969 143.75 C 169.667969 144.097656 169.953125 144.382812 170.304688 144.382812 L 175.96875 144.382812 C 176.320312 144.382812 176.605469 144.097656 176.605469 143.75 Z M 173.800781 146.800781 C 173.800781 146.449219 173.515625 146.164062 173.167969 146.164062 L 169.917969 146.164062 C 169.570312 146.164062 169.285156 146.449219 169.285156 146.800781 C 169.285156 147.152344 169.570312 147.4375 169.917969 147.4375 L 173.167969 147.4375 C 173.515625 147.4375 173.800781 147.152344 173.800781 146.800781 Z M 163.792969 143.75 C 163.792969 143.394531 163.511719 143.113281 163.160156 143.113281 L 156.671875 143.113281 C 156.320312 143.113281 156.035156 143.394531 156.035156 143.75 C 156.035156 144.097656 156.320312 144.382812 156.671875 144.382812 L 163.160156 144.382812 C 163.511719 144.382812 163.792969 144.097656 163.792969 143.75 Z M 160.820312 146.800781 C 160.820312 146.449219 160.535156 146.164062 160.183594 146.164062 L 156.289062 146.164062 C 155.9375 146.164062 155.652344 146.449219 155.652344 146.800781 C 155.652344 147.152344 155.9375 147.4375 156.289062 147.4375 L 160.183594 147.4375 C 160.535156 147.4375 160.820312 147.152344 160.820312 146.800781 Z M 167.320312 113.523438 C 167.320312 113.875 167.605469 114.160156 167.957031 114.160156 L 179.953125 114.160156 C 180.304688 114.160156 180.585938 113.875 180.585938 113.523438 C 180.585938 113.171875 180.304688 112.886719 179.953125 112.886719 L 167.957031 112.886719 C 167.605469 112.886719 167.320312 113.171875 167.320312 113.523438 Z M 194.316406 143.75 C 194.316406 144.097656 194.601562 144.382812 194.953125 144.382812 L 200.617188 144.382812 C 200.96875 144.382812 201.253906 144.097656 201.253906 143.75 C 201.253906 143.394531 200.96875 143.113281 200.617188 143.113281 L 194.953125 143.113281 C 194.601562 143.113281 194.316406 143.394531 194.316406 143.75 Z M 199.644531 151.167969 L 153.210938 151.167969 C 151.457031 151.167969 150.214844 149.746094 150.4375 147.988281 L 155.804688 105.210938 L 208.585938 105.210938 L 209.351562 99.125 L 203.214844 147.988281 C 202.996094 149.746094 201.398438 151.167969 199.644531 151.167969 Z M 270.742188 182.3125 L 264.335938 182.3125 C 263.984375 182.3125 263.699219 182.597656 263.699219 182.949219 C 263.699219 183.300781 263.984375 183.585938 264.335938 183.585938 L 270.742188 183.585938 C 271.089844 183.585938 271.375 183.300781 271.375 182.949219 C 271.375 182.597656 271.089844 182.3125 270.742188 182.3125 Z M 273.871094 178.15625 L 264.859375 178.15625 C 264.503906 178.15625 264.222656 178.445312 264.222656 178.792969 C 264.222656 179.144531 264.503906 179.429688 264.859375 179.429688 L 273.871094 179.429688 C 274.226562 179.429688 274.507812 179.144531 274.507812 178.792969 C 274.507812 178.445312 274.226562 178.15625 273.871094 178.15625 Z M 265.378906 175.277344 L 270.730469 175.277344 C 271.078125 175.277344 271.363281 174.992188 271.363281 174.640625 C 271.363281 174.289062 271.078125 174.003906 270.730469 174.003906 L 265.378906 174.003906 C 265.027344 174.003906 264.742188 174.289062 264.742188 174.640625 C 264.742188 174.992188 265.027344 175.277344 265.378906 175.277344 Z M 276.976562 127.074219 L 270.574219 127.074219 C 270.222656 127.074219 269.9375 127.359375 269.9375 127.710938 C 269.9375 128.0625 270.222656 128.34375 270.574219 128.34375 L 276.976562 128.34375 C 277.328125 128.34375 277.613281 128.0625 277.613281 127.710938 C 277.613281 127.359375 277.328125 127.074219 276.976562 127.074219 Z M 280.109375 122.921875 L 271.09375 122.921875 C 270.742188 122.921875 270.460938 123.203125 270.460938 123.554688 C 270.460938 123.90625 270.742188 124.191406 271.09375 124.191406 L 280.109375 124.191406 C 280.460938 124.191406 280.742188 123.90625 280.742188 123.554688 C 280.742188 123.203125 280.460938 122.921875 280.109375 122.921875 Z M 271.613281 118.765625 C 271.265625 118.765625 270.980469 119.050781 270.980469 119.398438 C 270.980469 119.753906 271.265625 120.035156 271.613281 120.035156 L 276.964844 120.035156 C 277.316406 120.035156 277.601562 119.753906 277.601562 119.398438 C 277.601562 119.050781 277.316406 118.765625 276.964844 118.765625 Z M 261.925781 105.210938 C 261.925781 104.859375 261.644531 104.574219 261.289062 104.574219 L 250.589844 104.574219 C 250.238281 104.574219 249.957031 104.859375 249.957031 105.210938 C 249.957031 105.5625 250.238281 105.847656 250.589844 105.847656 L 261.289062 105.847656 C 261.644531 105.847656 261.925781 105.5625 261.925781 105.210938 Z M 256.566406 113.523438 C 256.566406 113.171875 256.285156 112.886719 255.933594 112.886719 L 246.582031 112.886719 C 246.234375 112.886719 245.949219 113.171875 245.949219 113.523438 C 245.949219 113.875 246.234375 114.160156 246.582031 114.160156 L 255.933594 114.160156 C 256.285156 114.160156 256.566406 113.875 256.566406 113.523438 Z M 253.960938 134.292969 C 253.960938 133.945312 253.675781 133.660156 253.324219 133.660156 L 243.976562 133.660156 C 243.625 133.660156 243.339844 133.945312 243.339844 134.292969 C 243.339844 134.648438 243.625 134.929688 243.976562 134.929688 L 253.324219 134.929688 C 253.675781 134.929688 253.960938 134.648438 253.960938 134.292969 Z M 249.320312 138.449219 C 249.320312 138.097656 249.035156 137.816406 248.683594 137.816406 L 237.386719 137.816406 C 237.035156 137.816406 236.75 138.097656 236.75 138.449219 C 236.75 138.800781 237.035156 139.085938 237.386719 139.085938 L 248.683594 139.085938 C 249.035156 139.085938 249.320312 138.800781 249.320312 138.449219 Z M 242.914062 142.605469 C 242.914062 142.253906 242.628906 141.96875 242.28125 141.96875 L 226.84375 141.96875 C 226.492188 141.96875 226.207031 142.253906 226.207031 142.605469 C 226.207031 142.957031 226.492188 143.238281 226.84375 143.238281 L 242.28125 143.238281 C 242.628906 143.238281 242.914062 142.957031 242.914062 142.605469 Z M 226.226562 105.210938 C 226.226562 104.859375 225.941406 104.574219 225.589844 104.574219 L 221.359375 104.574219 C 221.007812 104.574219 220.722656 104.859375 220.722656 105.210938 C 220.722656 105.5625 221.007812 105.847656 221.359375 105.847656 L 225.589844 105.847656 C 225.941406 105.847656 226.226562 105.5625 226.226562 105.210938 Z M 225.703125 109.367188 C 225.703125 109.015625 225.421875 108.730469 225.070312 108.730469 L 220.835938 108.730469 C 220.484375 108.730469 220.203125 109.015625 220.203125 109.367188 C 220.203125 109.71875 220.484375 110.003906 220.835938 110.003906 L 225.070312 110.003906 C 225.421875 110.003906 225.703125 109.71875 225.703125 109.367188 Z M 225.183594 113.523438 C 225.183594 113.171875 224.902344 112.886719 224.550781 112.886719 L 220.316406 112.886719 C 219.964844 112.886719 219.683594 113.171875 219.683594 113.523438 C 219.683594 113.875 219.964844 114.160156 220.316406 114.160156 L 224.550781 114.160156 C 224.902344 114.160156 225.183594 113.875 225.183594 113.523438 Z M 224.664062 117.675781 C 224.664062 117.324219 224.378906 117.039062 224.027344 117.039062 L 219.792969 117.039062 C 219.445312 117.039062 219.160156 117.324219 219.160156 117.675781 C 219.160156 118.027344 219.445312 118.3125 219.792969 118.3125 L 224.027344 118.3125 C 224.378906 118.3125 224.664062 118.027344 224.664062 117.675781 Z M 224.140625 121.832031 C 224.140625 121.480469 223.855469 121.195312 223.507812 121.195312 L 219.273438 121.195312 C 218.921875 121.195312 218.636719 121.480469 218.636719 121.832031 C 218.636719 122.183594 218.921875 122.46875 219.273438 122.46875 L 223.507812 122.46875 C 223.855469 122.46875 224.140625 122.183594 224.140625 121.832031 Z M 223.097656 130.140625 C 223.097656 129.789062 222.816406 129.503906 222.460938 129.503906 L 218.230469 129.503906 C 217.878906 129.503906 217.59375 129.789062 217.59375 130.140625 C 217.59375 130.492188 217.878906 130.777344 218.230469 130.777344 L 222.460938 130.777344 C 222.816406 130.777344 223.097656 130.492188 223.097656 130.140625 Z M 222.578125 134.292969 C 222.578125 133.945312 222.292969 133.660156 221.941406 133.660156 L 217.707031 133.660156 C 217.359375 133.660156 217.070312 133.945312 217.070312 134.292969 C 217.070312 134.648438 217.359375 134.929688 217.707031 134.929688 L 221.941406 134.929688 C 222.292969 134.929688 222.578125 134.648438 222.578125 134.292969 Z M 222.054688 138.449219 C 222.054688 138.097656 221.769531 137.816406 221.421875 137.816406 L 217.1875 137.816406 C 216.835938 137.816406 216.550781 138.097656 216.550781 138.449219 C 216.550781 138.800781 216.835938 139.085938 217.1875 139.085938 L 221.421875 139.085938 C 221.769531 139.085938 222.054688 138.800781 222.054688 138.449219 Z M 221.535156 142.605469 C 221.535156 142.253906 221.25 141.96875 220.898438 141.96875 L 216.664062 141.96875 C 216.316406 141.96875 216.03125 142.253906 216.03125 142.605469 C 216.03125 142.957031 216.316406 143.238281 216.664062 143.238281 L 220.898438 143.238281 C 221.25 143.238281 221.535156 142.957031 221.535156 142.605469 Z M 226.730469 138.449219 C 226.730469 138.800781 227.015625 139.085938 227.363281 139.085938 L 233.769531 139.085938 C 234.121094 139.085938 234.40625 138.800781 234.40625 138.449219 C 234.40625 138.097656 234.121094 137.816406 233.769531 137.816406 L 227.363281 137.816406 C 227.015625 137.816406 226.730469 138.097656 226.730469 138.449219 Z M 227.25 134.292969 C 227.25 134.648438 227.535156 134.929688 227.886719 134.929688 L 240.359375 134.929688 C 240.710938 134.929688 240.996094 134.648438 240.996094 134.292969 C 240.996094 133.945312 240.710938 133.660156 240.359375 133.660156 L 227.886719 133.660156 C 227.535156 133.660156 227.25 133.945312 227.25 134.292969 Z M 227.769531 130.140625 C 227.769531 130.492188 228.058594 130.777344 228.40625 130.777344 L 233.757812 130.777344 C 234.109375 130.777344 234.390625 130.492188 234.390625 130.140625 C 234.390625 129.789062 234.109375 129.503906 233.757812 129.503906 L 228.40625 129.503906 C 228.058594 129.503906 227.769531 129.789062 227.769531 130.140625 Z M 228.816406 121.832031 C 228.816406 122.183594 229.101562 122.46875 229.449219 122.46875 L 237.167969 122.46875 C 237.519531 122.46875 237.804688 122.183594 237.804688 121.832031 C 237.804688 121.480469 237.519531 121.195312 237.167969 121.195312 L 229.449219 121.195312 C 229.101562 121.195312 228.816406 121.480469 228.816406 121.832031 Z M 229.335938 117.675781 C 229.335938 118.027344 229.621094 118.3125 229.972656 118.3125 L 236.375 118.3125 C 236.730469 118.3125 237.011719 118.027344 237.011719 117.675781 C 237.011719 117.324219 236.730469 117.039062 236.375 117.039062 L 229.972656 117.039062 C 229.621094 117.039062 229.335938 117.324219 229.335938 117.675781 Z M 229.859375 113.523438 C 229.859375 113.875 230.144531 114.160156 230.492188 114.160156 L 242.96875 114.160156 C 243.316406 114.160156 243.601562 113.875 243.601562 113.523438 C 243.601562 113.171875 243.316406 112.886719 242.96875 112.886719 L 230.492188 112.886719 C 230.144531 112.886719 229.859375 113.171875 229.859375 113.523438 Z M 230.378906 109.367188 C 230.378906 109.71875 230.664062 110.003906 231.011719 110.003906 L 236.363281 110.003906 C 236.714844 110.003906 237 109.71875 237 109.367188 C 237 109.015625 236.714844 108.730469 236.363281 108.730469 L 231.011719 108.730469 C 230.664062 108.730469 230.378906 109.015625 230.378906 109.367188 Z M 230.902344 105.210938 C 230.902344 105.5625 231.183594 105.847656 231.535156 105.847656 L 246.972656 105.847656 C 247.324219 105.847656 247.609375 105.5625 247.609375 105.210938 C 247.609375 104.859375 247.324219 104.574219 246.972656 104.574219 L 231.535156 104.574219 C 231.183594 104.574219 230.902344 104.859375 230.902344 105.210938 Z M 249.929688 110.003906 C 250.28125 110.003906 250.5625 109.71875 250.5625 109.367188 C 250.5625 109.015625 250.28125 108.730469 249.929688 108.730469 L 239.226562 108.730469 C 238.878906 108.730469 238.59375 109.015625 238.59375 109.367188 C 238.59375 109.71875 238.878906 110.003906 239.226562 110.003906 Z M 244.871094 117.675781 C 244.871094 117.324219 244.585938 117.039062 244.234375 117.039062 L 239.992188 117.039062 C 239.640625 117.039062 239.359375 117.324219 239.359375 117.675781 C 239.359375 118.027344 239.640625 118.3125 239.992188 118.3125 L 244.234375 118.3125 C 244.585938 118.3125 244.871094 118.027344 244.871094 117.675781 Z M 247.320312 129.503906 L 236.621094 129.503906 C 236.269531 129.503906 235.984375 129.789062 235.984375 130.140625 C 235.984375 130.492188 236.269531 130.777344 236.621094 130.777344 L 247.320312 130.777344 C 247.675781 130.777344 247.957031 130.492188 247.957031 130.140625 C 247.957031 129.789062 247.675781 129.503906 247.320312 129.503906 Z M 251.007812 122.46875 C 251.359375 122.46875 251.644531 122.183594 251.644531 121.832031 C 251.644531 121.480469 251.359375 121.195312 251.007812 121.195312 L 239.945312 121.195312 C 239.59375 121.195312 239.308594 121.480469 239.308594 121.832031 C 239.308594 122.183594 239.59375 122.46875 239.945312 122.46875 Z M 264.113281 147.988281 C 263.894531 149.746094 262.292969 151.167969 260.539062 151.167969 L 214.109375 151.167969 C 212.355469 151.167969 211.109375 149.746094 211.332031 147.988281 L 217.464844 99.125 C 217.683594 97.367188 219.289062 95.945312 221.039062 95.945312 L 267.46875 95.945312 C 269.222656 95.945312 270.464844 97.367188 270.25 99.125 Z M 98.125 115.503906 L 97.535156 110.625 C 96.964844 105.886719 98.359375 101.410156 101.035156 97.957031 L 75.023438 97.957031 L 75.023438 115.429688 C 75.023438 115.457031 75.015625 115.476562 75.015625 115.503906 Z M 69.691406 97.371094 L 63.402344 97.371094 L 63.402344 112.609375 L 69.691406 112.609375 Z M 60.207031 97.957031 L 60.207031 95.460938 L 53.917969 95.460938 L 53.917969 112.609375 L 60.207031 112.609375 Z M 50.726562 99.65625 L 44.433594 99.65625 L 44.433594 112.609375 L 50.726562 112.609375 Z M 41.242188 107.3125 L 34.949219 107.3125 L 34.949219 112.609375 L 41.242188 112.609375 Z M 31.757812 104.617188 L 25.464844 104.617188 L 25.464844 112.609375 L 31.757812 112.609375 Z M 96.039062 134.320312 L 0.28125 134.320312 C 0.269531 134.109375 0.25 133.894531 0.238281 133.683594 L 96.21875 133.683594 L 97.960938 127.539062 C 98.707031 124.890625 98.925781 122.125 98.59375 119.394531 L 98.203125 116.140625 L 74.9375 116.140625 C 74.613281 117.550781 73.355469 118.609375 71.847656 118.609375 L 24.976562 118.609375 C 23.464844 118.609375 22.207031 117.550781 21.882812 116.140625 L 0.46875 116.140625 C 0.488281 115.925781 0.511719 115.714844 0.535156 115.503906 L 21.808594 115.503906 C 21.808594 115.476562 21.800781 115.457031 21.800781 115.429688 L 21.800781 97.957031 L 3.851562 97.957031 C 3.910156 97.742188 3.980469 97.535156 4.042969 97.320312 L 21.800781 97.320312 L 21.800781 90.808594 C 21.800781 89.054688 23.222656 87.628906 24.976562 87.628906 L 71.847656 87.628906 C 73.597656 87.628906 75.023438 89.054688 75.023438 90.808594 L 75.023438 97.320312 L 101.554688 97.320312 C 104.703125 93.628906 109.386719 91.253906 114.683594 91.253906 C 119.910156 91.253906 124.632812 93.589844 127.816406 97.320312 L 144.535156 97.320312 L 144.46875 97.957031 L 128.335938 97.957031 C 130.253906 100.433594 131.519531 103.453125 131.859375 106.773438 L 132.035156 108.457031 L 135.652344 115.503906 L 142.523438 115.503906 L 142.453125 116.140625 L 135.882812 116.140625 C 135.898438 116.542969 135.648438 116.929688 135.230469 117.054688 L 133.8125 117.46875 C 133.394531 117.589844 133.125 117.980469 133.15625 118.410156 C 133.375 121.242188 134.011719 131.332031 132.035156 132.398438 C 129.730469 133.640625 118.742188 131.414062 118.742188 131.414062 C 118.53125 132.164062 118.359375 132.921875 118.21875 133.683594 L 140.511719 133.683594 L 140.441406 134.320312 L 118.109375 134.320312 C 117.71875 136.679688 117.621094 139.078125 117.824219 141.457031 C 115.363281 140.613281 112.070312 139.324219 106.949219 138.277344 C 102.042969 137.28125 97.3125 138.40625 94.628906 139.304688 Z M 81.640625 185.527344 C 80.859375 180.585938 79.828125 175.488281 78.539062 170.683594 L 78.542969 170.683594 C 78.519531 170.597656 78.5 170.515625 78.476562 170.433594 C 78.015625 168.734375 77.523438 167.070312 76.996094 165.46875 C 75.238281 160.113281 76.910156 154.671875 80.554688 151.152344 C 80.375 151.234375 80.199219 151.304688 80.023438 151.390625 C 79.726562 151.539062 79.445312 151.699219 79.164062 151.863281 L 2.703125 151.863281 C 2.746094 152.078125 2.789062 152.289062 2.832031 152.5 L 78.1875 152.5 C 72.695312 156.445312 70.921875 164.007812 74.320312 170.046875 L 7.699219 170.046875 C 7.773438 170.257812 7.839844 170.472656 7.914062 170.683594 L 74.671875 170.683594 Z M 141.195312 279.542969 C 143.789062 279.542969 146.386719 279.402344 148.984375 279.136719 L 132.371094 279.136719 C 135.304688 279.398438 138.246094 279.542969 141.195312 279.542969 Z M 105.605469 260.976562 C 104.988281 260.976562 104.390625 260.96875 103.800781 260.957031 L 79.996094 260.957031 C 80.347656 261.167969 80.699219 261.378906 81.050781 261.589844 L 195.246094 261.589844 C 195.570312 261.378906 195.898438 261.167969 196.222656 260.957031 L 106.378906 260.957031 C 106.117188 260.957031 105.871094 260.976562 105.605469 260.976562 Z M 80.394531 242.773438 L 55.921875 242.773438 C 56.15625 242.984375 56.386719 243.199219 56.621094 243.410156 L 80.429688 243.410156 C 80.417969 243.199219 80.40625 242.984375 80.394531 242.773438 Z M 134.042969 243.410156 L 218.554688 243.410156 C 218.78125 243.199219 219.007812 242.984375 219.238281 242.773438 L 134.265625 242.773438 C 134.195312 242.980469 134.121094 243.191406 134.042969 243.410156 Z M 80.894531 224.59375 L 38.605469 224.59375 C 38.785156 224.804688 38.964844 225.015625 39.144531 225.226562 L 80.832031 225.226562 C 80.851562 225.015625 80.871094 224.804688 80.894531 224.59375 Z M 83.53125 206.410156 L 25.367188 206.410156 C 25.503906 206.621094 25.640625 206.832031 25.777344 207.042969 L 83.53125 207.042969 C 83.53125 206.839844 83.53125 206.628906 83.53125 206.410156 Z M 181.386719 215.53125 C 182.875 215.769531 184.335938 216.003906 185.753906 216.21875 L 185.59375 215.96875 L 181.824219 215.167969 Z M 214.582031 224.59375 L 224.140625 224.59375 L 221.117188 222.480469 L 215.707031 223.71875 Z M 141.25 188.226562 L 262.375 188.226562 C 262.25 188.4375 262.128906 188.652344 262.003906 188.863281 L 141.574219 188.863281 C 145.597656 196.667969 149.285156 203.15625 151.511719 206.410156 L 250.71875 206.410156 C 250.570312 206.621094 250.421875 206.832031 250.269531 207.042969 L 151.957031 207.042969 C 152.535156 207.847656 152.988281 208.375 153.285156 208.574219 C 155.644531 210.148438 161.476562 211.726562 168.285156 213.144531 L 179.09375 209.058594 C 180.195312 208.644531 181.433594 208.785156 182.410156 209.441406 L 187.75 213.015625 L 189.976562 216.847656 C 194.144531 217.453125 197.570312 217.90625 199.480469 218.148438 L 205.394531 217.925781 L 218.085938 213.535156 C 219.222656 213.144531 220.484375 213.320312 221.464844 214.023438 L 226.8125 217.824219 L 230.492188 224.59375 L 236.625 224.59375 C 236.445312 224.804688 236.261719 225.015625 236.082031 225.226562 L 230.835938 225.226562 L 230.960938 225.457031 C 231.195312 225.890625 231.019531 226.433594 230.570312 226.640625 C 229.675781 226.578125 228.648438 226.132812 227.816406 225.507812 L 228.03125 226.972656 C 228.132812 227.640625 227.585938 228.230469 226.914062 228.179688 C 225.863281 228.105469 225 227.328125 224.820312 226.289062 L 224.632812 225.226562 L 213.761719 225.226562 L 211.160156 227.242188 C 209.933594 228.1875 208.507812 228.820312 207.003906 229.097656 C 206.023438 229.277344 205.011719 229.246094 204.027344 229.113281 L 198.027344 228.285156 L 153.355469 227.964844 C 147.960938 227.738281 143.992188 226.714844 140.96875 225.226562 L 129.574219 225.226562 C 129.542969 225.125 129.515625 225.023438 129.484375 224.917969 L 129.480469 224.917969 C 129.457031 224.835938 129.433594 224.75 129.40625 224.664062 C 129.398438 224.640625 129.390625 224.617188 129.386719 224.59375 C 128.433594 221.347656 127.746094 217.984375 127.746094 215.011719 C 127.746094 213.320312 127.996094 211.539062 128.402344 209.691406 C 128.507812 209.710938 128.613281 209.730469 128.71875 209.75 L 122.019531 196.796875 C 121.667969 196.871094 121.308594 196.914062 120.941406 196.914062 C 117.605469 196.914062 114.316406 193.78125 111.847656 188.863281 L 15.519531 188.863281 C 15.417969 188.652344 15.3125 188.441406 15.207031 188.226562 L 111.535156 188.226562 C 109.722656 184.398438 108.390625 179.582031 107.878906 174.34375 C 107.46875 170.140625 107.640625 166.210938 108.273438 162.84375 C 108.226562 158.441406 109.410156 154.59375 112.691406 153.0625 C 112.953125 152.941406 113.21875 152.84375 113.480469 152.742188 C 114.417969 152.113281 115.441406 151.773438 116.539062 151.773438 C 116.984375 151.773438 117.429688 151.835938 117.871094 151.941406 C 122.269531 152.039062 126.179688 154.851562 128.03125 159.519531 C 131.738281 168.855469 136.6875 179.34375 141.246094 188.226562 Z M 136.414062 170.683594 L 136.484375 170.046875 L 133.945312 170.046875 C 134.015625 170.257812 134.089844 170.472656 134.15625 170.683594 Z M 138.5 151.863281 L 126.0625 151.863281 C 126.132812 151.996094 126.207031 152.125 126.273438 152.257812 C 126.3125 152.335938 126.355469 152.421875 126.394531 152.5 L 138.429688 152.5 Z M 287.492188 79.140625 L 11.546875 79.140625 C 11.433594 79.351562 11.320312 79.5625 11.210938 79.773438 L 287.648438 79.773438 C 287.59375 79.5625 287.546875 79.351562 287.492188 79.140625 " fill-opacity="1" fill-rule="nonzero"/></g><g clip-path="url(#0a33b09dbd)"><path fill="#393a3f" d="M 218.367188 208.371094 L 200.480469 208.425781 L 191.535156 208.457031 L 182.59375 208.546875 L 182.59375 208.832031 L 191.535156 208.921875 L 200.480469 208.949219 L 218.367188 209.003906 L 236.253906 208.9375 L 245.199219 208.902344 L 254.140625 208.8125 L 254.140625 208.566406 L 245.199219 208.476562 L 236.253906 208.4375 Z M 210.867188 67.566406 L 204.402344 67.566406 L 204.402344 68.203125 L 210.867188 68.203125 Z M 214.230469 66.082031 L 214.230469 65.445312 L 210.117188 65.445312 L 210.117188 66.082031 Z M 208.515625 65.445312 L 204.402344 65.445312 L 204.402344 66.082031 L 208.515625 66.082031 Z M 214.230469 63.324219 L 204.402344 63.324219 L 204.402344 63.960938 L 214.230469 63.960938 Z M 218.644531 19.046875 C 219.5625 19.046875 220.308594 18.300781 220.308594 17.382812 C 220.308594 16.464844 219.5625 15.722656 218.644531 15.722656 C 217.726562 15.722656 216.984375 16.464844 216.984375 17.382812 C 216.984375 18.300781 217.726562 19.046875 218.644531 19.046875 Z M 128.367188 19.046875 C 129.285156 19.046875 130.03125 18.300781 130.03125 17.382812 C 130.03125 16.464844 129.285156 15.722656 128.367188 15.722656 C 127.449219 15.722656 126.707031 16.464844 126.707031 17.382812 C 126.707031 18.300781 127.449219 19.046875 128.367188 19.046875 Z M 63.476562 68.945312 L 57.011719 68.945312 L 57.011719 69.582031 L 63.476562 69.582031 Z M 66.84375 67.460938 L 66.84375 66.824219 L 62.726562 66.824219 L 62.726562 67.460938 Z M 61.125 66.824219 L 57.011719 66.824219 L 57.011719 67.460938 L 61.125 67.460938 Z M 66.84375 64.703125 L 57.011719 64.703125 L 57.011719 65.339844 L 66.84375 65.339844 Z M 40.109375 19.046875 C 41.027344 19.046875 41.769531 18.300781 41.769531 17.382812 C 41.769531 16.464844 41.027344 15.722656 40.109375 15.722656 C 39.191406 15.722656 38.449219 16.464844 38.449219 17.382812 C 38.449219 18.300781 39.191406 19.046875 40.109375 19.046875 Z M 28.292969 115.660156 L 28.929688 115.660156 L 28.929688 114.984375 L 37.777344 114.984375 L 37.777344 115.660156 L 38.414062 115.660156 L 38.414062 114.984375 L 47.261719 114.984375 L 47.261719 115.660156 L 47.898438 115.660156 L 47.898438 114.984375 L 56.746094 114.984375 L 56.746094 115.660156 L 57.378906 115.660156 L 57.378906 114.984375 L 66.230469 114.984375 L 66.230469 115.660156 L 66.863281 115.660156 L 66.863281 114.984375 L 69.753906 114.984375 L 69.753906 114.347656 L 66.863281 114.347656 L 66.863281 113.667969 L 66.230469 113.667969 L 66.230469 114.347656 L 57.378906 114.347656 L 57.378906 113.667969 L 56.746094 113.667969 L 56.746094 114.347656 L 47.898438 114.347656 L 47.898438 113.667969 L 47.261719 113.667969 L 47.261719 114.347656 L 38.414062 114.347656 L 38.414062 113.667969 L 37.777344 113.667969 L 37.777344 114.347656 L 28.929688 114.347656 L 28.929688 113.667969 L 28.292969 113.667969 L 28.292969 114.347656 L 25.464844 114.347656 L 25.464844 114.984375 L 28.292969 114.984375 Z M 234.464844 91.253906 C 234.464844 90.902344 234.179688 90.617188 233.832031 90.617188 L 151.785156 90.617188 C 151.433594 90.617188 151.152344 90.902344 151.152344 91.253906 C 151.152344 91.605469 151.433594 91.890625 151.785156 91.890625 L 233.832031 91.890625 C 234.179688 91.890625 234.464844 91.605469 234.464844 91.253906 Z M 215.914062 181.695312 L 211.679688 181.695312 C 211.328125 181.695312 211.042969 181.980469 211.042969 182.332031 C 211.042969 182.683594 211.328125 182.96875 211.679688 182.96875 L 215.914062 182.96875 C 216.261719 182.96875 216.546875 182.683594 216.546875 182.332031 C 216.546875 181.980469 216.261719 181.695312 215.914062 181.695312 Z M 217.070312 178.175781 C 217.070312 177.824219 216.785156 177.542969 216.433594 177.542969 L 212.199219 177.542969 C 211.851562 177.542969 211.566406 177.824219 211.566406 178.175781 C 211.566406 178.527344 211.851562 178.8125 212.199219 178.8125 L 216.433594 178.8125 C 216.785156 178.8125 217.070312 178.527344 217.070312 178.175781 Z M 218.113281 169.867188 C 218.113281 169.515625 217.828125 169.230469 217.476562 169.230469 L 213.242188 169.230469 C 212.890625 169.230469 212.605469 169.515625 212.605469 169.867188 C 212.605469 170.21875 212.890625 170.503906 213.242188 170.503906 L 217.476562 170.503906 C 217.828125 170.503906 218.113281 170.21875 218.113281 169.867188 Z M 218.632812 165.710938 C 218.632812 165.363281 218.351562 165.078125 217.996094 165.078125 L 213.765625 165.078125 C 213.414062 165.078125 213.128906 165.363281 213.128906 165.710938 C 213.128906 166.0625 213.414062 166.347656 213.765625 166.347656 L 217.996094 166.347656 C 218.351562 166.347656 218.632812 166.0625 218.632812 165.710938 Z M 219.15625 161.558594 C 219.15625 161.207031 218.871094 160.921875 218.519531 160.921875 L 214.285156 160.921875 C 213.9375 160.921875 213.652344 161.207031 213.652344 161.558594 C 213.652344 161.910156 213.9375 162.195312 214.285156 162.195312 L 218.519531 162.195312 C 218.871094 162.195312 219.15625 161.910156 219.15625 161.558594 Z M 158.941406 159.101562 C 158.878906 159.621094 159.246094 160.042969 159.761719 160.042969 C 160.28125 160.042969 160.753906 159.621094 160.820312 159.101562 C 160.886719 158.582031 160.519531 158.160156 160 158.160156 C 159.480469 158.160156 159.007812 158.582031 158.941406 159.101562 Z M 166.601562 100.578125 C 166.539062 101.097656 166.90625 101.519531 167.421875 101.519531 C 167.941406 101.519531 168.417969 101.097656 168.480469 100.578125 C 168.546875 100.058594 168.179688 99.636719 167.660156 99.636719 C 167.140625 99.636719 166.667969 100.058594 166.601562 100.578125 Z M 176.003906 122.921875 C 175.652344 122.921875 175.367188 123.203125 175.367188 123.554688 C 175.367188 123.90625 175.652344 124.191406 176.003906 124.191406 L 183.785156 124.191406 C 184.132812 124.191406 184.417969 123.90625 184.417969 123.554688 C 184.417969 123.203125 184.132812 122.921875 183.785156 122.921875 Z M 221.535156 142.605469 C 221.535156 142.253906 221.25 141.96875 220.898438 141.96875 L 216.664062 141.96875 C 216.316406 141.96875 216.03125 142.253906 216.03125 142.605469 C 216.03125 142.957031 216.316406 143.238281 216.664062 143.238281 L 220.898438 143.238281 C 221.25 143.238281 221.535156 142.957031 221.535156 142.605469 Z M 222.054688 138.449219 C 222.054688 138.097656 221.769531 137.816406 221.421875 137.816406 L 217.1875 137.816406 C 216.835938 137.816406 216.550781 138.097656 216.550781 138.449219 C 216.550781 138.800781 216.835938 139.085938 217.1875 139.085938 L 221.421875 139.085938 C 221.769531 139.085938 222.054688 138.800781 222.054688 138.449219 Z M 222.578125 134.292969 C 222.578125 133.945312 222.292969 133.660156 221.941406 133.660156 L 217.707031 133.660156 C 217.359375 133.660156 217.070312 133.945312 217.070312 134.292969 C 217.070312 134.648438 217.359375 134.929688 217.707031 134.929688 L 221.941406 134.929688 C 222.292969 134.929688 222.578125 134.648438 222.578125 134.292969 Z M 223.097656 130.140625 C 223.097656 129.789062 222.816406 129.503906 222.460938 129.503906 L 218.230469 129.503906 C 217.878906 129.503906 217.59375 129.789062 217.59375 130.140625 C 217.59375 130.492188 217.878906 130.777344 218.230469 130.777344 L 222.460938 130.777344 C 222.816406 130.777344 223.097656 130.492188 223.097656 130.140625 Z M 224.140625 121.832031 C 224.140625 121.480469 223.855469 121.195312 223.507812 121.195312 L 219.273438 121.195312 C 218.921875 121.195312 218.636719 121.480469 218.636719 121.832031 C 218.636719 122.183594 218.921875 122.46875 219.273438 122.46875 L 223.507812 122.46875 C 223.855469 122.46875 224.140625 122.183594 224.140625 121.832031 Z M 224.664062 117.675781 C 224.664062 117.324219 224.378906 117.039062 224.027344 117.039062 L 219.792969 117.039062 C 219.445312 117.039062 219.160156 117.324219 219.160156 117.675781 C 219.160156 118.027344 219.445312 118.3125 219.792969 118.3125 L 224.027344 118.3125 C 224.378906 118.3125 224.664062 118.027344 224.664062 117.675781 Z M 225.183594 113.523438 C 225.183594 113.171875 224.902344 112.886719 224.550781 112.886719 L 220.316406 112.886719 C 219.964844 112.886719 219.683594 113.171875 219.683594 113.523438 C 219.683594 113.875 219.964844 114.160156 220.316406 114.160156 L 224.550781 114.160156 C 224.902344 114.160156 225.183594 113.875 225.183594 113.523438 Z M 225.703125 109.367188 C 225.703125 109.015625 225.421875 108.730469 225.070312 108.730469 L 220.835938 108.730469 C 220.484375 108.730469 220.203125 109.015625 220.203125 109.367188 C 220.203125 109.71875 220.484375 110.003906 220.835938 110.003906 L 225.070312 110.003906 C 225.421875 110.003906 225.703125 109.71875 225.703125 109.367188 Z M 226.226562 105.210938 C 226.226562 104.859375 225.941406 104.574219 225.589844 104.574219 L 221.359375 104.574219 C 221.007812 104.574219 220.722656 104.859375 220.722656 105.210938 C 220.722656 105.5625 221.007812 105.847656 221.359375 105.847656 L 225.589844 105.847656 C 225.941406 105.847656 226.226562 105.5625 226.226562 105.210938 Z M 128.921875 108.195312 L 131.910156 108.046875 C 132.058594 106.300781 132.558594 104.695312 133.382812 104.289062 C 132.503906 104.195312 131.652344 104.21875 131.003906 104.507812 C 130.960938 102.300781 130.089844 101.125 129.542969 99.738281 C 129.535156 101.324219 129.964844 100.835938 129.800781 102.960938 C 129.707031 104.136719 129.945312 105.34375 129.671875 106.492188 C 129.527344 107.101562 129.242188 107.65625 128.921875 108.195312 Z M 132.546875 108.011719 L 135.035156 107.890625 C 134.847656 105.988281 134.238281 104.824219 133.796875 104.824219 C 133.347656 104.824219 132.722656 106.039062 132.546875 108.011719 Z M 135.082031 108.523438 L 132.503906 108.652344 C 132.5 108.800781 132.5 108.953125 132.5 109.109375 C 132.5 111.722656 133.265625 113.394531 133.796875 113.394531 C 134.328125 113.394531 135.097656 111.722656 135.097656 109.109375 C 135.097656 108.90625 135.089844 108.714844 135.082031 108.523438 Z M 75.203125 134.082031 C 74.511719 129.539062 75.835938 124.722656 78.757812 121.175781 C 79.824219 119.875 81.148438 118.640625 81.476562 116.988281 C 81.816406 115.285156 81.007812 113.589844 80.640625 111.894531 C 79.9375 108.65625 80.9375 105.09375 83.222656 102.695312 C 84.976562 100.855469 87.40625 99.6875 88.886719 97.621094 C 90.128906 95.890625 90.566406 93.730469 91.417969 91.777344 C 93.808594 86.304688 99.847656 82.660156 105.796875 83.101562 C 107.449219 81.039062 110.652344 80.074219 113.25 80.53125 C 115.851562 80.992188 118.164062 82.46875 120.183594 84.167969 C 126.546875 83.191406 134.542969 89.269531 136.765625 105.042969 C 136.167969 104.863281 135.335938 104.625 134.457031 104.453125 C 135.289062 105.160156 135.734375 107.183594 135.734375 109.109375 C 135.734375 111.492188 135.054688 114.03125 133.796875 114.03125 C 132.539062 114.03125 131.863281 111.492188 131.863281 109.109375 C 131.863281 108.96875 131.867188 108.824219 131.871094 108.683594 L 130.433594 108.757812 C 130.707031 108.902344 130.914062 109.445312 130.914062 110.101562 C 130.914062 110.863281 130.628906 111.484375 130.28125 111.484375 C 129.933594 111.484375 129.652344 110.863281 129.652344 110.101562 C 129.652344 109.464844 129.847656 108.9375 130.109375 108.769531 L 128.515625 108.851562 C 128.140625 109.445312 127.757812 110.039062 127.5 110.6875 C 126.320312 113.671875 127.992188 117.054688 127.523438 120.234375 C 127.226562 122.226562 126.113281 123.992188 125.511719 125.914062 C 124.65625 128.644531 125.257812 132.417969 126.511719 134.984375 L 117.699219 134.984375 C 117.148438 132.90625 116.4375 131.019531 116.359375 128.871094 C 115.773438 131.121094 115.515625 133.167969 115.320312 135.488281 C 114.234375 132.554688 113.519531 129.703125 113.445312 126.582031 C 113.136719 129.082031 113.03125 131.582031 112.71875 134.082031 Z M 134.753906 219.90625 C 135.726562 221.132812 136.796875 222.292969 137.96875 223.347656 C 139.132812 224.40625 140.425781 225.34375 141.851562 226.066406 C 142.566406 226.410156 143.324219 226.6875 144.101562 226.882812 C 144.898438 227.058594 145.664062 227.144531 146.4375 227.253906 C 147.984375 227.449219 149.53125 227.640625 151.082031 227.78125 C 154.1875 228.078125 157.296875 228.269531 160.414062 228.328125 C 160.492188 228.328125 160.558594 228.269531 160.5625 228.191406 C 160.566406 228.113281 160.503906 228.042969 160.425781 228.039062 C 158.875 227.953125 157.324219 227.824219 155.78125 227.683594 C 154.230469 227.550781 152.6875 227.398438 151.144531 227.222656 C 149.601562 227.039062 148.058594 226.863281 146.519531 226.648438 C 145.753906 226.535156 144.972656 226.441406 144.25 226.277344 C 143.519531 226.089844 142.808594 225.824219 142.128906 225.492188 C 139.390625 224.136719 137.144531 221.917969 135.167969 219.5625 C 134.175781 218.378906 133.253906 217.128906 132.390625 215.84375 C 131.519531 214.5625 130.695312 213.238281 129.957031 211.878906 L 129.957031 211.875 C 129.921875 211.816406 129.855469 211.792969 129.792969 211.824219 C 129.734375 211.855469 129.710938 211.925781 129.738281 211.984375 C 131.128906 214.789062 132.796875 217.449219 134.753906 219.90625 Z M 113.5 181.464844 C 113.144531 181.253906 112.820312 181.007812 112.507812 180.742188 C 112.199219 180.472656 111.914062 180.167969 111.628906 179.847656 C 111.59375 179.808594 111.539062 179.792969 111.488281 179.816406 C 111.425781 179.839844 111.394531 179.910156 111.417969 179.972656 C 111.75 180.808594 112.394531 181.519531 113.160156 182.003906 C 113.546875 182.246094 113.957031 182.441406 114.382812 182.578125 C 114.742188 182.691406 115.109375 182.769531 115.476562 182.816406 C 116.703125 185.605469 117.972656 188.375 119.25 191.140625 C 120.707031 194.214844 122.175781 197.285156 123.683594 200.335938 C 125.195312 203.386719 126.734375 206.417969 128.347656 209.417969 C 128.382812 209.488281 128.46875 209.515625 128.535156 209.480469 C 128.609375 209.445312 128.636719 209.359375 128.605469 209.289062 C 127.851562 207.761719 127.121094 206.226562 126.390625 204.691406 L 124.191406 200.089844 L 119.820312 190.867188 C 118.363281 187.796875 116.9375 184.707031 115.53125 181.617188 C 114.828125 180.066406 114.140625 178.511719 113.472656 176.953125 C 112.8125 175.390625 112.132812 173.824219 111.640625 172.210938 L 111.636719 172.203125 C 111.621094 172.140625 111.554688 172.105469 111.488281 172.125 C 111.425781 172.140625 111.386719 172.207031 111.40625 172.273438 C 112.347656 175.570312 113.710938 178.699219 115.042969 181.832031 C 115.117188 182.003906 115.199219 182.179688 115.273438 182.351562 C 115.042969 182.253906 114.8125 182.15625 114.589844 182.054688 C 114.214844 181.871094 113.84375 181.683594 113.5 181.464844 Z M 130.167969 121.085938 C 130.40625 121.238281 130.675781 121.335938 130.953125 121.402344 C 131.230469 121.457031 131.511719 121.484375 131.789062 121.457031 C 131.925781 121.445312 132.0625 121.417969 132.199219 121.398438 C 132.332031 121.359375 132.464844 121.324219 132.589844 121.273438 C 132.628906 121.257812 132.660156 121.21875 132.667969 121.175781 C 132.675781 121.105469 132.628906 121.042969 132.558594 121.03125 C 132.035156 120.949219 131.558594 120.894531 131.09375 120.785156 C 130.863281 120.730469 130.640625 120.65625 130.414062 120.582031 C 130.195312 120.503906 129.96875 120.394531 129.757812 120.292969 L 129.730469 120.28125 C 129.691406 120.257812 129.640625 120.257812 129.597656 120.285156 C 129.527344 120.328125 129.503906 120.417969 129.542969 120.484375 C 129.703125 120.753906 129.921875 120.929688 130.167969 121.085938 Z M 261.566406 229.027344 L 250.570312 212.46875 L 250.570312 212.324219 L 242.617188 212.234375 L 234.664062 212.210938 L 218.753906 212.152344 L 202.84375 212.222656 L 194.890625 212.257812 L 186.9375 212.347656 L 186.9375 212.589844 L 187.121094 212.59375 L 187.75 213.015625 L 189.855469 216.640625 L 186.148438 216.113281 C 186.171875 216.101562 186.195312 216.09375 186.21875 216.082031 C 186.363281 216.007812 186.484375 215.898438 186.59375 215.785156 C 186.695312 215.660156 186.785156 215.523438 186.839844 215.375 C 186.894531 215.222656 186.933594 215.0625 186.914062 214.894531 C 186.910156 214.863281 186.898438 214.832031 186.878906 214.808594 C 186.820312 214.742188 186.71875 214.734375 186.652344 214.789062 L 186.644531 214.792969 C 186.527344 214.894531 186.441406 214.992188 186.355469 215.089844 C 186.265625 215.179688 186.191406 215.277344 186.109375 215.371094 C 186.035156 215.46875 185.953125 215.558594 185.878906 215.667969 C 185.796875 215.769531 185.714844 215.875 185.636719 216.007812 L 185.632812 216.011719 C 185.632812 216.015625 185.632812 216.019531 185.628906 216.023438 L 185.59375 215.96875 L 181.9375 215.191406 C 181.957031 215.101562 181.984375 215.015625 182 214.929688 C 182.066406 214.625 182.082031 214.3125 182.085938 214.003906 C 182.078125 213.691406 182.050781 213.378906 181.984375 213.074219 C 181.917969 212.773438 181.828125 212.472656 181.683594 212.195312 C 181.660156 212.148438 181.609375 212.113281 181.554688 212.113281 C 181.472656 212.113281 181.40625 212.179688 181.40625 212.261719 C 181.398438 212.5625 181.417969 212.855469 181.425781 213.144531 L 181.449219 214.011719 L 181.46875 214.878906 C 181.46875 215.066406 181.472656 215.257812 181.476562 215.445312 L 179.652344 215.183594 C 173.308594 214.234375 166.957031 213.265625 160.667969 212.023438 C 159.101562 211.710938 157.527344 211.394531 156.011719 210.945312 C 155.636719 210.832031 155.257812 210.707031 154.9375 210.542969 C 154.765625 210.449219 154.738281 210.429688 154.609375 210.222656 L 154.289062 209.738281 C 153.867188 209.058594 153.449219 208.375 153.039062 207.683594 C 151.394531 204.925781 149.789062 202.140625 148.183594 199.359375 L 142.503906 189.480469 L 210.34375 189.480469 L 214.082031 203.789062 L 241 203.789062 L 237.265625 189.480469 L 278.140625 189.480469 C 282.128906 189.480469 285.480469 186.476562 285.917969 182.511719 L 295.753906 93.667969 C 296.269531 89.027344 292.640625 84.96875 287.976562 84.96875 L 150.238281 84.96875 C 146.25 84.96875 142.898438 87.972656 142.460938 91.941406 L 133.84375 169.761719 C 134.660156 172.144531 135.328125 174.464844 135.761719 176.601562 L 145.101562 92.234375 C 145.390625 89.609375 147.597656 87.628906 150.238281 87.628906 L 287.976562 87.628906 C 289.464844 87.628906 290.835938 88.242188 291.828125 89.351562 C 292.824219 90.464844 293.277344 91.890625 293.113281 93.375 L 283.277344 182.214844 C 282.988281 184.839844 280.777344 186.820312 278.140625 186.820312 L 215.917969 186.820312 C 215.980469 186.722656 216.023438 186.609375 216.023438 186.488281 C 216.023438 186.132812 215.742188 185.851562 215.390625 185.851562 L 211.160156 185.851562 C 210.804688 185.851562 210.523438 186.132812 210.523438 186.488281 C 210.523438 186.609375 210.566406 186.722656 210.632812 186.820312 L 140.972656 186.820312 L 138.570312 182.644531 C 138.535156 182.589844 138.464844 182.566406 138.40625 182.597656 C 138.347656 182.632812 138.324219 182.707031 138.359375 182.765625 L 140.597656 186.820312 L 140.527344 186.820312 C 140.984375 187.722656 141.441406 188.609375 141.894531 189.480469 L 142.0625 189.480469 L 143.015625 191.207031 L 147.753906 199.609375 C 149.339844 202.402344 150.925781 205.195312 152.550781 207.972656 C 152.957031 208.667969 153.375 209.355469 153.796875 210.046875 L 154.132812 210.566406 C 154.203125 210.660156 154.210938 210.71875 154.34375 210.84375 C 154.460938 210.960938 154.554688 211.003906 154.660156 211.0625 C 155.054688 211.269531 155.441406 211.394531 155.835938 211.519531 C 157.394531 211.992188 158.96875 212.320312 160.546875 212.644531 C 166.867188 213.863281 173.222656 214.789062 179.578125 215.703125 L 189.125 217.015625 L 198.683594 218.191406 C 198.761719 218.199219 198.835938 218.144531 198.84375 218.066406 C 198.855469 217.988281 198.800781 217.914062 198.722656 217.90625 L 195.191406 217.402344 L 198.3125 212.699219 L 202.84375 212.71875 L 218.753906 212.785156 L 234.664062 212.730469 L 242.617188 212.703125 L 246.460938 212.660156 L 257.332031 229.027344 L 253.304688 229.027344 L 247.535156 222.488281 L 244.875 224.238281 L 249.800781 229.027344 L 233.824219 229.027344 L 248.355469 219.792969 L 227.882812 219.792969 L 230.960938 225.457031 C 231.195312 225.890625 231.019531 226.433594 230.570312 226.640625 C 229.738281 226.582031 228.796875 226.1875 228 225.636719 C 228 225.617188 228.007812 225.601562 228 225.582031 C 227.65625 224.777344 227.648438 223.882812 227.539062 222.96875 C 227.492188 222.503906 227.390625 222.035156 227.210938 221.578125 C 227.03125 221.121094 226.773438 220.703125 226.472656 220.328125 C 225.855469 219.597656 225.109375 219.019531 224.359375 218.507812 C 223.605469 217.988281 222.855469 217.503906 222.179688 216.914062 C 222.136719 216.875 222.070312 216.871094 222.023438 216.910156 C 221.972656 216.953125 221.964844 217.027344 222.007812 217.082031 C 222.589844 217.808594 223.332031 218.375 224.039062 218.9375 C 224.746094 219.496094 225.449219 220.046875 225.980469 220.730469 C 226.25 221.0625 226.488281 221.417969 226.648438 221.804688 C 226.816406 222.191406 226.894531 222.613281 226.984375 223.050781 C 227.117188 223.757812 227.199219 224.539062 227.507812 225.253906 C 227.117188 224.917969 226.777344 224.550781 226.546875 224.164062 L 224.523438 220.777344 L 220.925781 219.90625 C 220.917969 219.898438 220.914062 219.886719 220.90625 219.878906 C 220.875 219.84375 220.824219 219.824219 220.773438 219.839844 C 220.761719 219.84375 220.757812 219.855469 220.746094 219.863281 L 220.699219 219.851562 L 215.636719 223.773438 C 215.644531 223.742188 215.648438 223.714844 215.652344 223.6875 C 215.679688 223.421875 215.664062 223.15625 215.625 222.894531 C 215.578125 222.628906 215.507812 222.371094 215.398438 222.128906 C 215.292969 221.886719 215.160156 221.652344 214.980469 221.453125 C 214.945312 221.417969 214.890625 221.398438 214.84375 221.410156 C 214.761719 221.421875 214.707031 221.5 214.71875 221.582031 C 214.761719 221.835938 214.820312 222.066406 214.863281 222.300781 C 214.90625 222.539062 214.960938 222.765625 215 223 C 215.046875 223.230469 215.074219 223.464844 215.113281 223.699219 C 215.136719 223.839844 215.160156 223.984375 215.183594 224.128906 L 211.160156 227.242188 C 210.015625 228.125 208.695312 228.722656 207.300781 229.027344 L 203.394531 229.027344 L 198.441406 228.339844 C 198.746094 228.070312 199.019531 227.753906 199.207031 227.382812 C 199.453125 226.925781 199.570312 226.390625 199.492188 225.886719 C 199.484375 225.828125 199.433594 225.777344 199.371094 225.765625 C 199.289062 225.757812 199.21875 225.8125 199.207031 225.890625 C 199.140625 226.339844 198.980469 226.742188 198.738281 227.097656 C 198.632812 227.246094 198.511719 227.382812 198.386719 227.515625 C 198.378906 227.222656 198.34375 226.933594 198.273438 226.652344 C 198.140625 226.105469 197.914062 225.582031 197.570312 225.152344 C 197.539062 225.109375 197.480469 225.089844 197.433594 225.109375 C 197.367188 225.136719 197.339844 225.207031 197.359375 225.269531 C 197.542969 225.757812 197.679688 226.25 197.734375 226.75 C 197.792969 227.246094 197.789062 227.746094 197.714844 228.234375 C 197.710938 228.25 197.714844 228.265625 197.714844 228.285156 L 163.605469 228.039062 L 162.109375 229.027344 L 130.859375 229.027344 C 130.941406 229.238281 131.019531 229.449219 131.097656 229.660156 L 295.804688 229.660156 L 295.804688 229.027344 Z M 36.644531 229.027344 L 36.644531 229.660156 L 107.65625 229.660156 C 111.960938 229.660156 113.199219 229.027344 113.199219 229.027344 C 113.757812 228.875 114.296875 228.671875 114.804688 228.421875 C 118.449219 226.636719 120.644531 222.480469 119.605469 218.199219 L 107.449219 168.132812 C 106.46875 164.089844 102.855469 161.242188 98.703125 161.242188 L 30.808594 161.242188 C 24.976562 161.242188 20.679688 166.714844 22.058594 172.390625 L 34.210938 222.457031 C 35 225.707031 37.496094 228.179688 40.601562 229.027344 Z M 135.230469 238.953125 C 135.230469 238.953125 135.21875 239.070312 135.183594 239.273438 C 134.742188 241.929688 130.699219 260.976562 105.605469 260.976562 C 96.417969 260.976562 89.777344 259.457031 86.082031 258.308594 C 87.394531 265.832031 93.945312 271.550781 101.828125 271.550781 L 150.097656 271.550781 C 162.050781 271.550781 173.710938 266.566406 173.710938 266.566406 L 169.964844 288.808594 L 194.574219 288.808594 C 194.574219 288.808594 197.421875 266.566406 198.648438 251.640625 C 199.367188 242.902344 192.941406 240.097656 187.488281 239.273438 L 231.761719 239.273438 L 228.886719 264.054688 L 237.984375 265.566406 L 241.035156 239.273438 L 273.800781 239.273438 L 277.609375 272.140625 L 287.066406 273.707031 L 283.074219 239.273438 L 295.804688 239.273438 L 295.804688 238.636719 L 135.066406 238.636719 C 135.171875 238.839844 135.230469 238.953125 135.230469 238.953125 Z M 80.257812 238.636719 L 36.644531 238.636719 L 36.644531 239.273438 L 57.625 239.273438 C 57.605469 239.367188 57.617188 239.464844 57.589844 239.5625 L 57.503906 240.203125 C 57.441406 240.628906 57.417969 241.0625 57.375 241.492188 L 57.304688 242.785156 L 57.269531 243.429688 L 57.25 243.757812 C 57.257812 243.867188 57.179688 243.964844 57.386719 244.097656 C 57.617188 244.015625 57.5625 243.898438 57.597656 243.796875 L 57.652344 243.476562 L 57.769531 242.835938 L 57.996094 241.5625 C 58.050781 241.132812 58.128906 240.707031 58.164062 240.277344 L 58.230469 239.636719 C 58.222656 239.511719 58.273438 239.398438 58.25 239.273438 L 80.265625 239.273438 C 80.261719 239.0625 80.261719 238.851562 80.257812 238.636719 Z M 188.140625 100.578125 C 188.140625 100.226562 187.855469 99.941406 187.503906 99.941406 L 178.046875 99.941406 C 177.699219 99.941406 177.414062 100.226562 177.414062 100.578125 C 177.414062 100.929688 177.699219 101.210938 178.046875 101.210938 L 187.503906 101.210938 C 187.855469 101.210938 188.140625 100.929688 188.140625 100.578125 Z M 163.046875 100.578125 C 162.980469 101.097656 163.347656 101.519531 163.867188 101.519531 C 164.386719 101.519531 164.859375 101.097656 164.921875 100.578125 C 164.992188 100.058594 164.625 99.636719 164.101562 99.636719 C 163.585938 99.636719 163.113281 100.058594 163.046875 100.578125 Z M 160.3125 101.519531 C 159.792969 101.519531 159.421875 101.097656 159.492188 100.578125 C 159.554688 100.058594 160.027344 99.636719 160.546875 99.636719 C 161.066406 99.636719 161.433594 100.058594 161.367188 100.578125 C 161.304688 101.097656 160.832031 101.519531 160.3125 101.519531 " fill-opacity="1" fill-rule="nonzero"/></g><g clip-path="url(#7c5d8aa67a)"><path fill="#777b85" d="M 249.246094 203.789062 L 244.132812 203.789062 L 240.398438 189.480469 L 237.265625 189.480469 L 241 203.789062 L 187.484375 203.789062 C 184.785156 203.789062 182.59375 205.980469 182.59375 208.6875 L 254.140625 208.6875 C 254.140625 205.980469 251.949219 203.789062 249.246094 203.789062 Z M 76.183594 203.453125 L 65.640625 203.453125 C 64.964844 203.453125 64.394531 203.960938 64.320312 204.628906 L 55.78125 278.695312 C 55.695312 279.484375 56.3125 280.179688 57.105469 280.179688 L 67.652344 280.179688 C 68.324219 280.179688 68.894531 279.671875 68.972656 279 L 77.507812 204.9375 C 77.597656 204.144531 76.980469 203.453125 76.183594 203.453125 Z M 233.34375 229.328125 L 237.625 229.328125 L 247.367188 222.917969 L 253.027344 229.328125 L 256.1875 229.328125 L 248.355469 219.792969 Z M 292.171875 84.96875 L 287.976562 84.96875 C 292.640625 84.96875 296.269531 89.027344 295.753906 93.667969 L 285.917969 182.511719 C 285.480469 186.476562 282.128906 189.480469 278.140625 189.480469 L 282.335938 189.480469 C 286.320312 189.480469 289.671875 186.476562 290.109375 182.511719 L 299.945312 93.667969 C 300.460938 89.027344 296.832031 84.96875 292.171875 84.96875 Z M 188.140625 100.578125 C 188.140625 100.226562 187.855469 99.941406 187.503906 99.941406 L 178.046875 99.941406 C 177.699219 99.941406 177.414062 100.226562 177.414062 100.578125 C 177.414062 100.929688 177.699219 101.210938 178.046875 101.210938 L 187.503906 101.210938 C 187.855469 101.210938 188.140625 100.929688 188.140625 100.578125 Z M 164.101562 99.636719 C 163.585938 99.636719 163.113281 100.058594 163.046875 100.578125 C 162.980469 101.097656 163.347656 101.519531 163.867188 101.519531 C 164.386719 101.519531 164.859375 101.097656 164.921875 100.578125 C 164.992188 100.058594 164.625 99.636719 164.101562 99.636719 Z M 160.546875 99.636719 C 160.027344 99.636719 159.554688 100.058594 159.492188 100.578125 C 159.421875 101.097656 159.792969 101.519531 160.3125 101.519531 C 160.832031 101.519531 161.304688 101.097656 161.367188 100.578125 C 161.433594 100.058594 161.066406 99.636719 160.546875 99.636719 Z M 168.480469 100.578125 C 168.417969 101.097656 167.941406 101.519531 167.421875 101.519531 C 166.90625 101.519531 166.539062 101.097656 166.601562 100.578125 C 166.667969 100.058594 167.140625 99.636719 167.660156 99.636719 C 168.179688 99.636719 168.546875 100.058594 168.480469 100.578125 " fill-opacity="1" fill-rule="nonzero"/></g></svg>