<svg xmlns="http://www.w3.org/2000/svg" xmlns:xlink="http://www.w3.org/1999/xlink" width="400" zoomAndPan="magnify" viewBox="0 0 300 299.999988" height="400" preserveAspectRatio="xMidYMid meet" version="1.0"><defs><clipPath id="a364ff4acd"><path d="M 145 84 L 262.5 84 L 262.5 216 L 145 216 Z M 145 84 " clip-rule="nonzero"/></clipPath><clipPath id="a2d0a5f020"><path d="M 37.5 0 L 230 0 L 230 300 L 37.5 300 Z M 37.5 0 " clip-rule="nonzero"/></clipPath></defs><path fill="#e4eef6" d="M 159.375 225 C 146.453125 225 135.9375 214.484375 135.9375 201.5625 L 135.9375 98.4375 C 135.9375 85.515625 146.453125 75 159.375 75 L 223.242188 75 L 223.242188 51.5625 L 43.945312 51.5625 L 43.945312 294.140625 L 223.242188 294.140625 L 223.242188 225 L 159.375 225 " fill-opacity="1" fill-rule="nonzero"/><g clip-path="url(#a364ff4acd)"><path fill="#2c3d53" d="M 248.4375 84.375 L 159.375 84.375 C 151.617188 84.375 145.3125 90.679688 145.3125 98.4375 L 145.3125 201.5625 C 145.3125 209.320312 151.617188 215.625 159.375 215.625 L 248.4375 215.625 C 256.195312 215.625 262.5 209.320312 262.5 201.5625 L 262.5 98.4375 C 262.5 90.679688 256.195312 84.375 248.4375 84.375 M 253.125 201.5625 C 253.125 204.140625 251.015625 206.25 248.4375 206.25 L 159.375 206.25 C 156.796875 206.25 154.6875 204.140625 154.6875 201.5625 L 154.6875 98.4375 C 154.6875 95.859375 156.796875 93.75 159.375 93.75 L 248.4375 93.75 C 251.015625 93.75 253.125 95.859375 253.125 98.4375 L 253.125 201.5625 " fill-opacity="1" fill-rule="nonzero"/></g><path fill="#fcd965" d="M 253.125 98.4375 L 253.125 201.5625 C 253.125 204.140625 251.015625 206.25 248.4375 206.25 L 159.375 206.25 C 156.796875 206.25 154.6875 204.140625 154.6875 201.5625 L 154.6875 98.4375 C 154.6875 95.859375 156.796875 93.75 159.375 93.75 L 248.4375 93.75 C 251.015625 93.75 253.125 95.859375 253.125 98.4375 " fill-opacity="1" fill-rule="nonzero"/><path fill="#2c3d53" d="M 75 93.070312 L 65.625 93.070312 C 60.445312 93.070312 56.25 97.265625 56.25 102.445312 L 56.25 111.820312 C 56.25 116.976562 60.445312 121.195312 65.625 121.195312 L 75 121.195312 C 80.179688 121.195312 84.375 116.976562 84.375 111.820312 L 84.375 102.445312 C 84.375 97.265625 80.179688 93.070312 75 93.070312 Z M 75 111.820312 L 65.625 111.820312 L 65.625 102.445312 L 75 102.445312 L 75 111.820312 " fill-opacity="1" fill-rule="nonzero"/><path fill="#8dd9dd" d="M 75 102.445312 L 75 111.820312 L 65.625 111.820312 L 65.625 102.445312 L 75 102.445312 " fill-opacity="1" fill-rule="nonzero"/><path fill="#2c3d53" d="M 131.25 96.09375 L 98.4375 96.09375 C 95.847656 96.09375 93.75 98.195312 93.75 100.78125 C 93.75 103.371094 95.847656 105.46875 98.4375 105.46875 L 131.25 105.46875 C 133.835938 105.46875 135.9375 103.371094 135.9375 100.78125 C 135.9375 98.195312 133.835938 96.09375 131.25 96.09375 " fill-opacity="1" fill-rule="nonzero"/><path fill="#2c3d53" d="M 98.4375 119.53125 L 121.875 119.53125 C 124.464844 119.53125 126.5625 117.433594 126.5625 114.84375 C 126.5625 112.257812 124.464844 110.15625 121.875 110.15625 L 98.4375 110.15625 C 95.847656 110.15625 93.75 112.257812 93.75 114.84375 C 93.75 117.433594 95.847656 119.53125 98.4375 119.53125 " fill-opacity="1" fill-rule="nonzero"/><path fill="#2c3d53" d="M 75 130.570312 L 65.625 130.570312 C 60.445312 130.570312 56.25 134.765625 56.25 139.945312 L 56.25 149.320312 C 56.25 154.476562 60.445312 158.695312 65.625 158.695312 L 75 158.695312 C 80.179688 158.695312 84.375 154.476562 84.375 149.320312 L 84.375 139.945312 C 84.375 134.765625 80.179688 130.570312 75 130.570312 Z M 75 149.320312 L 65.625 149.320312 L 65.625 139.945312 L 75 139.945312 L 75 149.320312 " fill-opacity="1" fill-rule="nonzero"/><path fill="#8dd9dd" d="M 75 139.945312 L 75 149.320312 L 65.625 149.320312 L 65.625 139.945312 L 75 139.945312 " fill-opacity="1" fill-rule="nonzero"/><path fill="#2c3d53" d="M 98.4375 142.96875 L 131.25 142.96875 C 133.835938 142.96875 135.9375 140.871094 135.9375 138.28125 C 135.9375 135.691406 133.835938 133.59375 131.25 133.59375 L 98.4375 133.59375 C 95.847656 133.59375 93.75 135.691406 93.75 138.28125 C 93.75 140.871094 95.847656 142.96875 98.4375 142.96875 " fill-opacity="1" fill-rule="nonzero"/><path fill="#2c3d53" d="M 98.4375 157.03125 L 121.875 157.03125 C 124.460938 157.03125 126.5625 154.933594 126.5625 152.34375 C 126.5625 149.753906 124.460938 147.65625 121.875 147.65625 L 98.4375 147.65625 C 95.847656 147.65625 93.75 149.753906 93.75 152.34375 C 93.75 154.933594 95.847656 157.03125 98.4375 157.03125 " fill-opacity="1" fill-rule="nonzero"/><path fill="#2c3d53" d="M 75 168.070312 L 65.625 168.070312 C 60.445312 168.070312 56.25 172.265625 56.25 177.445312 L 56.25 186.820312 C 56.25 191.976562 60.445312 196.195312 65.625 196.195312 L 75 196.195312 C 80.179688 196.195312 84.375 191.976562 84.375 186.820312 L 84.375 177.445312 C 84.375 172.265625 80.179688 168.070312 75 168.070312 Z M 75 186.820312 L 65.625 186.820312 L 65.625 177.445312 L 75 177.445312 L 75 186.820312 " fill-opacity="1" fill-rule="nonzero"/><path fill="#8dd9dd" d="M 75 177.445312 L 75 186.820312 L 65.625 186.820312 L 65.625 177.445312 L 75 177.445312 " fill-opacity="1" fill-rule="nonzero"/><path fill="#2c3d53" d="M 98.4375 180.46875 L 131.25 180.46875 C 133.835938 180.46875 135.9375 178.371094 135.9375 175.78125 C 135.9375 173.195312 133.835938 171.09375 131.25 171.09375 L 98.4375 171.09375 C 95.847656 171.09375 93.75 173.195312 93.75 175.78125 C 93.75 178.371094 95.847656 180.46875 98.4375 180.46875 " fill-opacity="1" fill-rule="nonzero"/><path fill="#2c3d53" d="M 98.4375 194.53125 L 121.875 194.53125 C 124.460938 194.53125 126.5625 192.433594 126.5625 189.84375 C 126.5625 187.253906 124.460938 185.15625 121.875 185.15625 L 98.4375 185.15625 C 95.847656 185.15625 93.75 187.253906 93.75 189.84375 C 93.75 192.433594 95.847656 194.53125 98.4375 194.53125 " fill-opacity="1" fill-rule="nonzero"/><path fill="#2c3d53" d="M 75 205.570312 L 65.625 205.570312 C 60.445312 205.570312 56.25 209.765625 56.25 214.945312 L 56.25 224.320312 C 56.25 229.476562 60.445312 233.695312 65.625 233.695312 L 75 233.695312 C 80.179688 233.695312 84.375 229.476562 84.375 224.320312 L 84.375 214.945312 C 84.375 209.765625 80.179688 205.570312 75 205.570312 Z M 75 224.320312 L 65.625 224.320312 L 65.625 214.945312 L 75 214.945312 L 75 224.320312 " fill-opacity="1" fill-rule="nonzero"/><path fill="#8dd9dd" d="M 75 214.945312 L 75 224.320312 L 65.625 224.320312 L 65.625 214.945312 L 75 214.945312 " fill-opacity="1" fill-rule="nonzero"/><path fill="#2c3d53" d="M 98.4375 217.96875 L 131.25 217.96875 C 133.835938 217.96875 135.9375 215.871094 135.9375 213.28125 C 135.9375 210.695312 133.835938 208.59375 131.25 208.59375 L 98.4375 208.59375 C 95.847656 208.59375 93.75 210.695312 93.75 213.28125 C 93.75 215.871094 95.847656 217.96875 98.4375 217.96875 " fill-opacity="1" fill-rule="nonzero"/><path fill="#2c3d53" d="M 98.4375 232.03125 L 121.875 232.03125 C 124.460938 232.03125 126.5625 229.933594 126.5625 227.34375 C 126.5625 224.753906 124.460938 222.65625 121.875 222.65625 L 98.4375 222.65625 C 95.847656 222.65625 93.75 224.753906 93.75 227.34375 C 93.75 229.933594 95.847656 232.03125 98.4375 232.03125 " fill-opacity="1" fill-rule="nonzero"/><path fill="#2c3d53" d="M 75 243.070312 L 65.625 243.070312 C 60.445312 243.070312 56.25 247.265625 56.25 252.445312 L 56.25 261.820312 C 56.25 266.976562 60.445312 271.195312 65.625 271.195312 L 75 271.195312 C 80.179688 271.195312 84.375 266.976562 84.375 261.820312 L 84.375 252.445312 C 84.375 247.265625 80.179688 243.070312 75 243.070312 Z M 75 261.820312 L 65.625 261.820312 L 65.625 252.445312 L 75 252.445312 L 75 261.820312 " fill-opacity="1" fill-rule="nonzero"/><path fill="#8dd9dd" d="M 75 252.445312 L 75 261.820312 L 65.625 261.820312 L 65.625 252.445312 L 75 252.445312 " fill-opacity="1" fill-rule="nonzero"/><path fill="#2c3d53" d="M 178.125 246.09375 L 98.4375 246.09375 C 95.847656 246.09375 93.75 248.191406 93.75 250.78125 C 93.75 253.371094 95.847656 255.46875 98.4375 255.46875 L 178.125 255.46875 C 180.714844 255.46875 182.8125 253.371094 182.8125 250.78125 C 182.8125 248.191406 180.714844 246.09375 178.125 246.09375 " fill-opacity="1" fill-rule="nonzero"/><path fill="#2c3d53" d="M 93.75 264.84375 C 93.75 267.433594 95.847656 269.53125 98.4375 269.53125 L 196.875 269.53125 C 199.464844 269.53125 201.5625 267.433594 201.5625 264.84375 C 201.5625 262.253906 199.464844 260.15625 196.875 260.15625 L 98.4375 260.15625 C 95.847656 260.15625 93.75 262.253906 93.75 264.84375 " fill-opacity="1" fill-rule="nonzero"/><path fill="#2c3d53" d="M 233.289062 121.019531 L 188.621094 168.910156 L 174.519531 153.792969 C 172.753906 151.902344 169.789062 151.796875 167.898438 153.5625 C 166.003906 155.332031 165.902344 158.296875 167.667969 160.191406 L 185.191406 178.976562 C 186.078125 179.929688 187.320312 180.46875 188.621094 180.46875 C 189.921875 180.46875 191.160156 179.929688 192.046875 178.976562 L 240.144531 127.417969 C 241.910156 125.523438 241.808594 122.554688 239.917969 120.789062 C 238.027344 119.027344 235.058594 119.132812 233.289062 121.019531 " fill-opacity="1" fill-rule="nonzero"/><g clip-path="url(#a2d0a5f020)"><path fill="#2c3d53" d="M 229.6875 75 L 229.6875 60.9375 C 229.6875 53.179688 223.382812 46.875 215.625 46.875 L 187.5 46.875 L 187.5 35.15625 C 187.5 32.578125 185.390625 30.46875 182.8125 30.46875 L 166.289062 30.46875 C 165.070312 13.476562 150.890625 0 133.59375 0 C 116.296875 0 102.117188 13.476562 100.898438 30.46875 L 84.375 30.46875 C 81.796875 30.46875 79.6875 32.578125 79.6875 35.15625 L 79.6875 46.875 L 51.5625 46.875 C 43.804688 46.875 37.5 53.179688 37.5 60.9375 L 37.5 285.9375 C 37.5 293.695312 43.804688 300 51.5625 300 L 215.625 300 C 223.382812 300 229.6875 293.695312 229.6875 285.9375 L 229.6875 225 L 220.3125 225 L 220.3125 285.9375 C 220.3125 288.515625 218.203125 290.625 215.625 290.625 L 51.5625 290.625 C 48.984375 290.625 46.875 288.515625 46.875 285.9375 L 46.875 60.9375 C 46.875 58.359375 48.984375 56.25 51.5625 56.25 L 79.6875 56.25 L 79.6875 67.96875 C 79.6875 70.546875 81.796875 72.65625 84.375 72.65625 L 182.8125 72.65625 C 185.390625 72.65625 187.5 70.546875 187.5 67.96875 L 187.5 56.25 L 215.625 56.25 C 218.203125 56.25 220.3125 58.359375 220.3125 60.9375 L 220.3125 75 L 229.6875 75 M 133.59375 9.375 C 145.734375 9.375 155.742188 18.632812 156.914062 30.46875 L 110.273438 30.46875 C 111.445312 18.632812 121.453125 9.375 133.59375 9.375 M 178.125 63.28125 L 89.0625 63.28125 L 89.0625 39.84375 L 178.125 39.84375 L 178.125 63.28125 " fill-opacity="1" fill-rule="nonzero"/></g><path fill="#fcd965" d="M 156.914062 30.46875 L 110.273438 30.46875 C 111.445312 18.632812 121.453125 9.375 133.59375 9.375 C 145.734375 9.375 155.742188 18.632812 156.914062 30.46875 " fill-opacity="1" fill-rule="nonzero"/><path fill="#d57a41" d="M 178.125 39.84375 L 178.125 63.28125 L 89.0625 63.28125 L 89.0625 39.84375 L 178.125 39.84375 " fill-opacity="1" fill-rule="nonzero"/><path fill="#c1c7ce" d="M 220.3125 281.25 C 220.3125 283.828125 218.203125 285.9375 215.625 285.9375 L 51.5625 285.9375 C 48.984375 285.9375 46.875 283.828125 46.875 281.25 L 46.875 285.9375 C 46.875 288.515625 48.984375 290.625 51.5625 290.625 L 215.625 290.625 C 218.203125 290.625 220.3125 288.515625 220.3125 285.9375 L 220.3125 281.25 " fill-opacity="1" fill-rule="nonzero"/><path fill="#fae497" d="M 248.4375 93.75 L 159.375 93.75 C 156.796875 93.75 154.6875 95.859375 154.6875 98.4375 L 154.6875 103.125 C 154.6875 100.546875 156.796875 98.4375 159.375 98.4375 L 248.4375 98.4375 C 251.015625 98.4375 253.125 100.546875 253.125 103.125 L 253.125 98.4375 C 253.125 95.859375 251.015625 93.75 248.4375 93.75 " fill-opacity="1" fill-rule="nonzero"/><path fill="#d6b856" d="M 253.125 196.875 C 253.125 199.453125 251.015625 201.5625 248.4375 201.5625 L 159.375 201.5625 C 156.796875 201.5625 154.6875 199.453125 154.6875 196.875 L 154.6875 201.5625 C 154.6875 204.140625 156.796875 206.25 159.375 206.25 L 248.4375 206.25 C 251.015625 206.25 253.125 204.140625 253.125 201.5625 L 253.125 196.875 " fill-opacity="1" fill-rule="nonzero"/><path fill="#fae497" d="M 133.59375 9.375 C 121.453125 9.375 111.445312 18.632812 110.273438 30.46875 L 111.234375 30.46875 C 114.210938 20.953125 123.117188 14.0625 133.59375 14.0625 C 144.070312 14.0625 152.976562 20.953125 155.953125 30.46875 L 156.914062 30.46875 C 155.742188 18.632812 145.734375 9.375 133.59375 9.375 " fill-opacity="1" fill-rule="nonzero"/><path fill="#da9363" d="M 178.125 39.84375 L 89.0625 39.84375 L 89.0625 44.53125 L 178.125 44.53125 L 178.125 39.84375 " fill-opacity="1" fill-rule="nonzero"/><path fill="#ab6238" d="M 178.125 58.59375 L 89.0625 58.59375 L 89.0625 63.28125 L 178.125 63.28125 L 178.125 58.59375 " fill-opacity="1" fill-rule="nonzero"/><path fill="#f4f8fc" d="M 79.6875 56.25 L 51.5625 56.25 C 48.984375 56.25 46.875 58.359375 46.875 60.9375 L 46.875 65.625 C 46.875 63.046875 48.984375 60.9375 51.5625 60.9375 L 79.6875 60.9375 L 79.6875 56.25 " fill-opacity="1" fill-rule="nonzero"/><path fill="#f4f8fc" d="M 215.625 56.25 L 187.5 56.25 L 187.5 60.9375 L 215.625 60.9375 C 218.203125 60.9375 220.3125 63.046875 220.3125 65.625 L 220.3125 60.9375 C 220.3125 58.359375 218.203125 56.25 215.625 56.25 " fill-opacity="1" fill-rule="nonzero"/></svg>