<svg xmlns="http://www.w3.org/2000/svg" xmlns:xlink="http://www.w3.org/1999/xlink" width="400" zoomAndPan="magnify" viewBox="0 0 300 299.999988" height="400" preserveAspectRatio="xMidYMid meet" version="1.0"><path fill="#ee3e54" d="M 8.429688 61.878906 C 7.925781 61.878906 7.425781 61.925781 6.933594 62.023438 C 6.441406 62.121094 5.960938 62.269531 5.496094 62.460938 C 5.03125 62.652344 4.589844 62.890625 4.171875 63.167969 C 3.753906 63.449219 3.367188 63.765625 3.011719 64.121094 C 2.65625 64.476562 2.335938 64.863281 2.058594 65.28125 C 1.777344 65.703125 1.542969 66.144531 1.347656 66.609375 C 1.15625 67.074219 1.011719 67.550781 0.914062 68.046875 C 0.816406 68.539062 0.765625 69.035156 0.765625 69.539062 C 0.765625 70.042969 0.816406 70.542969 0.914062 71.035156 C 1.011719 71.527344 1.15625 72.007812 1.347656 72.472656 C 1.542969 72.9375 1.777344 73.378906 2.058594 73.796875 C 2.335938 74.214844 2.65625 74.601562 3.011719 74.957031 C 3.367188 75.3125 3.753906 75.632812 4.171875 75.910156 C 4.589844 76.191406 5.03125 76.425781 5.496094 76.621094 C 5.960938 76.8125 6.441406 76.957031 6.933594 77.054688 C 7.425781 77.152344 7.925781 77.203125 8.429688 77.203125 C 8.933594 77.203125 9.429688 77.152344 9.925781 77.054688 C 10.417969 76.957031 10.898438 76.8125 11.363281 76.621094 C 11.828125 76.425781 12.269531 76.191406 12.6875 75.910156 C 13.105469 75.632812 13.492188 75.3125 13.847656 74.957031 C 14.203125 74.601562 14.519531 74.214844 14.800781 73.796875 C 15.078125 73.378906 15.316406 72.9375 15.507812 72.472656 C 15.703125 72.007812 15.847656 71.527344 15.945312 71.035156 C 16.042969 70.542969 16.09375 70.042969 16.09375 69.539062 C 16.09375 69.035156 16.042969 68.539062 15.945312 68.046875 C 15.847656 67.550781 15.703125 67.074219 15.507812 66.609375 C 15.316406 66.144531 15.078125 65.703125 14.800781 65.28125 C 14.519531 64.863281 14.203125 64.476562 13.847656 64.121094 C 13.492188 63.765625 13.105469 63.449219 12.6875 63.167969 C 12.269531 62.890625 11.828125 62.652344 11.363281 62.460938 C 10.898438 62.269531 10.417969 62.121094 9.925781 62.023438 C 9.429688 61.925781 8.933594 61.878906 8.429688 61.878906 Z M 8.429688 61.878906 " fill-opacity="1" fill-rule="nonzero"/><path fill="#f1bc19" d="M 253.640625 4.40625 C 253.132812 4.40625 252.644531 4.503906 252.171875 4.699219 C 251.703125 4.890625 251.289062 5.167969 250.929688 5.527344 C 250.570312 5.886719 250.292969 6.300781 250.101562 6.769531 C 249.90625 7.242188 249.808594 7.730469 249.808594 8.238281 C 249.808594 8.746094 249.90625 9.234375 250.101562 9.703125 C 250.292969 10.171875 250.570312 10.585938 250.929688 10.945312 C 251.289062 11.304688 251.703125 11.582031 252.171875 11.777344 C 252.644531 11.972656 253.132812 12.070312 253.640625 12.070312 C 254.148438 12.070312 254.636719 11.972656 255.105469 11.777344 C 255.574219 11.582031 255.988281 11.304688 256.347656 10.945312 C 256.707031 10.585938 256.984375 10.171875 257.179688 9.703125 C 257.375 9.234375 257.472656 8.746094 257.472656 8.238281 C 257.472656 7.730469 257.375 7.242188 257.179688 6.769531 C 256.984375 6.300781 256.707031 5.886719 256.347656 5.527344 C 255.988281 5.167969 255.574219 4.890625 255.105469 4.699219 C 254.636719 4.503906 254.148438 4.40625 253.640625 4.40625 Z M 253.640625 4.40625 " fill-opacity="1" fill-rule="nonzero"/><path fill="#fce0a2" d="M 150.191406 8.238281 C 147.871094 8.238281 145.554688 8.292969 143.234375 8.410156 C 140.917969 8.523438 138.605469 8.691406 136.296875 8.921875 C 133.988281 9.148438 131.6875 9.429688 129.390625 9.773438 C 127.097656 10.113281 124.808594 10.507812 122.535156 10.960938 C 120.257812 11.414062 117.996094 11.921875 115.746094 12.484375 C 113.496094 13.050781 111.261719 13.667969 109.039062 14.339844 C 106.820312 15.015625 104.617188 15.742188 102.433594 16.523438 C 100.25 17.304688 98.085938 18.140625 95.941406 19.027344 C 93.796875 19.917969 91.675781 20.855469 89.582031 21.847656 C 87.484375 22.839844 85.410156 23.882812 83.363281 24.976562 C 81.320312 26.070312 79.300781 27.214844 77.3125 28.40625 C 75.320312 29.597656 73.363281 30.839844 71.433594 32.128906 C 69.503906 33.417969 67.605469 34.753906 65.742188 36.136719 C 63.878906 37.515625 62.050781 38.945312 60.257812 40.417969 C 58.464844 41.886719 56.707031 43.402344 54.988281 44.960938 C 53.269531 46.519531 51.589844 48.117188 49.949219 49.757812 C 48.308594 51.398438 46.710938 53.078125 45.152344 54.796875 C 43.59375 56.515625 42.078125 58.273438 40.609375 60.066406 C 39.136719 61.859375 37.707031 63.6875 36.328125 65.550781 C 34.945312 67.414062 33.609375 69.3125 32.320312 71.242188 C 31.03125 73.171875 29.789062 75.128906 28.597656 77.121094 C 27.40625 79.109375 26.261719 81.128906 25.167969 83.171875 C 24.074219 85.21875 23.03125 87.292969 22.039062 89.390625 C 21.046875 91.484375 20.109375 93.605469 19.21875 95.75 C 18.332031 97.894531 17.496094 100.058594 16.714844 102.242188 C 15.933594 104.425781 15.207031 106.628906 14.535156 108.847656 C 13.859375 111.070312 13.242188 113.304688 12.675781 115.554688 C 12.113281 117.804688 11.605469 120.066406 11.152344 122.34375 C 10.699219 124.617188 10.304688 126.902344 9.964844 129.199219 C 9.625 131.492188 9.339844 133.796875 9.113281 136.105469 C 8.882812 138.414062 8.714844 140.726562 8.601562 143.042969 C 8.484375 145.359375 8.429688 147.679688 8.429688 150 C 8.429688 152.320312 8.484375 154.640625 8.601562 156.957031 C 8.714844 159.273438 8.882812 161.585938 9.113281 163.894531 C 9.339844 166.203125 9.625 168.507812 9.964844 170.800781 C 10.304688 173.097656 10.699219 175.382812 11.152344 177.65625 C 11.605469 179.933594 12.113281 182.195312 12.675781 184.445312 C 13.242188 186.695312 13.859375 188.929688 14.535156 191.152344 C 15.207031 193.371094 15.933594 195.574219 16.714844 197.757812 C 17.496094 199.941406 18.332031 202.105469 19.21875 204.25 C 20.109375 206.394531 21.046875 208.515625 22.039062 210.609375 C 23.03125 212.707031 24.074219 214.78125 25.167969 216.828125 C 26.261719 218.871094 27.40625 220.890625 28.597656 222.878906 C 29.789062 224.871094 31.03125 226.828125 32.320312 228.757812 C 33.609375 230.6875 34.945312 232.585938 36.328125 234.449219 C 37.707031 236.3125 39.136719 238.140625 40.609375 239.933594 C 42.078125 241.726562 43.59375 243.484375 45.152344 245.203125 C 46.710938 246.921875 48.308594 248.601562 49.949219 250.242188 C 51.589844 251.882812 53.269531 253.480469 54.988281 255.039062 C 56.707031 256.597656 58.464844 258.113281 60.257812 259.582031 C 62.050781 261.054688 63.878906 262.484375 65.742188 263.863281 C 67.605469 265.246094 69.503906 266.582031 71.433594 267.871094 C 73.363281 269.160156 75.320312 270.402344 77.3125 271.59375 C 79.300781 272.785156 81.320312 273.929688 83.363281 275.023438 C 85.410156 276.117188 87.484375 277.160156 89.582031 278.152344 C 91.675781 279.144531 93.796875 280.082031 95.941406 280.972656 C 98.085938 281.859375 100.25 282.695312 102.433594 283.476562 C 104.617188 284.257812 106.820312 284.984375 109.039062 285.65625 C 111.261719 286.332031 113.496094 286.949219 115.746094 287.515625 C 117.996094 288.078125 120.257812 288.585938 122.535156 289.039062 C 124.808594 289.492188 127.097656 289.886719 129.390625 290.226562 C 131.6875 290.570312 133.988281 290.851562 136.296875 291.078125 C 138.605469 291.308594 140.917969 291.476562 143.234375 291.589844 C 145.554688 291.707031 147.871094 291.761719 150.191406 291.761719 C 152.511719 291.761719 154.832031 291.707031 157.148438 291.589844 C 159.464844 291.476562 161.777344 291.308594 164.085938 291.078125 C 166.394531 290.851562 168.699219 290.570312 170.992188 290.226562 C 173.289062 289.886719 175.574219 289.492188 177.847656 289.039062 C 180.125 288.585938 182.386719 288.078125 184.636719 287.515625 C 186.886719 286.949219 189.121094 286.332031 191.34375 285.65625 C 193.5625 284.984375 195.765625 284.257812 197.949219 283.476562 C 200.132812 282.695312 202.296875 281.859375 204.441406 280.972656 C 206.585938 280.082031 208.707031 279.144531 210.804688 278.152344 C 212.898438 277.160156 214.972656 276.117188 217.019531 275.023438 C 219.0625 273.929688 221.082031 272.785156 223.070312 271.59375 C 225.0625 270.402344 227.019531 269.160156 228.949219 267.871094 C 230.878906 266.582031 232.777344 265.246094 234.640625 263.863281 C 236.503906 262.484375 238.332031 261.054688 240.125 259.582031 C 241.917969 258.113281 243.675781 256.597656 245.394531 255.039062 C 247.113281 253.480469 248.792969 251.882812 250.433594 250.242188 C 252.074219 248.601562 253.671875 246.921875 255.230469 245.203125 C 256.789062 243.484375 258.304688 241.726562 259.773438 239.933594 C 261.246094 238.140625 262.675781 236.3125 264.054688 234.449219 C 265.4375 232.585938 266.773438 230.6875 268.0625 228.757812 C 269.351562 226.828125 270.59375 224.871094 271.785156 222.878906 C 272.976562 220.890625 274.121094 218.871094 275.214844 216.828125 C 276.308594 214.78125 277.351562 212.707031 278.34375 210.609375 C 279.335938 208.515625 280.273438 206.394531 281.164062 204.25 C 282.050781 202.105469 282.886719 199.941406 283.667969 197.757812 C 284.449219 195.574219 285.175781 193.371094 285.851562 191.152344 C 286.523438 188.929688 287.140625 186.695312 287.707031 184.445312 C 288.269531 182.195312 288.777344 179.933594 289.230469 177.65625 C 289.683594 175.382812 290.078125 173.097656 290.417969 170.800781 C 290.761719 168.507812 291.042969 166.203125 291.269531 163.894531 C 291.5 161.585938 291.667969 159.273438 291.785156 156.957031 C 291.898438 154.640625 291.953125 152.320312 291.953125 150 C 291.953125 147.679688 291.898438 145.359375 291.785156 143.042969 C 291.667969 140.726562 291.5 138.414062 291.269531 136.105469 C 291.042969 133.796875 290.761719 131.492188 290.417969 129.199219 C 290.078125 126.902344 289.683594 124.617188 289.230469 122.34375 C 288.777344 120.066406 288.269531 117.804688 287.707031 115.554688 C 287.140625 113.304688 286.523438 111.070312 285.851562 108.847656 C 285.175781 106.628906 284.449219 104.425781 283.667969 102.242188 C 282.886719 100.058594 282.050781 97.894531 281.164062 95.75 C 280.273438 93.605469 279.335938 91.484375 278.34375 89.390625 C 277.351562 87.292969 276.308594 85.21875 275.214844 83.171875 C 274.121094 81.128906 272.976562 79.109375 271.785156 77.121094 C 270.59375 75.128906 269.351562 73.171875 268.0625 71.242188 C 266.773438 69.3125 265.4375 67.414062 264.054688 65.550781 C 262.675781 63.6875 261.246094 61.859375 259.773438 60.066406 C 258.304688 58.273438 256.789062 56.515625 255.230469 54.796875 C 253.671875 53.078125 252.074219 51.398438 250.433594 49.757812 C 248.792969 48.117188 247.113281 46.519531 245.394531 44.960938 C 243.675781 43.402344 241.917969 41.886719 240.125 40.417969 C 238.332031 38.945312 236.503906 37.515625 234.640625 36.136719 C 232.777344 34.753906 230.878906 33.417969 228.949219 32.128906 C 227.019531 30.839844 225.0625 29.597656 223.070312 28.40625 C 221.082031 27.214844 219.0625 26.070312 217.019531 24.976562 C 214.972656 23.882812 212.898438 22.839844 210.804688 21.847656 C 208.707031 20.855469 206.585938 19.917969 204.441406 19.027344 C 202.296875 18.140625 200.132812 17.304688 197.949219 16.523438 C 195.765625 15.742188 193.5625 15.015625 191.34375 14.339844 C 189.121094 13.667969 186.886719 13.050781 184.636719 12.484375 C 182.386719 11.921875 180.125 11.414062 177.847656 10.960938 C 175.574219 10.507812 173.289062 10.113281 170.992188 9.773438 C 168.699219 9.429688 166.394531 9.148438 164.085938 8.921875 C 161.777344 8.691406 159.464844 8.523438 157.148438 8.410156 C 154.832031 8.292969 152.511719 8.238281 150.191406 8.238281 Z M 150.191406 8.238281 " fill-opacity="1" fill-rule="nonzero"/><path fill="#f1bc19" d="M 276.628906 0.574219 C 275.621094 0.574219 274.625 0.671875 273.636719 0.871094 C 272.652344 1.066406 271.691406 1.355469 270.761719 1.742188 C 269.832031 2.125 268.949219 2.597656 268.113281 3.15625 C 267.277344 3.714844 266.503906 4.351562 265.792969 5.0625 C 265.078125 5.773438 264.445312 6.550781 263.886719 7.386719 C 263.328125 8.222656 262.855469 9.105469 262.46875 10.035156 C 262.085938 10.964844 261.792969 11.921875 261.597656 12.910156 C 261.402344 13.898438 261.300781 14.894531 261.300781 15.898438 C 261.300781 16.90625 261.402344 17.902344 261.597656 18.890625 C 261.792969 19.878906 262.085938 20.835938 262.46875 21.765625 C 262.855469 22.695312 263.328125 23.578125 263.886719 24.414062 C 264.445312 25.25 265.078125 26.027344 265.792969 26.738281 C 266.503906 27.449219 267.277344 28.085938 268.113281 28.644531 C 268.949219 29.203125 269.832031 29.675781 270.761719 30.058594 C 271.691406 30.445312 272.652344 30.734375 273.636719 30.929688 C 274.625 31.128906 275.621094 31.226562 276.628906 31.226562 C 277.632812 31.226562 278.632812 31.128906 279.617188 30.929688 C 280.605469 30.734375 281.5625 30.445312 282.492188 30.058594 C 283.421875 29.675781 284.304688 29.203125 285.144531 28.644531 C 285.980469 28.085938 286.753906 27.449219 287.464844 26.738281 C 288.175781 26.027344 288.8125 25.25 289.371094 24.414062 C 289.929688 23.578125 290.402344 22.695312 290.789062 21.765625 C 291.171875 20.835938 291.464844 19.878906 291.660156 18.890625 C 291.855469 17.902344 291.953125 16.90625 291.953125 15.898438 C 291.953125 14.894531 291.855469 13.898438 291.660156 12.910156 C 291.464844 11.921875 291.171875 10.964844 290.789062 10.035156 C 290.402344 9.105469 289.929688 8.222656 289.371094 7.386719 C 288.8125 6.550781 288.175781 5.773438 287.464844 5.0625 C 286.753906 4.351562 285.980469 3.714844 285.144531 3.15625 C 284.304688 2.597656 283.421875 2.125 282.492188 1.742188 C 281.5625 1.355469 280.605469 1.066406 279.617188 0.871094 C 278.632812 0.671875 277.632812 0.574219 276.628906 0.574219 Z M 276.628906 0.574219 " fill-opacity="1" fill-rule="nonzero"/><path fill="#ee3e54" d="M 291.953125 42.71875 C 291.449219 42.71875 290.953125 42.769531 290.460938 42.867188 C 289.964844 42.964844 289.488281 43.109375 289.023438 43.304688 C 288.558594 43.496094 288.113281 43.730469 287.695312 44.011719 C 287.277344 44.292969 286.890625 44.609375 286.535156 44.964844 C 286.179688 45.320312 285.863281 45.707031 285.582031 46.125 C 285.304688 46.542969 285.066406 46.984375 284.875 47.449219 C 284.683594 47.914062 284.535156 48.394531 284.4375 48.886719 C 284.339844 49.382812 284.292969 49.878906 284.292969 50.382812 C 284.292969 50.886719 284.339844 51.382812 284.4375 51.878906 C 284.535156 52.371094 284.683594 52.851562 284.875 53.316406 C 285.066406 53.78125 285.304688 54.222656 285.582031 54.640625 C 285.863281 55.058594 286.179688 55.445312 286.535156 55.800781 C 286.890625 56.15625 287.277344 56.476562 287.695312 56.753906 C 288.113281 57.035156 288.558594 57.269531 289.023438 57.460938 C 289.488281 57.65625 289.964844 57.800781 290.460938 57.898438 C 290.953125 57.996094 291.449219 58.046875 291.953125 58.046875 C 292.457031 58.046875 292.957031 57.996094 293.449219 57.898438 C 293.941406 57.800781 294.421875 57.65625 294.886719 57.460938 C 295.351562 57.269531 295.792969 57.035156 296.210938 56.753906 C 296.628906 56.476562 297.015625 56.15625 297.371094 55.800781 C 297.726562 55.445312 298.046875 55.058594 298.324219 54.640625 C 298.605469 54.222656 298.839844 53.78125 299.035156 53.316406 C 299.226562 52.851562 299.371094 52.371094 299.46875 51.878906 C 299.566406 51.382812 299.617188 50.886719 299.617188 50.382812 C 299.617188 49.878906 299.566406 49.382812 299.46875 48.886719 C 299.371094 48.394531 299.226562 47.914062 299.035156 47.449219 C 298.839844 46.984375 298.605469 46.542969 298.324219 46.125 C 298.046875 45.707031 297.726562 45.320312 297.371094 44.964844 C 297.015625 44.609375 296.628906 44.292969 296.210938 44.011719 C 295.792969 43.730469 295.351562 43.496094 294.886719 43.304688 C 294.421875 43.109375 293.941406 42.964844 293.449219 42.867188 C 292.957031 42.769531 292.457031 42.71875 291.953125 42.71875 Z M 291.953125 42.71875 " fill-opacity="1" fill-rule="nonzero"/><path fill="#fbcd59" d="M 268.964844 241.953125 C 268.460938 241.953125 267.964844 242.003906 267.46875 242.101562 C 266.976562 242.199219 266.496094 242.34375 266.03125 242.539062 C 265.566406 242.730469 265.125 242.964844 264.707031 243.246094 C 264.289062 243.523438 263.902344 243.84375 263.546875 244.199219 C 263.191406 244.554688 262.875 244.941406 262.59375 245.359375 C 262.316406 245.777344 262.078125 246.21875 261.886719 246.683594 C 261.695312 247.148438 261.546875 247.628906 261.449219 248.121094 C 261.351562 248.617188 261.300781 249.113281 261.300781 249.617188 C 261.300781 250.121094 261.351562 250.617188 261.449219 251.113281 C 261.546875 251.605469 261.695312 252.085938 261.886719 252.550781 C 262.078125 253.015625 262.316406 253.457031 262.59375 253.875 C 262.875 254.292969 263.191406 254.679688 263.546875 255.035156 C 263.902344 255.390625 264.289062 255.707031 264.707031 255.988281 C 265.125 256.269531 265.566406 256.503906 266.03125 256.695312 C 266.496094 256.890625 266.976562 257.035156 267.46875 257.132812 C 267.964844 257.230469 268.460938 257.28125 268.964844 257.28125 C 269.46875 257.28125 269.96875 257.230469 270.460938 257.132812 C 270.953125 257.035156 271.433594 256.890625 271.898438 256.695312 C 272.363281 256.503906 272.804688 256.269531 273.222656 255.988281 C 273.640625 255.707031 274.027344 255.390625 274.382812 255.035156 C 274.738281 254.679688 275.058594 254.292969 275.335938 253.875 C 275.617188 253.457031 275.851562 253.015625 276.046875 252.550781 C 276.238281 252.085938 276.382812 251.605469 276.480469 251.113281 C 276.578125 250.617188 276.628906 250.121094 276.628906 249.617188 C 276.628906 249.113281 276.578125 248.617188 276.480469 248.121094 C 276.382812 247.628906 276.238281 247.148438 276.046875 246.683594 C 275.851562 246.21875 275.617188 245.777344 275.335938 245.359375 C 275.058594 244.941406 274.738281 244.554688 274.382812 244.199219 C 274.027344 243.84375 273.640625 243.523438 273.222656 243.246094 C 272.804688 242.964844 272.363281 242.730469 271.898438 242.539062 C 271.433594 242.34375 270.953125 242.199219 270.460938 242.101562 C 269.96875 242.003906 269.46875 241.953125 268.964844 241.953125 Z M 16.09375 184.484375 C 15.085938 184.484375 14.089844 184.582031 13.101562 184.777344 C 12.113281 184.972656 11.15625 185.265625 10.226562 185.648438 C 9.296875 186.035156 8.414062 186.507812 7.578125 187.066406 C 6.742188 187.625 5.964844 188.261719 5.253906 188.972656 C 4.542969 189.683594 3.90625 190.457031 3.347656 191.292969 C 2.789062 192.128906 2.316406 193.015625 1.933594 193.945312 C 1.546875 194.875 1.257812 195.832031 1.0625 196.820312 C 0.863281 197.804688 0.765625 198.800781 0.765625 199.808594 C 0.765625 200.816406 0.863281 201.8125 1.0625 202.796875 C 1.257812 203.785156 1.546875 204.742188 1.933594 205.671875 C 2.316406 206.601562 2.789062 207.484375 3.347656 208.324219 C 3.90625 209.160156 4.542969 209.933594 5.253906 210.644531 C 5.964844 211.355469 6.742188 211.992188 7.578125 212.550781 C 8.414062 213.109375 9.296875 213.582031 10.226562 213.96875 C 11.15625 214.351562 12.113281 214.644531 13.101562 214.839844 C 14.089844 215.035156 15.085938 215.132812 16.09375 215.132812 C 17.097656 215.132812 18.09375 215.035156 19.082031 214.839844 C 20.070312 214.644531 21.027344 214.351562 21.957031 213.96875 C 22.886719 213.582031 23.769531 213.109375 24.605469 212.550781 C 25.441406 211.992188 26.21875 211.355469 26.929688 210.644531 C 27.640625 209.933594 28.277344 209.160156 28.835938 208.324219 C 29.394531 207.484375 29.867188 206.601562 30.25 205.671875 C 30.636719 204.742188 30.925781 203.785156 31.125 202.796875 C 31.320312 201.8125 31.417969 200.816406 31.417969 199.808594 C 31.417969 198.800781 31.320312 197.804688 31.125 196.820312 C 30.925781 195.832031 30.636719 194.875 30.25 193.945312 C 29.867188 193.015625 29.394531 192.128906 28.835938 191.292969 C 28.277344 190.457031 27.640625 189.683594 26.929688 188.972656 C 26.21875 188.261719 25.441406 187.625 24.605469 187.066406 C 23.769531 186.507812 22.886719 186.035156 21.957031 185.648438 C 21.027344 185.265625 20.070312 184.972656 19.082031 184.777344 C 18.09375 184.582031 17.097656 184.484375 16.09375 184.484375 Z M 16.09375 184.484375 " fill-opacity="1" fill-rule="nonzero"/><path fill="#ee3e54" d="M 54.40625 284.097656 C 53.902344 284.101562 53.40625 284.148438 52.910156 284.246094 C 52.417969 284.34375 51.9375 284.492188 51.472656 284.683594 C 51.007812 284.875 50.566406 285.113281 50.148438 285.390625 C 49.730469 285.671875 49.34375 285.988281 48.988281 286.34375 C 48.632812 286.699219 48.3125 287.085938 48.035156 287.503906 C 47.753906 287.921875 47.519531 288.363281 47.328125 288.828125 C 47.132812 289.292969 46.988281 289.773438 46.890625 290.265625 C 46.792969 290.761719 46.742188 291.257812 46.742188 291.761719 C 46.742188 292.265625 46.792969 292.765625 46.890625 293.257812 C 46.988281 293.75 47.132812 294.230469 47.328125 294.695312 C 47.519531 295.160156 47.753906 295.601562 48.035156 296.019531 C 48.3125 296.4375 48.632812 296.824219 48.988281 297.179688 C 49.34375 297.535156 49.730469 297.855469 50.148438 298.132812 C 50.566406 298.414062 51.007812 298.648438 51.472656 298.84375 C 51.9375 299.035156 52.417969 299.179688 52.910156 299.277344 C 53.40625 299.375 53.902344 299.425781 54.40625 299.425781 C 54.910156 299.425781 55.40625 299.375 55.902344 299.277344 C 56.394531 299.179688 56.875 299.035156 57.339844 298.84375 C 57.804688 298.648438 58.246094 298.414062 58.664062 298.132812 C 59.082031 297.855469 59.46875 297.535156 59.824219 297.179688 C 60.179688 296.824219 60.496094 296.4375 60.777344 296.019531 C 61.058594 295.601562 61.292969 295.160156 61.484375 294.695312 C 61.679688 294.230469 61.824219 293.75 61.921875 293.257812 C 62.019531 292.765625 62.070312 292.265625 62.070312 291.761719 C 62.070312 291.257812 62.019531 290.761719 61.921875 290.265625 C 61.824219 289.773438 61.679688 289.292969 61.484375 288.828125 C 61.292969 288.363281 61.058594 287.921875 60.777344 287.503906 C 60.496094 287.085938 60.179688 286.699219 59.824219 286.34375 C 59.46875 285.988281 59.082031 285.671875 58.664062 285.390625 C 58.246094 285.113281 57.804688 284.875 57.339844 284.683594 C 56.875 284.492188 56.394531 284.34375 55.902344 284.246094 C 55.40625 284.148438 54.910156 284.101562 54.40625 284.097656 Z M 54.40625 284.097656 " fill-opacity="1" fill-rule="nonzero"/><path fill="#ffffff" d="M 29.5 153.832031 C 28.871094 153.832031 28.25 153.894531 27.632812 154.015625 C 27.015625 154.136719 26.417969 154.320312 25.835938 154.558594 C 25.253906 154.800781 24.703125 155.097656 24.179688 155.445312 C 23.65625 155.796875 23.171875 156.191406 22.730469 156.636719 C 22.285156 157.082031 21.886719 157.566406 21.539062 158.089844 C 21.1875 158.613281 20.894531 159.164062 20.652344 159.746094 C 20.410156 160.324219 20.230469 160.925781 20.105469 161.542969 C 19.984375 162.15625 19.921875 162.78125 19.921875 163.410156 C 19.921875 164.039062 19.984375 164.660156 20.105469 165.277344 C 20.230469 165.894531 20.410156 166.496094 20.652344 167.074219 C 20.894531 167.65625 21.1875 168.207031 21.539062 168.730469 C 21.886719 169.253906 22.285156 169.738281 22.730469 170.183594 C 23.171875 170.628906 23.65625 171.023438 24.179688 171.375 C 24.703125 171.722656 25.253906 172.019531 25.835938 172.257812 C 26.417969 172.5 27.015625 172.683594 27.632812 172.804688 C 28.25 172.925781 28.871094 172.988281 29.5 172.988281 C 30.128906 172.988281 30.753906 172.925781 31.371094 172.804688 C 31.988281 172.683594 32.585938 172.5 33.167969 172.257812 C 33.75 172.019531 34.300781 171.722656 34.824219 171.375 C 35.347656 171.023438 35.832031 170.628906 36.273438 170.183594 C 36.71875 169.738281 37.117188 169.253906 37.464844 168.730469 C 37.816406 168.207031 38.109375 167.65625 38.351562 167.074219 C 38.59375 166.496094 38.773438 165.894531 38.894531 165.277344 C 39.019531 164.660156 39.082031 164.039062 39.082031 163.410156 C 39.082031 162.78125 39.019531 162.15625 38.894531 161.542969 C 38.773438 160.925781 38.59375 160.324219 38.351562 159.746094 C 38.109375 159.164062 37.816406 158.613281 37.464844 158.089844 C 37.117188 157.566406 36.71875 157.082031 36.273438 156.636719 C 35.832031 156.191406 35.347656 155.796875 34.824219 155.445312 C 34.300781 155.097656 33.75 154.800781 33.167969 154.558594 C 32.585938 154.320312 31.988281 154.136719 31.371094 154.015625 C 30.753906 153.894531 30.128906 153.832031 29.5 153.832031 Z M 29.5 153.832031 " fill-opacity="1" fill-rule="nonzero"/><path fill="#f1bc19" d="M 39.082031 211.300781 C 38.574219 211.300781 38.082031 211.398438 37.613281 211.59375 C 37.144531 211.789062 36.730469 212.066406 36.371094 212.425781 C 36.011719 212.785156 35.734375 213.199219 35.539062 213.667969 C 35.347656 214.136719 35.25 214.625 35.25 215.132812 C 35.25 215.640625 35.347656 216.132812 35.539062 216.601562 C 35.734375 217.070312 36.011719 217.484375 36.371094 217.84375 C 36.730469 218.203125 37.144531 218.480469 37.613281 218.671875 C 38.082031 218.867188 38.574219 218.964844 39.082031 218.964844 C 39.589844 218.964844 40.078125 218.867188 40.546875 218.671875 C 41.015625 218.480469 41.429688 218.203125 41.789062 217.84375 C 42.148438 217.484375 42.425781 217.070312 42.621094 216.601562 C 42.816406 216.132812 42.910156 215.640625 42.910156 215.132812 C 42.910156 214.625 42.816406 214.136719 42.621094 213.667969 C 42.425781 213.199219 42.148438 212.785156 41.789062 212.425781 C 41.429688 212.066406 41.015625 211.789062 40.546875 211.59375 C 40.078125 211.398438 39.589844 211.300781 39.082031 211.300781 Z M 39.082031 211.300781 " fill-opacity="1" fill-rule="nonzero"/><path fill="#ffffff" d="M 265.132812 84.867188 C 264.625 84.867188 264.136719 84.964844 263.667969 85.15625 C 263.199219 85.351562 262.785156 85.628906 262.425781 85.988281 C 262.066406 86.347656 261.789062 86.761719 261.59375 87.230469 C 261.398438 87.699219 261.300781 88.1875 261.300781 88.699219 C 261.300781 89.207031 261.398438 89.695312 261.59375 90.164062 C 261.789062 90.632812 262.066406 91.046875 262.425781 91.40625 C 262.785156 91.765625 263.199219 92.042969 263.667969 92.238281 C 264.136719 92.429688 264.625 92.527344 265.132812 92.527344 C 265.640625 92.527344 266.132812 92.429688 266.601562 92.238281 C 267.070312 92.042969 267.484375 91.765625 267.84375 91.40625 C 268.203125 91.046875 268.480469 90.632812 268.671875 90.164062 C 268.867188 89.695312 268.964844 89.207031 268.964844 88.699219 C 268.964844 88.1875 268.867188 87.699219 268.671875 87.230469 C 268.480469 86.761719 268.203125 86.347656 267.84375 85.988281 C 267.484375 85.628906 267.070312 85.351562 266.601562 85.15625 C 266.132812 84.964844 265.640625 84.867188 265.132812 84.867188 Z M 265.132812 84.867188 " fill-opacity="1" fill-rule="nonzero"/><path fill="#a3a3cd" d="M 108.792969 245.324219 C 108.765625 238.726562 108.730469 226.636719 108.816406 219.46875 C 108.882812 214.246094 105.882812 212.199219 103.261719 210.996094 C 101.480469 210.175781 99.40625 209.453125 97.214844 208.683594 C 94.117188 207.59375 90.917969 206.46875 88.78125 205.136719 C 79.363281 199.277344 72.976562 190.199219 69.257812 177.386719 C 65.167969 163.300781 63.878906 148.03125 65.316406 130.695312 C 65.953125 123.042969 67.058594 115.011719 68.695312 106.140625 C 71.753906 89.5 81.449219 77.683594 98.3125 70.007812 C 107.265625 65.9375 117.164062 63.40625 130.417969 61.804688 C 136.308594 61.089844 142.445312 60.726562 148.648438 60.726562 C 157.511719 60.726562 166.613281 61.4375 176.46875 62.886719 C 188.773438 64.703125 201.730469 67.457031 213.105469 75.214844 C 221.691406 81.070312 227.546875 89.367188 230.519531 99.886719 C 235.339844 116.941406 236.722656 135.890625 234.742188 157.816406 C 233.652344 169.898438 230.753906 180.519531 225.894531 190.285156 C 221.574219 198.957031 214.605469 205.183594 204.589844 209.324219 C 193.054688 214.09375 180.433594 215.121094 169.507812 215.707031 C 160.207031 216.21875 150.722656 216.570312 141.328125 216.75 C 136.984375 216.839844 135.476562 218.542969 133.726562 220.511719 L 132.886719 221.453125 C 127.652344 227.113281 114.570312 239.769531 108.792969 245.324219 Z M 108.792969 245.324219 " fill-opacity="1" fill-rule="nonzero"/><path fill="#472b29" d="M 148.652344 63.410156 C 157.386719 63.410156 166.355469 64.105469 176.078125 65.539062 C 188.066406 67.308594 200.667969 69.976562 211.597656 77.433594 C 219.757812 83 225.101562 90.582031 227.941406 100.617188 C 232.675781 117.355469 234.027344 135.984375 232.078125 157.574219 C 231.015625 169.316406 228.210938 179.625 223.5 189.09375 C 219.480469 197.15625 212.960938 202.964844 203.570312 206.847656 C 192.429688 211.453125 180.074219 212.457031 169.367188 213.035156 C 160.023438 213.539062 150.570312 213.890625 141.277344 214.074219 C 136.167969 214.175781 134.011719 216.15625 131.726562 218.734375 C 131.484375 219.011719 131.21875 219.308594 130.914062 219.636719 C 126.832031 224.054688 117.886719 232.808594 111.457031 239.035156 C 111.441406 232.605469 111.4375 224.734375 111.5 219.503906 C 111.5625 214.363281 109.234375 210.785156 104.382812 208.5625 C 102.488281 207.695312 100.261719 206.90625 98.109375 206.152344 C 95.148438 205.113281 92.089844 204.035156 90.203125 202.863281 C 81.371094 197.363281 75.363281 188.789062 71.839844 176.640625 C 67.84375 162.878906 66.585938 147.921875 67.996094 130.917969 C 68.625 123.363281 69.714844 115.417969 71.335938 106.628906 C 74.230469 90.914062 83.421875 79.734375 99.433594 72.457031 C 108.113281 68.503906 117.773438 66.046875 130.75 64.472656 C 136.527344 63.765625 142.550781 63.410156 148.652344 63.410156 M 148.652344 58.046875 C 142.484375 58.046875 136.300781 58.390625 130.101562 59.140625 C 118.722656 60.519531 107.683594 62.804688 97.207031 67.566406 C 80.597656 75.121094 69.441406 87.269531 66.058594 105.652344 C 64.546875 113.859375 63.335938 122.15625 62.648438 130.472656 C 61.3125 146.546875 62.152344 162.535156 66.683594 178.128906 C 70.203125 190.257812 76.433594 200.605469 87.363281 207.410156 C 91.308594 209.867188 97.90625 211.488281 102.140625 213.433594 C 104.828125 214.664062 106.171875 216.175781 106.132812 219.429688 C 106.011719 229.746094 106.132812 249.960938 106.132812 249.960938 L 107.832031 249.960938 C 107.832031 249.960938 127.945312 230.746094 134.855469 223.273438 C 137.164062 220.777344 137.699219 219.503906 141.382812 219.429688 C 150.8125 219.242188 160.242188 218.894531 169.65625 218.382812 C 181.996094 217.714844 194.15625 216.53125 205.617188 211.796875 C 215.535156 207.699219 223.410156 201.285156 228.296875 191.476562 C 233.542969 180.9375 236.355469 169.757812 237.414062 158.050781 C 239.210938 138.164062 238.5625 118.472656 233.097656 99.148438 C 230.023438 88.277344 224.011719 79.402344 214.617188 72.992188 C 203.214844 65.214844 190.144531 62.1875 176.859375 60.226562 C 167.488281 58.851562 158.085938 58.046875 148.652344 58.046875 Z M 148.652344 58.046875 " fill-opacity="1" fill-rule="nonzero"/><path fill="#a3a3cd" d="M 98.292969 195.929688 C 101.550781 197.921875 107 199.242188 110.5 200.820312 " fill-opacity="1" fill-rule="nonzero"/><path fill="#472b29" d="M 110.5 202.734375 C 110.238281 202.734375 109.964844 202.683594 109.710938 202.566406 C 108.375 201.964844 106.746094 201.402344 105.070312 200.824219 C 102.300781 199.871094 99.445312 198.882812 97.296875 197.566406 C 96.390625 197.011719 96.105469 195.835938 96.660156 194.929688 C 97.214844 194.03125 98.394531 193.734375 99.296875 194.296875 C 101.089844 195.390625 103.75 196.308594 106.320312 197.199219 C 108.117188 197.820312 109.863281 198.425781 111.292969 199.070312 C 112.257812 199.503906 112.6875 200.640625 112.25 201.605469 C 111.921875 202.3125 111.230469 202.734375 110.5 202.734375 Z M 110.5 202.734375 " fill-opacity="1" fill-rule="nonzero"/><path fill="#a3a3cd" d="M 81.203125 172.171875 C 82.820312 177.640625 85.125 182.664062 88.40625 186.992188 " fill-opacity="1" fill-rule="nonzero"/><path fill="#472b29" d="M 88.410156 188.90625 C 87.832031 188.90625 87.257812 188.648438 86.882812 188.148438 C 83.621094 183.847656 81.160156 178.800781 79.367188 172.714844 C 79.070312 171.699219 79.648438 170.636719 80.664062 170.335938 C 81.683594 170.054688 82.742188 170.617188 83.042969 171.632812 C 84.703125 177.265625 86.957031 181.910156 89.933594 185.839844 C 90.574219 186.683594 90.410156 187.882812 89.5625 188.519531 C 89.21875 188.78125 88.8125 188.90625 88.410156 188.90625 Z M 88.410156 188.90625 " fill-opacity="1" fill-rule="nonzero"/><path fill="#a3a3cd" d="M 77.871094 133.5 C 77.054688 143.140625 77.222656 152.742188 78.875 162.207031 " fill-opacity="1" fill-rule="nonzero"/><path fill="#472b29" d="M 78.875 164.125 C 77.960938 164.125 77.148438 163.472656 76.988281 162.539062 C 75.402344 153.476562 75.070312 143.921875 75.960938 133.34375 C 76.050781 132.296875 76.988281 131.585938 78.03125 131.597656 C 79.085938 131.6875 79.867188 132.613281 79.777344 133.667969 C 78.910156 143.914062 79.234375 153.140625 80.761719 161.882812 C 80.941406 162.917969 80.246094 163.914062 79.203125 164.097656 C 79.097656 164.117188 78.984375 164.125 78.875 164.125 Z M 78.875 164.125 " fill-opacity="1" fill-rule="nonzero"/><path fill="#a3a3cd" d="M 222.25 155.886719 C 223.734375 139.75 223.199219 123.769531 218.6875 108.09375 " fill-opacity="1" fill-rule="nonzero"/><path fill="#472b29" d="M 222.25 157.800781 C 222.191406 157.800781 222.128906 157.796875 222.074219 157.792969 C 221.019531 157.699219 220.242188 156.761719 220.339844 155.707031 C 221.980469 137.898438 220.835938 122.492188 216.84375 108.621094 C 216.550781 107.601562 217.136719 106.539062 218.152344 106.25 C 219.167969 105.941406 220.234375 106.542969 220.523438 107.558594 C 224.652344 121.898438 225.839844 137.761719 224.15625 156.0625 C 224.066406 157.058594 223.230469 157.800781 222.25 157.800781 Z M 222.25 157.800781 " fill-opacity="1" fill-rule="nonzero"/><path fill="#a3a3cd" d="M 214.710938 183.003906 C 217.398438 177.699219 219.3125 172.203125 220.589844 166.519531 " fill-opacity="1" fill-rule="nonzero"/><path fill="#472b29" d="M 214.710938 184.917969 C 214.421875 184.917969 214.125 184.851562 213.847656 184.710938 C 212.902344 184.234375 212.523438 183.082031 213.003906 182.136719 C 215.523438 177.15625 217.449219 171.765625 218.71875 166.097656 C 218.953125 165.070312 219.980469 164.417969 221.007812 164.648438 C 222.042969 164.882812 222.691406 165.902344 222.457031 166.9375 C 221.113281 172.914062 219.085938 178.609375 216.417969 183.867188 C 216.085938 184.535156 215.410156 184.917969 214.710938 184.917969 Z M 214.710938 184.917969 " fill-opacity="1" fill-rule="nonzero"/><path fill="#ffffff" d="M 95.855469 112.53125 C 96.070312 102.707031 103.597656 97.1875 111.207031 95.511719 C 114.113281 94.871094 116.6875 95.898438 118.847656 97.957031 C 124.816406 103.65625 129.53125 110.257812 133.09375 117.671875 C 134.652344 120.917969 133.949219 123.796875 131.300781 126.214844 C 130.75 126.714844 130.175781 127.183594 129.582031 127.632812 C 123.539062 132.179688 122.648438 135.617188 125.871094 142.457031 C 131.359375 154.101562 140.457031 161.914062 152.234375 166.765625 C 155.339844 168.046875 158.257812 167.414062 160.632812 164.898438 C 160.949219 164.558594 161.308594 164.238281 161.542969 163.847656 C 166.1875 156.101562 172.917969 156.871094 179.132812 161.289062 C 183.21875 164.191406 187.1875 167.25 191.226562 170.210938 C 197.378906 174.726562 197.324219 178.976562 193.582031 185.09375 C 190.851562 189.558594 186.757812 192.652344 181.9375 194.667969 C 178.417969 196.136719 174.824219 195.828125 171.355469 194.355469 C 142.234375 182.035156 119.402344 162.613281 104.304688 134.699219 C 101.195312 128.945312 99.03125 122.6875 96.550781 116.609375 C 96.042969 115.363281 96.074219 113.898438 95.855469 112.53125 Z M 167.257812 140.597656 C 165.140625 140.597656 163.425781 138.886719 163.425781 136.765625 C 163.425781 129.664062 157.644531 123.882812 150.539062 123.882812 C 148.425781 123.882812 146.707031 122.167969 146.707031 120.050781 C 146.707031 117.929688 148.425781 116.21875 150.539062 116.21875 C 161.875 116.21875 171.089844 125.4375 171.089844 136.765625 C 171.089844 138.886719 169.371094 140.597656 167.257812 140.597656 Z M 167.257812 140.597656 " fill-opacity="1" fill-rule="nonzero"/><path fill="#ffffff" d="M 183.234375 140.945312 C 183.023438 140.945312 182.808594 140.925781 182.59375 140.894531 C 180.507812 140.539062 179.101562 138.5625 179.457031 136.480469 C 179.683594 135.125 179.796875 133.734375 179.796875 132.339844 C 179.796875 118.652344 168.660156 107.511719 154.96875 107.511719 C 153.574219 107.511719 152.179688 107.628906 150.828125 107.859375 C 148.738281 108.183594 146.761719 106.800781 146.414062 104.714844 C 146.066406 102.628906 147.46875 100.652344 149.554688 100.300781 C 151.324219 100.003906 153.148438 99.855469 154.96875 99.855469 C 172.886719 99.855469 187.460938 114.433594 187.460938 132.34375 C 187.460938 134.167969 187.304688 135.984375 187.007812 137.753906 C 186.695312 139.621094 185.074219 140.945312 183.234375 140.945312 Z M 183.234375 140.945312 " fill-opacity="1" fill-rule="nonzero"/><path fill="#ffffff" d="M 198.890625 141.300781 C 198.609375 141.300781 198.324219 141.269531 198.039062 141.207031 C 195.972656 140.738281 194.683594 138.691406 195.144531 136.625 C 195.757812 133.917969 196.070312 131.132812 196.070312 128.347656 C 196.070312 107.835938 179.378906 91.144531 158.867188 91.144531 C 156.082031 91.144531 153.296875 91.457031 150.589844 92.066406 C 148.519531 92.519531 146.476562 91.234375 146.007812 89.167969 C 145.539062 87.105469 146.839844 85.058594 148.898438 84.589844 C 152.160156 83.859375 155.511719 83.484375 158.867188 83.484375 C 183.605469 83.484375 203.730469 103.609375 203.730469 128.347656 C 203.730469 131.703125 203.355469 135.058594 202.621094 138.316406 C 202.222656 140.089844 200.640625 141.300781 198.890625 141.300781 Z M 198.890625 141.300781 " fill-opacity="1" fill-rule="nonzero"/><path fill="#472b29" d="M 152.121094 185.574219 C 151.953125 185.574219 151.785156 185.527344 151.628906 185.4375 C 131.023438 173.066406 114.816406 156.140625 103.464844 135.152344 C 101.105469 130.792969 99.269531 126.101562 97.492188 121.558594 C 96.890625 120.027344 96.289062 118.492188 95.667969 116.96875 C 95.265625 115.988281 95.160156 114.949219 95.058594 113.9375 C 95.015625 113.515625 94.972656 113.097656 94.902344 112.6875 C 95.125 101.855469 103.363281 96.261719 110.996094 94.574219 C 114.019531 93.890625 116.960938 94.835938 119.5 97.265625 C 125.445312 102.929688 130.300781 109.65625 133.949219 117.253906 C 135.660156 120.816406 134.964844 124.160156 131.9375 126.914062 C 131.371094 127.4375 130.769531 127.921875 130.148438 128.390625 C 124.441406 132.6875 123.703125 135.625 126.726562 142.042969 C 126.953125 142.519531 126.746094 143.089844 126.269531 143.316406 C 125.792969 143.542969 125.21875 143.339844 124.992188 142.859375 C 121.570312 135.597656 122.542969 131.710938 128.992188 126.859375 C 129.5625 126.433594 130.113281 125.980469 130.640625 125.5 C 133.042969 123.308594 133.558594 120.882812 132.214844 118.082031 C 128.671875 110.691406 123.945312 104.152344 118.171875 98.648438 C 116.085938 96.65625 113.804688 95.90625 111.398438 96.445312 C 104.476562 97.96875 97.003906 103.003906 96.796875 112.550781 C 96.859375 112.824219 96.902344 113.285156 96.949219 113.746094 C 97.042969 114.65625 97.125 115.519531 97.425781 116.242188 C 98.050781 117.773438 98.65625 119.316406 99.261719 120.859375 C 101.015625 125.34375 102.835938 129.984375 105.132812 134.238281 C 116.320312 154.917969 132.292969 171.59375 152.601562 183.796875 C 153.054688 184.066406 153.203125 184.660156 152.925781 185.109375 C 152.761719 185.410156 152.445312 185.574219 152.121094 185.574219 Z M 152.121094 185.574219 " fill-opacity="1" fill-rule="nonzero"/><path fill="#472b29" d="M 177.175781 196.582031 C 175.167969 196.582031 173.101562 196.132812 170.980469 195.238281 C 168.007812 193.976562 165.058594 192.625 162.214844 191.214844 C 161.738281 190.980469 161.546875 190.40625 161.78125 189.929688 C 162.023438 189.457031 162.59375 189.273438 163.066406 189.5 C 165.875 190.894531 168.789062 192.230469 171.730469 193.472656 C 175.214844 194.949219 178.523438 195.046875 181.570312 193.777344 C 186.535156 191.699219 190.300781 188.609375 192.765625 184.585938 C 196.523438 178.445312 195.972656 174.886719 190.660156 170.976562 C 189.132812 169.859375 187.617188 168.722656 186.101562 167.59375 C 183.609375 165.730469 181.117188 163.867188 178.582031 162.066406 C 175.023438 159.53125 171.644531 158.523438 168.785156 159.101562 C 166.296875 159.628906 164.136719 161.386719 162.367188 164.335938 C 162.125 164.734375 161.816406 165.058594 161.539062 165.335938 L 161.332031 165.550781 C 158.703125 168.335938 155.34375 169.078125 151.875 167.652344 C 145.671875 165.09375 140.285156 161.738281 135.859375 157.6875 C 135.46875 157.324219 135.445312 156.71875 135.800781 156.328125 C 136.164062 155.9375 136.765625 155.921875 137.152344 156.269531 C 141.410156 160.171875 146.609375 163.402344 152.601562 165.875 C 155.363281 167.015625 157.835938 166.457031 159.9375 164.230469 L 160.171875 163.988281 C 160.394531 163.761719 160.605469 163.550781 160.726562 163.34375 C 162.78125 159.917969 165.359375 157.859375 168.394531 157.222656 C 171.78125 156.515625 175.683594 157.648438 179.699219 160.496094 C 182.246094 162.308594 184.75 164.179688 187.257812 166.050781 C 188.769531 167.179688 190.28125 168.308594 191.800781 169.429688 C 197.921875 173.921875 198.679688 178.605469 194.410156 185.582031 C 191.730469 189.957031 187.664062 193.304688 182.3125 195.539062 C 180.652344 196.238281 178.9375 196.582031 177.175781 196.582031 Z M 177.175781 196.582031 " fill-opacity="1" fill-rule="nonzero"/><path fill="#472b29" d="M 131.914062 153.078125 C 131.636719 153.078125 131.359375 152.957031 131.171875 152.71875 C 129.921875 151.1875 128.753906 149.542969 127.699219 147.847656 C 127.421875 147.398438 127.558594 146.808594 128.011719 146.523438 C 128.460938 146.257812 129.050781 146.390625 129.328125 146.835938 C 130.339844 148.46875 131.460938 150.042969 132.660156 151.515625 C 132.992188 151.921875 132.929688 152.527344 132.519531 152.867188 C 132.34375 153.003906 132.128906 153.078125 131.914062 153.078125 Z M 131.914062 153.078125 " fill-opacity="1" fill-rule="nonzero"/><path fill="#472b29" d="M 167.257812 141.554688 C 164.617188 141.554688 162.46875 139.40625 162.46875 136.765625 C 162.46875 130.1875 157.117188 124.839844 150.539062 124.839844 C 147.898438 124.839844 145.75 122.691406 145.75 120.050781 C 145.75 117.410156 147.898438 115.261719 150.539062 115.261719 C 152.042969 115.261719 153.542969 115.417969 155.003906 115.726562 C 155.519531 115.835938 155.855469 116.34375 155.742188 116.863281 C 155.636719 117.378906 155.117188 117.722656 154.609375 117.597656 C 153.28125 117.316406 151.910156 117.175781 150.539062 117.175781 C 148.953125 117.175781 147.667969 118.46875 147.667969 120.050781 C 147.667969 121.632812 148.953125 122.921875 150.539062 122.921875 C 158.171875 122.921875 164.382812 129.132812 164.382812 136.765625 C 164.382812 138.347656 165.671875 139.640625 167.257812 139.640625 C 168.84375 139.640625 170.128906 138.347656 170.128906 136.765625 C 170.128906 129.671875 166.273438 123.113281 160.058594 119.648438 C 159.59375 119.390625 159.429688 118.804688 159.6875 118.339844 C 159.945312 117.875 160.523438 117.707031 160.988281 117.96875 C 167.808594 121.773438 172.046875 128.976562 172.046875 136.761719 C 172.046875 139.40625 169.898438 141.554688 167.257812 141.554688 Z M 167.257812 141.554688 " fill-opacity="1" fill-rule="nonzero"/><path fill="#472b29" d="M 162.285156 101.636719 C 162.210938 101.636719 162.140625 101.628906 162.070312 101.609375 C 159.75 101.074219 157.359375 100.804688 154.96875 100.804688 C 154.441406 100.804688 154.011719 100.375 154.011719 99.847656 C 154.011719 99.316406 154.441406 98.890625 154.96875 98.890625 C 157.503906 98.890625 160.039062 99.175781 162.5 99.746094 C 163.015625 99.863281 163.332031 100.378906 163.21875 100.898438 C 163.113281 101.335938 162.71875 101.636719 162.285156 101.636719 Z M 162.285156 101.636719 " fill-opacity="1" fill-rule="nonzero"/><path fill="#472b29" d="M 183.234375 141.902344 C 182.972656 141.902344 182.710938 141.882812 182.445312 141.839844 C 181.171875 141.625 180.070312 140.933594 179.324219 139.890625 C 178.585938 138.847656 178.296875 137.574219 178.507812 136.3125 C 178.726562 135.011719 178.839844 133.675781 178.839844 132.335938 C 178.839844 119.171875 168.128906 108.46875 154.96875 108.46875 C 153.628906 108.46875 152.289062 108.578125 150.984375 108.796875 C 148.355469 109.230469 145.898438 107.441406 145.46875 104.875 C 145.03125 102.265625 146.792969 99.792969 149.394531 99.355469 C 149.910156 99.273438 150.410156 99.613281 150.5 100.136719 C 150.585938 100.664062 150.234375 101.15625 149.710938 101.242188 C 148.148438 101.503906 147.09375 102.992188 147.355469 104.554688 C 147.617188 106.097656 149.117188 107.15625 150.679688 106.90625 C 152.074219 106.671875 153.519531 106.550781 154.96875 106.550781 C 169.1875 106.550781 180.753906 118.121094 180.753906 132.335938 C 180.753906 133.78125 180.636719 135.226562 180.398438 136.632812 C 180.269531 137.390625 180.445312 138.148438 180.890625 138.777344 C 181.332031 139.40625 181.996094 139.816406 182.75 139.949219 C 184.234375 140.136719 185.796875 139.136719 186.0625 137.59375 C 186.351562 135.878906 186.496094 134.105469 186.496094 132.339844 C 186.496094 119.832031 179.082031 108.492188 167.597656 103.449219 C 167.113281 103.238281 166.894531 102.675781 167.105469 102.1875 C 167.320312 101.707031 167.890625 101.488281 168.371094 101.699219 C 180.546875 107.046875 188.414062 119.074219 188.414062 132.339844 C 188.414062 134.214844 188.257812 136.09375 187.949219 137.910156 C 187.5625 140.222656 185.578125 141.902344 183.234375 141.902344 Z M 183.234375 141.902344 " fill-opacity="1" fill-rule="nonzero"/><path fill="#472b29" d="M 198.890625 142.257812 C 198.53125 142.257812 198.175781 142.21875 197.832031 142.140625 C 195.257812 141.558594 193.632812 138.988281 194.214844 136.414062 C 194.808594 133.777344 195.109375 131.066406 195.109375 128.347656 C 195.109375 108.363281 178.851562 92.101562 158.867188 92.101562 C 156.152344 92.101562 153.441406 92.40625 150.800781 93 C 148.214844 93.558594 145.652344 91.9375 145.074219 89.382812 C 144.492188 86.808594 146.109375 84.238281 148.691406 83.65625 C 152.027344 82.90625 155.449219 82.523438 158.867188 82.523438 C 159.394531 82.523438 159.824219 82.953125 159.824219 83.484375 C 159.824219 84.011719 159.394531 84.441406 158.867188 84.441406 C 155.589844 84.441406 152.308594 84.804688 149.109375 85.523438 C 147.566406 85.875 146.59375 87.414062 146.941406 88.957031 C 147.292969 90.492188 148.824219 91.441406 150.382812 91.125 C 153.15625 90.503906 156.011719 90.183594 158.867188 90.183594 C 179.90625 90.183594 197.027344 107.300781 197.027344 128.34375 C 197.027344 131.199219 196.707031 134.058594 196.082031 136.832031 C 195.730469 138.375 196.703125 139.921875 198.25 140.269531 C 199.726562 140.609375 201.34375 139.601562 201.6875 138.101562 C 202.40625 134.90625 202.769531 131.628906 202.769531 128.34375 C 202.769531 112.558594 194.207031 97.902344 180.421875 90.101562 C 179.960938 89.84375 179.796875 89.257812 180.058594 88.796875 C 180.316406 88.328125 180.90625 88.171875 181.363281 88.433594 C 195.75 96.578125 204.6875 111.871094 204.6875 128.34375 C 204.6875 131.769531 204.300781 135.191406 203.550781 138.519531 C 203.0625 140.71875 201.136719 142.257812 198.890625 142.257812 Z M 198.890625 142.257812 " fill-opacity="1" fill-rule="nonzero"/><path fill="#472b29" d="M 174.816406 87.363281 C 174.699219 87.363281 174.585938 87.34375 174.476562 87.300781 C 171.839844 86.292969 169.09375 85.542969 166.3125 85.066406 C 165.792969 84.976562 165.445312 84.484375 165.53125 83.960938 C 165.621094 83.433594 166.109375 83.0625 166.640625 83.179688 C 169.535156 83.679688 172.402344 84.460938 175.15625 85.507812 C 175.652344 85.699219 175.898438 86.25 175.710938 86.742188 C 175.566406 87.128906 175.203125 87.363281 174.816406 87.363281 Z M 174.816406 87.363281 " fill-opacity="1" fill-rule="nonzero"/></svg>