<svg xmlns="http://www.w3.org/2000/svg" xmlns:xlink="http://www.w3.org/1999/xlink" width="400" zoomAndPan="magnify" viewBox="0 0 300 299.999988" height="400" preserveAspectRatio="xMidYMid meet" version="1.0"><defs><clipPath id="648640a099"><path d="M 91 284 L 209 284 L 209 294.75 L 91 294.75 Z M 91 284 " clip-rule="nonzero"/></clipPath></defs><path fill="#e3e4e2" d="M 187.488281 289.390625 L 112.511719 289.390625 L 115.4375 257.234375 L 116.410156 246.519531 L 117.867188 241.160156 L 182.132812 241.160156 L 183.589844 246.519531 L 184.566406 257.234375 Z M 187.488281 289.390625 " fill-opacity="1" fill-rule="nonzero"/><g clip-path="url(#648640a099)"><path fill="#b2b1b4" d="M 91.09375 284.03125 L 208.90625 284.03125 L 208.90625 294.75 L 91.09375 294.75 Z M 91.09375 284.03125 " fill-opacity="1" fill-rule="nonzero"/></g><path fill="#b2b1b4" d="M 184.566406 257.234375 L 115.4375 257.234375 L 116.410156 246.519531 L 117.867188 241.160156 L 182.132812 241.160156 L 183.589844 246.519531 Z M 184.566406 257.234375 " fill-opacity="1" fill-rule="nonzero"/><path fill="#e3e4e2" d="M 16.117188 0 L 283.882812 0 C 284.40625 0 284.933594 0.0273438 285.457031 0.078125 C 285.980469 0.128906 286.5 0.207031 287.015625 0.308594 C 287.53125 0.410156 288.042969 0.539062 288.546875 0.691406 C 289.046875 0.84375 289.542969 1.023438 290.03125 1.222656 C 290.515625 1.425781 290.992188 1.648438 291.453125 1.898438 C 291.917969 2.148438 292.371094 2.417969 292.808594 2.710938 C 293.246094 3.003906 293.667969 3.316406 294.074219 3.648438 C 294.480469 3.984375 294.871094 4.335938 295.242188 4.707031 C 295.613281 5.082031 295.964844 5.472656 296.300781 5.878906 C 296.632812 6.285156 296.945312 6.707031 297.238281 7.144531 C 297.53125 7.582031 297.800781 8.035156 298.050781 8.5 C 298.296875 8.960938 298.523438 9.4375 298.722656 9.925781 C 298.925781 10.410156 299.101562 10.90625 299.253906 11.410156 C 299.40625 11.914062 299.535156 12.425781 299.636719 12.941406 C 299.742188 13.457031 299.816406 13.976562 299.871094 14.5 C 299.921875 15.027344 299.945312 15.550781 299.945312 16.078125 L 299.945312 230.441406 C 299.945312 230.96875 299.921875 231.492188 299.871094 232.015625 C 299.816406 232.539062 299.742188 233.0625 299.636719 233.578125 C 299.535156 234.09375 299.40625 234.605469 299.253906 235.109375 C 299.101562 235.613281 298.925781 236.105469 298.722656 236.59375 C 298.523438 237.078125 298.296875 237.554688 298.050781 238.019531 C 297.800781 238.484375 297.53125 238.933594 297.238281 239.371094 C 296.945312 239.8125 296.632812 240.234375 296.300781 240.640625 C 295.964844 241.046875 295.613281 241.4375 295.242188 241.808594 C 294.871094 242.179688 294.480469 242.535156 294.074219 242.867188 C 293.667969 243.203125 293.246094 243.515625 292.808594 243.808594 C 292.371094 244.101562 291.917969 244.371094 291.453125 244.621094 C 290.992188 244.867188 290.515625 245.09375 290.03125 245.292969 C 289.542969 245.496094 289.046875 245.671875 288.546875 245.824219 C 288.042969 245.980469 287.53125 246.105469 287.015625 246.210938 C 286.5 246.3125 285.980469 246.390625 285.457031 246.441406 C 284.933594 246.492188 284.40625 246.519531 283.882812 246.519531 L 16.117188 246.519531 C 15.59375 246.519531 15.066406 246.492188 14.542969 246.441406 C 14.019531 246.390625 13.5 246.3125 12.984375 246.210938 C 12.46875 246.105469 11.957031 245.980469 11.453125 245.824219 C 10.953125 245.671875 10.457031 245.496094 9.96875 245.292969 C 9.484375 245.09375 9.007812 244.867188 8.546875 244.621094 C 8.082031 244.371094 7.628906 244.101562 7.191406 243.808594 C 6.753906 243.515625 6.332031 243.203125 5.925781 242.867188 C 5.519531 242.535156 5.128906 242.179688 4.757812 241.808594 C 4.386719 241.4375 4.035156 241.046875 3.699219 240.640625 C 3.367188 240.234375 3.054688 239.8125 2.761719 239.371094 C 2.46875 238.933594 2.199219 238.484375 1.949219 238.019531 C 1.703125 237.554688 1.476562 237.078125 1.277344 236.59375 C 1.074219 236.105469 0.898438 235.613281 0.746094 235.109375 C 0.59375 234.605469 0.464844 234.09375 0.363281 233.578125 C 0.257812 233.0625 0.183594 232.539062 0.128906 232.015625 C 0.078125 231.492188 0.0546875 230.96875 0.0546875 230.441406 L 0.0546875 16.078125 C 0.0546875 15.550781 0.078125 15.027344 0.128906 14.5 C 0.183594 13.976562 0.257812 13.457031 0.363281 12.941406 C 0.464844 12.425781 0.59375 11.914062 0.746094 11.410156 C 0.898438 10.90625 1.074219 10.410156 1.277344 9.925781 C 1.476562 9.4375 1.703125 8.960938 1.949219 8.5 C 2.199219 8.035156 2.46875 7.582031 2.761719 7.144531 C 3.054688 6.707031 3.367188 6.285156 3.699219 5.878906 C 4.035156 5.472656 4.386719 5.082031 4.757812 4.707031 C 5.128906 4.335938 5.519531 3.984375 5.925781 3.648438 C 6.332031 3.316406 6.753906 3.003906 7.191406 2.710938 C 7.628906 2.417969 8.082031 2.148438 8.546875 1.898438 C 9.007812 1.648438 9.484375 1.425781 9.96875 1.222656 C 10.457031 1.023438 10.953125 0.84375 11.453125 0.691406 C 11.957031 0.539062 12.46875 0.410156 12.984375 0.308594 C 13.5 0.207031 14.019531 0.128906 14.542969 0.078125 C 15.066406 0.0273438 15.59375 0 16.117188 0 Z M 16.117188 0 " fill-opacity="1" fill-rule="nonzero"/><path fill="#4e4e4f" d="M 0.0546875 42.871094 L 299.945312 42.871094 L 299.945312 203.644531 L 0.0546875 203.644531 Z M 0.0546875 42.871094 " fill-opacity="1" fill-rule="nonzero"/><path fill="#0093b9" d="M 16.117188 0 L 283.882812 0 C 284.40625 0 284.933594 0.0273438 285.457031 0.078125 C 285.980469 0.128906 286.5 0.207031 287.015625 0.308594 C 287.53125 0.410156 288.042969 0.539062 288.546875 0.691406 C 289.046875 0.84375 289.542969 1.023438 290.03125 1.222656 C 290.515625 1.425781 290.992188 1.648438 291.453125 1.898438 C 291.917969 2.148438 292.371094 2.417969 292.808594 2.710938 C 293.246094 3.003906 293.667969 3.316406 294.074219 3.648438 C 294.480469 3.984375 294.871094 4.335938 295.242188 4.707031 C 295.613281 5.082031 295.964844 5.472656 296.300781 5.878906 C 296.632812 6.285156 296.945312 6.707031 297.238281 7.144531 C 297.53125 7.582031 297.800781 8.035156 298.050781 8.5 C 298.296875 8.960938 298.523438 9.4375 298.722656 9.925781 C 298.925781 10.410156 299.101562 10.90625 299.253906 11.410156 C 299.40625 11.914062 299.535156 12.425781 299.636719 12.941406 C 299.742188 13.457031 299.816406 13.976562 299.871094 14.5 C 299.921875 15.027344 299.945312 15.550781 299.945312 16.078125 L 299.945312 42.871094 L 0.0546875 42.871094 L 0.0546875 16.078125 C 0.0546875 15.550781 0.078125 15.027344 0.128906 14.5 C 0.183594 13.976562 0.257812 13.457031 0.363281 12.941406 C 0.464844 12.425781 0.59375 11.914062 0.746094 11.410156 C 0.898438 10.90625 1.074219 10.410156 1.277344 9.925781 C 1.476562 9.4375 1.703125 8.960938 1.949219 8.5 C 2.199219 8.035156 2.46875 7.582031 2.761719 7.144531 C 3.054688 6.707031 3.367188 6.285156 3.699219 5.878906 C 4.035156 5.472656 4.386719 5.082031 4.757812 4.707031 C 5.128906 4.335938 5.519531 3.984375 5.925781 3.648438 C 6.332031 3.316406 6.753906 3.003906 7.191406 2.710938 C 7.628906 2.417969 8.082031 2.148438 8.546875 1.898438 C 9.007812 1.648438 9.484375 1.425781 9.96875 1.222656 C 10.457031 1.023438 10.953125 0.84375 11.453125 0.691406 C 11.957031 0.539062 12.46875 0.410156 12.984375 0.308594 C 13.5 0.207031 14.019531 0.128906 14.542969 0.078125 C 15.066406 0.0273438 15.59375 0 16.117188 0 Z M 16.117188 0 " fill-opacity="1" fill-rule="nonzero"/><path fill="#eb5849" d="M 16.117188 16.078125 L 26.828125 16.078125 L 26.828125 26.796875 L 16.117188 26.796875 Z M 16.117188 16.078125 " fill-opacity="1" fill-rule="nonzero"/><path fill="#f6bc1b" d="M 37.539062 16.078125 L 48.25 16.078125 L 48.25 26.796875 L 37.539062 26.796875 Z M 37.539062 16.078125 " fill-opacity="1" fill-rule="nonzero"/><path fill="#85bb40" d="M 58.960938 16.078125 L 69.671875 16.078125 L 69.671875 26.796875 L 58.960938 26.796875 Z M 58.960938 16.078125 " fill-opacity="1" fill-rule="nonzero"/><path fill="#b2b1b4" d="M 144.644531 219.722656 L 155.355469 219.722656 L 155.355469 230.441406 L 144.644531 230.441406 Z M 144.644531 219.722656 " fill-opacity="1" fill-rule="nonzero"/><path fill="#eb5849" d="M 21.472656 107.183594 L 32.183594 107.183594 L 32.183594 117.898438 L 21.472656 117.898438 Z M 21.472656 107.183594 " fill-opacity="1" fill-rule="nonzero"/><path fill="#0093b9" d="M 42.894531 107.183594 L 123.222656 107.183594 L 123.222656 117.898438 L 42.894531 117.898438 Z M 42.894531 107.183594 " fill-opacity="1" fill-rule="nonzero"/><path fill="#85bb40" d="M 21.472656 128.617188 L 32.183594 128.617188 L 32.183594 139.335938 L 21.472656 139.335938 Z M 21.472656 128.617188 " fill-opacity="1" fill-rule="nonzero"/><path fill="#eb5849" d="M 42.894531 128.617188 L 182.132812 128.617188 L 182.132812 139.335938 L 42.894531 139.335938 Z M 42.894531 128.617188 " fill-opacity="1" fill-rule="nonzero"/><path fill="#0093b9" d="M 21.472656 150.054688 L 32.183594 150.054688 L 32.183594 160.773438 L 21.472656 160.773438 Z M 21.472656 150.054688 " fill-opacity="1" fill-rule="nonzero"/><path fill="#e3e4e2" d="M 42.894531 150.054688 L 144.644531 150.054688 L 144.644531 160.773438 L 42.894531 160.773438 Z M 42.894531 150.054688 " fill-opacity="1" fill-rule="nonzero"/><path fill="#eb5849" d="M 21.472656 171.492188 L 32.183594 171.492188 L 32.183594 182.210938 L 21.472656 182.210938 Z M 21.472656 171.492188 " fill-opacity="1" fill-rule="nonzero"/><path fill="#85bb40" d="M 42.894531 171.492188 L 198.199219 171.492188 L 198.199219 182.210938 L 42.894531 182.210938 Z M 42.894531 171.492188 " fill-opacity="1" fill-rule="nonzero"/><path fill="#e3e4e2" d="M 33.753906 94.894531 L 23.042969 84.175781 C 22.792969 83.925781 22.570312 83.65625 22.375 83.363281 C 22.179688 83.070312 22.015625 82.761719 21.882812 82.4375 C 21.746094 82.113281 21.644531 81.777344 21.578125 81.433594 C 21.507812 81.085938 21.472656 80.738281 21.472656 80.386719 C 21.472656 80.035156 21.507812 79.6875 21.578125 79.339844 C 21.644531 78.996094 21.746094 78.660156 21.882812 78.335938 C 22.015625 78.011719 22.179688 77.703125 22.375 77.410156 C 22.570312 77.117188 22.792969 76.84375 23.042969 76.597656 L 33.753906 65.878906 L 41.328125 73.457031 L 34.402344 80.386719 L 41.328125 87.316406 Z M 33.753906 94.894531 " fill-opacity="1" fill-rule="nonzero"/><path fill="#e3e4e2" d="M 84.167969 94.894531 L 76.59375 87.316406 L 83.519531 80.386719 L 76.59375 73.457031 L 84.167969 65.878906 L 94.878906 76.597656 C 95.128906 76.84375 95.347656 77.117188 95.542969 77.410156 C 95.738281 77.699219 95.90625 78.007812 96.039062 78.335938 C 96.175781 78.660156 96.277344 78.996094 96.34375 79.339844 C 96.414062 79.683594 96.445312 80.035156 96.445312 80.386719 C 96.445312 80.738281 96.414062 81.085938 96.34375 81.429688 C 96.277344 81.777344 96.175781 82.113281 96.039062 82.4375 C 95.90625 82.761719 95.738281 83.070312 95.542969 83.363281 C 95.347656 83.65625 95.128906 83.925781 94.878906 84.175781 Z M 84.167969 94.894531 " fill-opacity="1" fill-rule="nonzero"/><path fill="#e3e4e2" d="M 48.523438 94.769531 L 59.238281 62.613281 L 69.398438 66.003906 L 58.683594 98.15625 Z M 48.523438 94.769531 " fill-opacity="1" fill-rule="nonzero"/><path fill="#0093b9" d="M 192.84375 128.617188 L 224.972656 128.617188 L 224.972656 139.335938 L 192.84375 139.335938 Z M 192.84375 128.617188 " fill-opacity="1" fill-rule="nonzero"/><path fill="#eb5849" d="M 208.90625 171.492188 L 219.617188 171.492188 L 219.617188 182.210938 L 208.90625 182.210938 Z M 208.90625 171.492188 " fill-opacity="1" fill-rule="nonzero"/><path fill="#0093b9" d="M 230.328125 171.492188 L 241.039062 171.492188 L 241.039062 182.210938 L 230.328125 182.210938 Z M 230.328125 171.492188 " fill-opacity="1" fill-rule="nonzero"/><path fill="#85bb40" d="M 133.933594 107.183594 L 144.644531 107.183594 L 144.644531 117.898438 L 133.933594 117.898438 Z M 133.933594 107.183594 " fill-opacity="1" fill-rule="nonzero"/></svg>