<svg xmlns="http://www.w3.org/2000/svg" xmlns:xlink="http://www.w3.org/1999/xlink" width="400" zoomAndPan="magnify" viewBox="0 0 300 299.999988" height="400" preserveAspectRatio="xMidYMid meet" version="1.0"><path fill="#e6e9ed" d="M 135.484375 4.839844 L 9.675781 4.839844 C 7.011719 4.839844 4.839844 7.011719 4.839844 9.675781 L 4.839844 212.902344 C 4.839844 215.566406 7.011719 217.742188 9.675781 217.742188 L 43.546875 217.742188 L 43.546875 193.546875 C 43.546875 185.515625 50.03125 179.03125 58.066406 179.03125 C 62.089844 179.03125 65.71875 180.675781 68.328125 183.285156 C 70.9375 185.894531 72.582031 189.523438 72.582031 193.546875 L 72.582031 217.742188 L 103.9375 217.742188 C 102.386719 213.054688 101.613281 208.160156 101.613281 203.226562 C 101.613281 193.832031 105.394531 185.421875 111.535156 179.277344 C 117.679688 173.136719 126.089844 169.355469 135.484375 169.355469 L 72.582031 169.355469 C 67.25 169.355469 62.410156 167.179688 58.878906 163.703125 C 55.398438 160.148438 53.226562 155.3125 53.226562 150 C 53.226562 139.300781 61.882812 130.644531 72.582031 130.644531 L 140.324219 130.644531 L 140.324219 9.675781 C 140.324219 7.011719 138.148438 4.839844 135.484375 4.839844 " fill-opacity="1" fill-rule="nonzero"/><path fill="#ff826e" d="M 188.710938 288.433594 L 188.710938 295.160156 L 101.613281 295.160156 L 101.613281 275.804688 L 93.089844 275.804688 C 79.988281 275.804688 67.34375 270.570312 58.066406 261.289062 C 53.414062 256.640625 49.785156 251.179688 47.328125 245.222656 C 44.851562 239.234375 43.546875 232.84375 43.546875 226.265625 L 43.546875 208.066406 L 72.582031 208.066406 L 72.582031 221.425781 C 72.582031 231.046875 78.003906 239.800781 86.566406 244.109375 C 90.101562 245.847656 93.957031 246.773438 97.925781 246.773438 L 149.90625 246.773438 C 159.394531 246.773438 168.542969 250.007812 175.933594 255.921875 C 179.902344 259.058594 183.058594 263.085938 185.230469 267.527344 C 187.40625 271.988281 188.613281 276.921875 188.652344 282.007812 L 188.710938 285.484375 L 188.710938 288.433594 " fill-opacity="1" fill-rule="nonzero"/><path fill="#fcd770" d="M 217.742188 295.160156 L 188.710938 295.160156 L 188.710938 288.433594 C 188.710938 274.503906 195.683594 261.480469 207.25 253.785156 C 214.113281 249.195312 222.144531 246.773438 230.367188 246.773438 L 256.355469 246.773438 C 265.84375 246.773438 274.992188 250.007812 282.382812 255.921875 C 286.449219 259.15625 289.640625 263.21875 291.816406 267.773438 C 294.007812 272.328125 295.160156 277.355469 295.160156 282.480469 L 295.160156 295.160156 L 217.742188 295.160156 " fill-opacity="1" fill-rule="nonzero"/><path fill="#5cd6b3" d="M 295.160156 179.03125 L 295.160156 282.480469 C 295.160156 277.355469 294.007812 272.328125 291.816406 267.773438 C 289.640625 263.21875 286.449219 259.15625 282.382812 255.921875 C 274.992188 250.007812 265.84375 246.773438 256.355469 246.773438 L 245.320312 246.773438 C 254.996094 246.773438 263.765625 241.007812 267.585938 232.105469 L 271.988281 221.804688 C 274.503906 215.945312 275.804688 209.613281 275.804688 203.226562 C 275.804688 193.832031 272.027344 185.421875 265.882812 179.277344 C 259.742188 173.136719 251.328125 169.355469 241.933594 169.355469 C 240.535156 169.355469 239.175781 169.449219 237.816406 169.636719 L 237.097656 164.515625 L 242.03125 132.101562 L 255.488281 134.027344 C 262.253906 135.011719 268.738281 137.46875 274.40625 141.25 C 280.796875 145.5 285.976562 151.113281 289.546875 157.597656 C 293.175781 164.082031 295.160156 171.378906 295.160156 179.03125 " fill-opacity="1" fill-rule="nonzero"/><path fill="#5cd6b3" d="M 207.25 253.785156 C 195.683594 261.480469 188.710938 274.503906 188.710938 288.433594 L 188.710938 285.484375 L 188.652344 282.007812 C 188.613281 276.921875 187.40625 271.988281 185.230469 267.527344 C 183.058594 263.085938 179.902344 259.058594 175.933594 255.921875 C 168.542969 250.007812 159.394531 246.773438 149.90625 246.773438 L 138.867188 246.773438 C 148.542969 246.773438 157.316406 241.007812 161.132812 232.105469 L 165.535156 221.804688 C 168.050781 215.945312 169.355469 209.613281 169.355469 203.226562 C 169.355469 193.832031 165.574219 185.421875 159.433594 179.277344 C 153.289062 173.136719 144.878906 169.355469 135.484375 169.355469 L 82.257812 169.355469 L 82.257812 130.644531 L 183.585938 130.644531 L 188.710938 164.515625 L 212.902344 150 L 237.097656 164.515625 L 237.816406 169.636719 C 230.085938 170.507812 223.203125 174.042969 217.988281 179.277344 C 211.84375 185.421875 208.066406 193.832031 208.066406 203.226562 C 208.066406 209.613281 209.367188 215.945312 211.882812 221.804688 L 216.285156 232.105469 C 220.105469 241.007812 228.875 246.773438 238.550781 246.773438 L 230.367188 246.773438 C 222.144531 246.773438 214.113281 249.195312 207.25 253.785156 " fill-opacity="1" fill-rule="nonzero"/><path fill="#e6e9ed" d="M 212.902344 150 L 188.710938 164.515625 L 183.585938 130.644531 L 193.546875 130.644531 L 212.902344 150 " fill-opacity="1" fill-rule="nonzero"/><path fill="#e6e9ed" d="M 242.03125 132.101562 L 237.097656 164.515625 L 212.902344 150 L 232.203125 130.703125 L 242.03125 132.101562 " fill-opacity="1" fill-rule="nonzero"/><path fill="#f0d0b4" d="M 72.582031 193.546875 L 72.582031 208.066406 L 43.546875 208.066406 L 43.546875 193.546875 C 43.546875 185.515625 50.03125 179.03125 58.066406 179.03125 C 62.089844 179.03125 65.71875 180.675781 68.328125 183.285156 C 70.9375 185.894531 72.582031 189.523438 72.582031 193.546875 " fill-opacity="1" fill-rule="nonzero"/><path fill="#f0d0b4" d="M 82.257812 130.644531 L 82.257812 169.355469 L 72.582031 169.355469 C 67.25 169.355469 62.410156 167.179688 58.878906 163.703125 C 55.398438 160.148438 53.226562 155.3125 53.226562 150 C 53.226562 139.300781 61.882812 130.644531 72.582031 130.644531 L 82.257812 130.644531 " fill-opacity="1" fill-rule="nonzero"/><path fill="#b27946" d="M 169.355469 203.226562 C 169.355469 209.613281 168.050781 215.945312 165.535156 221.804688 L 161.132812 232.105469 C 157.316406 241.007812 148.542969 246.773438 138.867188 246.773438 L 132.101562 246.773438 C 122.421875 246.773438 113.652344 241.007812 109.835938 232.105469 L 105.429688 221.804688 C 104.84375 220.445312 104.371094 219.101562 103.9375 217.742188 C 102.386719 213.054688 101.613281 208.160156 101.613281 203.226562 C 101.613281 193.832031 105.394531 185.421875 111.535156 179.277344 C 117.679688 173.136719 126.089844 169.355469 135.484375 169.355469 C 144.878906 169.355469 153.289062 173.136719 159.433594 179.277344 C 165.574219 185.421875 169.355469 193.832031 169.355469 203.226562 " fill-opacity="1" fill-rule="nonzero"/><path fill="#656d78" d="M 275.804688 203.226562 C 275.804688 209.613281 274.503906 215.945312 271.988281 221.804688 L 267.585938 232.105469 C 263.765625 241.007812 254.996094 246.773438 245.320312 246.773438 L 238.550781 246.773438 C 228.875 246.773438 220.105469 241.007812 216.285156 232.105469 L 211.882812 221.804688 C 209.367188 215.945312 208.066406 209.613281 208.066406 203.226562 C 208.066406 193.832031 211.84375 185.421875 217.988281 179.277344 C 223.203125 174.042969 230.085938 170.507812 237.816406 169.636719 C 239.175781 169.449219 240.535156 169.355469 241.933594 169.355469 C 251.328125 169.355469 259.742188 173.136719 265.882812 179.277344 C 272.027344 185.421875 275.804688 193.832031 275.804688 203.226562 " fill-opacity="1" fill-rule="nonzero"/><path fill="#656d78" d="M 212.902344 49.199219 C 206.136719 52.300781 198.292969 55.25 190.355469 56.855469 C 189.105469 57.101562 187.933594 57.480469 186.875 58.066406 L 174.195312 58.066406 C 170.46875 58.066406 167.125 59.464844 164.574219 61.789062 L 164.515625 61.75 C 164.515625 61.75 163.304688 58.40625 162.097656 53.847656 C 160.886719 49.351562 159.675781 43.546875 159.675781 38.710938 C 159.675781 34.683594 161.320312 31.054688 163.929688 28.445312 C 166.539062 25.839844 170.167969 24.195312 174.195312 24.195312 L 177.972656 19.164062 C 181.355469 14.667969 185.703125 11.074219 190.601562 8.617188 C 195.476562 6.199219 200.996094 4.839844 206.609375 4.839844 C 210.765625 4.839844 214.886719 5.574219 218.800781 7.011719 L 250.648438 18.578125 C 255.296875 20.28125 259.15625 23.324219 261.875 27.199219 C 264.578125 31.054688 266.128906 35.703125 266.128906 40.65625 C 266.128906 42.585938 265.882812 44.472656 265.410156 46.363281 L 261.289062 61.789062 C 258.71875 59.464844 255.335938 58.066406 251.613281 58.066406 L 238.929688 58.066406 C 237.871094 57.480469 236.699219 57.101562 235.453125 56.855469 C 227.515625 55.25 219.632812 52.300781 212.902344 49.199219 " fill-opacity="1" fill-rule="nonzero"/><path fill="#f0d0b4" d="M 232.203125 130.703125 L 212.902344 150 L 193.546875 130.644531 L 198.046875 112.6875 C 202.507812 114.917969 207.535156 116.128906 212.902344 116.128906 C 218.140625 116.128906 223.070312 114.976562 227.476562 112.839844 L 231.917969 130.644531 L 232.203125 130.703125 " fill-opacity="1" fill-rule="nonzero"/><path fill="#f0d0b4" d="M 261.875 82.84375 C 259.269531 85.453125 255.640625 87.097656 251.613281 87.097656 L 246.378906 87.097656 C 246.679688 85.488281 246.773438 83.902344 246.773438 82.257812 L 246.773438 70.972656 C 246.773438 65.472656 243.675781 60.425781 238.929688 58.066406 L 251.613281 58.066406 C 255.335938 58.066406 258.71875 59.464844 261.289062 61.789062 C 264.296875 64.394531 266.128906 68.269531 266.128906 72.582031 C 266.128906 76.605469 264.484375 80.234375 261.875 82.84375 " fill-opacity="1" fill-rule="nonzero"/><path fill="#f0d0b4" d="M 227.476562 112.839844 C 223.070312 114.976562 218.140625 116.128906 212.902344 116.128906 C 207.535156 116.128906 202.507812 114.917969 198.046875 112.6875 C 188.179688 107.90625 180.960938 98.417969 179.429688 87.097656 C 179.125 85.488281 179.03125 83.902344 179.03125 82.257812 L 179.03125 70.972656 C 179.03125 65.472656 182.132812 60.425781 186.875 58.066406 C 187.933594 57.480469 189.105469 57.101562 190.355469 56.855469 C 198.292969 55.25 206.136719 52.300781 212.902344 49.199219 C 219.632812 52.300781 227.515625 55.25 235.453125 56.855469 C 236.699219 57.101562 237.871094 57.480469 238.929688 58.066406 C 243.675781 60.425781 246.773438 65.472656 246.773438 70.972656 L 246.773438 82.257812 C 246.773438 83.902344 246.679688 85.488281 246.378906 87.097656 C 245.375 94.542969 241.933594 101.140625 236.851562 106.207031 C 234.148438 108.925781 230.953125 111.195312 227.476562 112.839844 " fill-opacity="1" fill-rule="nonzero"/><path fill="#f0d0b4" d="M 179.03125 82.257812 C 179.03125 83.902344 179.125 85.488281 179.429688 87.097656 L 174.195312 87.097656 C 170.167969 87.097656 166.539062 85.453125 163.929688 82.84375 C 161.320312 80.234375 159.675781 76.605469 159.675781 72.582031 C 159.675781 68.269531 161.566406 64.359375 164.574219 61.789062 C 167.125 59.464844 170.46875 58.066406 174.195312 58.066406 L 186.875 58.066406 C 182.132812 60.425781 179.03125 65.472656 179.03125 70.972656 L 179.03125 82.257812 " fill-opacity="1" fill-rule="nonzero"/><path fill="#000000" d="M 285.390625 252.125 C 279.699219 247.566406 272.988281 244.46875 265.902344 242.976562 C 268.417969 240.421875 270.550781 237.4375 272.027344 234.015625 L 276.449219 223.695312 C 279.226562 217.195312 280.644531 210.3125 280.644531 203.226562 C 280.644531 181.90625 263.3125 164.554688 241.992188 164.515625 L 246.074219 137.5625 L 254.808594 138.808594 C 260.816406 139.660156 266.675781 141.910156 271.742188 145.273438 C 283.367188 153.023438 290.324219 165.648438 290.324219 179.03125 L 290.324219 256.90625 C 288.828125 255.183594 287.203125 253.578125 285.390625 252.125 Z M 290.324219 290.324219 L 270.96875 290.324219 L 270.96875 280.644531 L 261.289062 280.644531 L 261.289062 290.324219 L 222.582031 290.324219 L 222.582031 280.644531 L 212.902344 280.644531 L 212.902344 290.324219 L 193.546875 290.324219 L 193.546875 288.414062 C 193.546875 276.070312 199.671875 264.636719 209.9375 257.792969 C 216.003906 253.75 223.054688 251.613281 230.347656 251.613281 L 256.355469 251.613281 C 264.691406 251.613281 272.859375 254.484375 279.359375 259.683594 C 286.316406 265.257812 290.324219 273.574219 290.324219 282.515625 Z M 93.105469 270.96875 C 81.160156 270.96875 69.933594 266.316406 61.484375 257.871094 C 53.035156 249.421875 48.386719 238.191406 48.386719 226.246094 L 48.386719 212.902344 L 67.742188 212.902344 L 67.742188 221.445312 C 67.742188 232.9375 74.128906 243.296875 84.433594 248.4375 C 88.589844 250.515625 93.257812 251.613281 97.910156 251.613281 L 149.90625 251.613281 C 158.242188 251.613281 166.40625 254.484375 172.890625 259.683594 C 179.730469 265.144531 183.71875 273.292969 183.832031 282.042969 L 183.871094 288.414062 L 183.871094 290.324219 L 164.515625 290.324219 L 164.515625 280.644531 L 154.839844 280.644531 L 154.839844 290.324219 L 106.453125 290.324219 L 106.453125 270.96875 Z M 9.675781 212.902344 L 9.675781 9.675781 L 135.484375 9.675781 L 135.484375 125.804688 L 72.582031 125.804688 C 59.238281 125.804688 48.386719 136.65625 48.386719 150 C 48.386719 163.34375 59.238281 174.195312 72.582031 174.195312 L 109.96875 174.195312 C 101.894531 181.300781 96.773438 191.660156 96.773438 203.226562 C 96.773438 206.496094 97.113281 209.726562 97.71875 212.902344 L 77.417969 212.902344 L 77.417969 193.546875 C 77.417969 182.871094 68.742188 174.195312 58.066406 174.195312 C 47.386719 174.195312 38.710938 182.871094 38.710938 193.546875 L 38.710938 212.902344 Z M 191.542969 135.484375 L 205.097656 149.035156 L 192.414062 156.652344 L 189.199219 135.484375 Z M 212.902344 120.96875 C 216.796875 120.96875 220.539062 120.382812 224.074219 119.304688 L 226.625 129.453125 L 212.902344 143.15625 L 198.898438 129.171875 L 201.390625 119.230469 C 205.019531 120.34375 208.894531 120.96875 212.902344 120.96875 Z M 183.871094 82.257812 L 183.871094 70.992188 C 183.871094 66.417969 187.007812 62.449219 191.316406 61.582031 C 197.988281 60.238281 205.230469 57.875 212.882812 54.53125 C 219.460938 57.382812 226.929688 60.050781 234.488281 61.582031 C 238.796875 62.449219 241.933594 66.417969 241.933594 70.992188 L 241.933594 82.257812 C 241.933594 98.265625 228.914062 111.289062 212.902344 111.289062 C 196.894531 111.289062 183.871094 98.265625 183.871094 82.257812 Z M 164.515625 72.582031 C 164.515625 67.25 168.863281 62.902344 174.195312 62.902344 L 176.027344 62.902344 C 174.894531 65.398438 174.195312 68.121094 174.195312 70.992188 L 174.195312 82.257812 C 168.863281 82.257812 164.515625 77.910156 164.515625 72.582031 Z M 174.195312 29.03125 L 176.613281 29.03125 L 181.847656 22.058594 C 187.652344 14.308594 196.914062 9.675781 206.609375 9.675781 C 210.21875 9.675781 213.773438 10.300781 217.175781 11.546875 L 249.003906 23.117188 C 256.355469 25.78125 261.289062 32.832031 261.289062 40.65625 C 261.289062 42.1875 261.101562 43.699219 260.761719 45.097656 L 258.246094 54.472656 C 256.167969 53.699219 253.957031 53.226562 251.613281 53.226562 L 239.949219 53.226562 C 238.816406 52.753906 237.625 52.355469 236.398438 52.089844 C 216.550781 48.085938 196.421875 34.816406 196.230469 34.683594 L 190.863281 42.734375 C 191.242188 42.980469 195.136719 45.550781 201.128906 48.785156 C 197.027344 50.238281 193.09375 51.355469 189.410156 52.089844 C 188.179688 52.355469 186.988281 52.753906 185.855469 53.226562 L 174.195312 53.226562 C 171.753906 53.226562 169.449219 53.71875 167.3125 54.550781 C 166.027344 50.089844 164.515625 43.757812 164.515625 38.710938 C 164.515625 33.378906 168.863281 29.03125 174.195312 29.03125 Z M 251.613281 82.257812 L 251.613281 70.992188 C 251.613281 68.121094 250.914062 65.398438 249.78125 62.902344 L 251.613281 62.902344 C 256.941406 62.902344 261.289062 67.25 261.289062 72.582031 C 261.289062 77.910156 256.941406 82.257812 251.613281 82.257812 Z M 236.492188 136.183594 L 233.390625 156.652344 L 220.710938 149.035156 L 233.921875 135.824219 Z M 72.582031 164.515625 C 64.566406 164.515625 58.066406 158.015625 58.066406 150 C 58.066406 141.984375 64.566406 135.484375 72.582031 135.484375 L 77.417969 135.484375 L 77.417969 164.515625 Z M 114.296875 230.214844 L 109.871094 219.898438 C 107.605469 214.585938 106.453125 208.992188 106.453125 203.226562 C 106.453125 187.214844 119.472656 174.195312 135.484375 174.195312 C 151.492188 174.195312 164.515625 187.214844 164.515625 203.226562 C 164.515625 208.992188 163.363281 214.585938 161.09375 219.898438 L 156.671875 230.199219 C 153.609375 237.324219 146.636719 241.933594 138.886719 241.933594 L 132.082031 241.933594 C 124.332031 241.933594 117.359375 237.324219 114.296875 230.214844 Z M 100.96875 223.695312 L 105.394531 234.015625 C 106.660156 236.984375 108.4375 239.628906 110.515625 241.933594 L 97.910156 241.933594 C 94.75 241.933594 91.578125 241.179688 88.761719 239.761719 C 82.105469 236.453125 77.910156 229.933594 77.496094 222.582031 L 100.554688 222.582031 C 100.707031 222.957031 100.820312 223.335938 100.96875 223.695312 Z M 67.742188 203.226562 L 48.386719 203.226562 L 48.386719 193.546875 C 48.386719 188.21875 52.734375 183.871094 58.066406 183.871094 C 63.394531 183.871094 67.742188 188.21875 67.742188 193.546875 Z M 189.769531 265.828125 C 187.273438 260.554688 183.625 255.867188 178.9375 252.125 C 173.25 247.566406 166.539062 244.46875 159.449219 242.976562 C 161.964844 240.421875 164.101562 237.4375 165.574219 234.015625 L 169.996094 223.695312 C 172.777344 217.195312 174.195312 210.3125 174.195312 203.226562 C 174.195312 181.886719 156.824219 164.515625 135.484375 164.515625 L 87.097656 164.515625 L 87.097656 135.484375 L 179.410156 135.484375 L 185.003906 172.378906 L 212.902344 155.632812 L 230.558594 166.234375 C 214.753906 171.09375 203.226562 185.835938 203.226562 203.226562 C 203.226562 210.3125 204.644531 217.195312 207.421875 223.695312 L 211.84375 234.015625 C 213.433594 237.703125 215.738281 240.894531 218.535156 243.5625 C 213.601562 244.847656 208.878906 246.867188 204.566406 249.742188 C 198.3125 253.917969 193.300781 259.457031 189.769531 265.828125 Z M 245.335938 241.933594 L 238.535156 241.933594 C 230.785156 241.933594 223.808594 237.324219 220.746094 230.214844 L 216.324219 219.898438 C 214.054688 214.585938 212.902344 208.992188 212.902344 203.226562 C 212.902344 187.214844 225.925781 174.195312 241.933594 174.195312 C 257.945312 174.195312 270.96875 187.214844 270.96875 203.226562 C 270.96875 208.992188 269.816406 214.585938 267.546875 219.898438 L 263.125 230.199219 C 260.0625 237.324219 253.085938 241.933594 245.335938 241.933594 Z M 277.109375 137.222656 C 270.855469 133.046875 263.613281 130.285156 256.1875 129.226562 L 235.8125 126.316406 L 233.050781 115.257812 C 241.5 110.0625 247.792969 101.765625 250.347656 91.933594 L 251.613281 91.933594 C 262.292969 91.933594 270.96875 83.261719 270.96875 72.582031 C 270.96875 68.007812 269.304688 63.847656 266.640625 60.523438 L 270.117188 47.535156 C 270.683594 45.269531 270.96875 42.960938 270.96875 40.65625 C 270.96875 28.785156 263.464844 18.070312 252.3125 14.023438 L 220.484375 2.457031 C 216.023438 0.8125 211.351562 0 206.609375 0 C 193.886719 0 181.734375 6.066406 174.097656 16.234375 L 171.640625 19.523438 C 162.171875 20.773438 154.839844 28.898438 154.839844 38.710938 C 154.839844 46.496094 157.578125 56.0625 159.054688 60.671875 C 156.464844 63.960938 154.839844 68.0625 154.839844 72.582031 C 154.839844 83.261719 163.515625 91.933594 174.195312 91.933594 L 175.460938 91.933594 C 177.972656 101.652344 184.15625 109.871094 192.453125 115.070312 L 189.769531 125.804688 L 145.160156 125.804688 L 145.160156 9.675781 C 145.160156 4.347656 140.8125 0 135.484375 0 L 9.675781 0 C 4.347656 0 0 4.347656 0 9.675781 L 0 212.902344 C 0 218.234375 4.347656 222.582031 9.675781 222.582031 L 38.710938 222.582031 L 38.710938 226.246094 C 38.710938 240.78125 44.359375 254.429688 54.644531 264.710938 C 64.925781 274.992188 78.574219 280.644531 93.105469 280.644531 L 96.773438 280.644531 L 96.773438 300 L 300 300 L 300 179.03125 C 300 162.417969 291.4375 146.785156 277.109375 137.222656 " fill-opacity="1" fill-rule="nonzero"/><path fill="#000000" d="M 87.097656 77.417969 L 77.417969 77.417969 L 77.417969 58.066406 L 67.742188 58.066406 L 67.742188 77.417969 L 58.066406 77.417969 L 58.066406 38.710938 L 48.386719 38.710938 L 48.386719 77.417969 L 38.710938 77.417969 L 38.710938 19.355469 L 29.03125 19.355469 L 29.03125 77.417969 L 19.355469 77.417969 L 19.355469 87.097656 L 87.097656 87.097656 L 87.097656 77.417969 " fill-opacity="1" fill-rule="nonzero"/><path fill="#000000" d="M 125.804688 19.355469 L 77.417969 19.355469 L 77.417969 29.03125 L 125.804688 29.03125 L 125.804688 19.355469 " fill-opacity="1" fill-rule="nonzero"/><path fill="#000000" d="M 87.097656 48.386719 L 125.804688 48.386719 L 125.804688 38.710938 L 87.097656 38.710938 L 87.097656 48.386719 " fill-opacity="1" fill-rule="nonzero"/><path fill="#000000" d="M 96.773438 67.742188 L 125.804688 67.742188 L 125.804688 58.066406 L 96.773438 58.066406 L 96.773438 67.742188 " fill-opacity="1" fill-rule="nonzero"/><path fill="#000000" d="M 125.804688 96.773438 L 19.355469 96.773438 L 19.355469 106.453125 L 125.804688 106.453125 L 125.804688 96.773438 " fill-opacity="1" fill-rule="nonzero"/><path fill="#000000" d="M 96.773438 87.097656 L 106.453125 87.097656 L 106.453125 77.417969 L 96.773438 77.417969 L 96.773438 87.097656 " fill-opacity="1" fill-rule="nonzero"/><path fill="#000000" d="M 116.128906 87.097656 L 125.804688 87.097656 L 125.804688 77.417969 L 116.128906 77.417969 L 116.128906 87.097656 " fill-opacity="1" fill-rule="nonzero"/><path fill="#000000" d="M 48.386719 116.128906 L 19.355469 116.128906 L 19.355469 125.804688 L 48.386719 125.804688 L 48.386719 116.128906 " fill-opacity="1" fill-rule="nonzero"/><path fill="#000000" d="M 38.710938 135.484375 L 19.355469 135.484375 L 19.355469 145.160156 L 38.710938 145.160156 L 38.710938 135.484375 " fill-opacity="1" fill-rule="nonzero"/></svg>